SplineFontDB: 3.0
FontName: KAN-BadamiBoldItalic
FullName: KAN Badami Bold Italic
FamilyName: KAN Badami
Weight: Bold
Copyright: Copyright (c) 2009-2015, NLCI (http://www.nlci.in/fonts/)
Version: 1.0 Sat Apr 29 14:56:47 1995
ItalicAngle: 12
UnderlinePosition: -290
UnderlineWidth: 20
Ascent: 800
Descent: 200
InvalidEm: 0
LayerCount: 2
Layer: 0 1 "Back" 1
Layer: 1 1 "Fore" 0
XUID: [1021 973 2083775245 8696693]
FSType: 0
OS2Version: 0
OS2_WeightWidthSlopeOnly: 0
OS2_UseTypoMetrics: 1
CreationTime: 1250825678
ModificationTime: 1462830495
PfmFamily: 81
TTFWeight: 700
TTFWidth: 5
LineGap: 0
VLineGap: 0
Panose: 5 0 0 0 0 0 0 0 0 0
OS2TypoAscent: -72
OS2TypoAOffset: 1
OS2TypoDescent: -196
OS2TypoDOffset: 1
OS2TypoLinegap: 0
OS2WinAscent: -115
OS2WinAOffset: 1
OS2WinDescent: -157
OS2WinDOffset: 1
HheadAscent: -115
HheadAOffset: 1
HheadDescent: 157
HheadDOffset: 1
OS2SubXSize: 700
OS2SubYSize: 650
OS2SubXOff: 0
OS2SubYOff: 143
OS2SupXSize: 700
OS2SupYSize: 650
OS2SupXOff: 0
OS2SupYOff: 453
OS2StrikeYSize: 50
OS2StrikeYPos: 259
OS2Vendor: 'Alts'
OS2UnicodeRanges: 00000000.00000000.00000000.00000000
MarkAttachClasses: 1
DEI: 91125
TtTable: prep
NPUSHB
 1
 1
SCANTYPE
PUSHW_1
 511
SCANCTRL
EndTTInstrs
ShortTable: maxp 16
  1
  0
  319
  163
  6
  204
  8
  2
  8
  64
  10
  0
  3
  417
  4
  2
EndShort
LangName: 1033 "" "" "Bold Italic" "NLCI:KAN Badami Bold Italic" "" "1.0 Sat Apr 29 14:56:47 1995"
Encoding: UnicodeBmp
UnicodeInterp: none
NameList: Adobe Glyph List
DisplaySize: -24
AntiAlias: 1
FitToEm: 1
WinInfo: 0 64 22
BeginPrivate: 0
EndPrivate
AnchorClass2: "s" "" "V" "" 
BeginChars: 65670 321

StartChar: .notdef
Encoding: 65536 -1 0
Width: 500
Flags: W
LayerCount: 2
Fore
SplineSet
31 0 m 1,0,-1
 31 627 l 1,1,-1
 469 627 l 1,2,-1
 469 0 l 1,3,-1
 31 0 l 1,0,-1
438 31 m 1,4,-1
 438 596 l 1,5,-1
 62 596 l 1,6,-1
 62 31 l 1,7,-1
 438 31 l 1,4,-1
EndSplineSet
EndChar

StartChar: exclam
Encoding: 33 33 4
Width: 379
Flags: W
LayerCount: 2
Fore
SplineSet
240 64 m 0,0,1
 240 48 240 48 233.5 34 c 128,-1,2
 227 20 227 20 216 10 c 128,-1,3
 205 0 205 0 190.5 -5.5 c 128,-1,4
 176 -11 176 -11 160 -11 c 256,5,6
 144 -11 144 -11 130.5 -4.5 c 128,-1,7
 117 2 117 2 107 13 c 128,-1,8
 97 24 97 24 91.5 38.5 c 128,-1,9
 86 53 86 53 86 69 c 256,10,11
 86 85 86 85 91.5 99 c 128,-1,12
 97 113 97 113 107 123.5 c 128,-1,13
 117 134 117 134 130.5 140 c 128,-1,14
 144 146 144 146 160 146 c 0,15,16
 178 146 178 146 192.5 139.5 c 128,-1,17
 207 133 207 133 217.5 122 c 128,-1,18
 228 111 228 111 233.5 96 c 128,-1,19
 239 81 239 81 240 64 c 0,0,1
337 615 m 1,20,21
 312 538 312 538 288 464 c 0,22,23
 278 433 278 433 267 399 c 128,-1,24
 256 365 256 365 245.5 331.5 c 128,-1,25
 235 298 235 298 225 267 c 128,-1,26
 215 236 215 236 207 211 c 1,27,-1
 153 211 l 1,28,-1
 175 595 l 1,29,30
 175 615 175 615 183 632 c 128,-1,31
 191 649 191 649 204.5 661 c 128,-1,32
 218 673 218 673 235.5 679.5 c 128,-1,33
 253 686 253 686 271 686 c 0,34,35
 307 686 307 686 322.5 669 c 128,-1,36
 338 652 338 652 337 615 c 1,20,21
EndSplineSet
EndChar

StartChar: quotedbl
Encoding: 34 34 5
Width: 375
Flags: W
LayerCount: 2
Fore
SplineSet
225 668 m 0,0,1
 225 664 225 664 220 646.5 c 128,-1,2
 215 629 215 629 206.5 605 c 128,-1,3
 198 581 198 581 188 552.5 c 128,-1,4
 178 524 178 524 168.5 498 c 128,-1,5
 159 472 159 472 151 451 c 128,-1,6
 143 430 143 430 140 420 c 1,7,-1
 103 420 l 1,8,-1
 109 653 l 2,9,10
 109 666 109 666 115 677 c 128,-1,11
 121 688 121 688 130.5 696 c 128,-1,12
 140 704 140 704 152 708.5 c 128,-1,13
 164 713 164 713 176 713 c 0,14,15
 197 713 197 713 210 702.5 c 128,-1,16
 223 692 223 692 225 668 c 0,0,1
418 669 m 0,17,18
 418 665 418 665 413 647.5 c 128,-1,19
 408 630 408 630 399.5 606 c 128,-1,20
 391 582 391 582 381 553.5 c 128,-1,21
 371 525 371 525 361.5 499 c 128,-1,22
 352 473 352 473 344.5 452 c 128,-1,23
 337 431 337 431 334 421 c 1,24,-1
 297 421 l 1,25,-1
 305 654 l 2,26,27
 305 667 305 667 310.5 678 c 128,-1,28
 316 689 316 689 325.5 697 c 128,-1,29
 335 705 335 705 347 709.5 c 128,-1,30
 359 714 359 714 371 714 c 0,31,32
 392 714 392 714 404.5 703.5 c 128,-1,33
 417 693 417 693 418 669 c 0,17,18
EndSplineSet
EndChar

StartChar: numbersign
Encoding: 35 35 6
Width: 741
Flags: W
LayerCount: 2
Fore
SplineSet
331 414 m 1,0,-1
 288 283 l 1,1,-1
 412 283 l 1,2,-1
 457 414 l 1,3,-1
 331 414 l 1,0,-1
526 414 m 1,4,-1
 484 283 l 1,5,-1
 639 283 l 1,6,-1
 639 221 l 1,7,-1
 462 221 l 1,8,-1
 387 -22 l 1,9,-1
 318 -5 l 1,10,-1
 392 221 l 1,11,-1
 267 221 l 1,12,-1
 189 -22 l 1,13,-1
 123 -4 l 1,14,-1
 197 221 l 1,15,-1
 64 221 l 1,16,-1
 64 283 l 1,17,-1
 217 283 l 1,18,-1
 259 414 l 1,19,-1
 112 414 l 1,20,-1
 112 479 l 1,21,-1
 280 479 l 1,22,-1
 357 708 l 1,23,-1
 423 690 l 1,24,-1
 350 479 l 1,25,-1
 479 479 l 1,26,-1
 553 708 l 1,27,-1
 621 689 l 1,28,-1
 546 479 l 1,29,-1
 677 479 l 1,30,-1
 677 414 l 1,31,-1
 526 414 l 1,4,-1
EndSplineSet
EndChar

StartChar: dollar
Encoding: 36 36 7
Width: 598
Flags: W
LayerCount: 2
Fore
SplineSet
553 472 m 1,0,-1
 484 472 l 1,1,-1
 485 576 l 2,2,3
 485 581 485 581 483 583 c 128,-1,4
 481 585 481 585 478 586 c 0,5,6
 471 589 471 589 459.5 592 c 128,-1,7
 448 595 448 595 436.5 597.5 c 128,-1,8
 425 600 425 600 415 601 c 128,-1,9
 405 602 405 602 401 602 c 1,10,-1
 360 396 l 1,11,12
 375 392 375 392 395.5 385.5 c 128,-1,13
 416 379 416 379 437.5 369 c 128,-1,14
 459 359 459 359 479.5 345 c 128,-1,15
 500 331 500 331 514 311 c 128,-1,16
 528 291 528 291 534 264.5 c 128,-1,17
 540 238 540 238 534 203 c 0,18,19
 526 161 526 161 503.5 126.5 c 128,-1,20
 481 92 481 92 447.5 66.5 c 128,-1,21
 414 41 414 41 371 24.5 c 128,-1,22
 328 8 328 8 280 2 c 1,23,-1
 260 -101 l 1,24,-1
 202 -101 l 1,25,-1
 222 1 l 1,26,27
 187 2 187 2 153 6 c 0,28,29
 123 9 123 9 89 15 c 128,-1,30
 55 21 55 21 25 31 c 1,31,-1
 59 203 l 1,32,-1
 130 203 l 1,33,-1
 128 96 l 1,34,-1
 128 90 l 2,35,36
 128 89 128 89 128.5 88.5 c 128,-1,37
 129 88 129 88 130 87.5 c 128,-1,38
 131 87 131 87 134 86 c 0,39,40
 148 78 148 78 165 74 c 128,-1,41
 182 70 182 70 197 68 c 0,42,43
 214 66 214 66 232 66 c 1,44,-1
 274 286 l 1,45,46
 257 291 257 291 236.5 298 c 128,-1,47
 216 305 216 305 196 315 c 128,-1,48
 176 325 176 325 158.5 339 c 128,-1,49
 141 353 141 353 129.5 372.5 c 128,-1,50
 118 392 118 392 114 418 c 128,-1,51
 110 444 110 444 116 477 c 0,52,53
 122 511 122 511 135.5 537 c 128,-1,54
 149 563 149 563 166.5 583 c 128,-1,55
 184 603 184 603 204.5 616.5 c 128,-1,56
 225 630 225 630 245 639 c 0,57,58
 293 660 293 660 349 664 c 1,59,-1
 364 738 l 1,60,-1
 422 738 l 1,61,-1
 408 664 l 1,62,63
 438 664 438 664 469 659.5 c 128,-1,64
 500 655 500 655 525 650 c 0,65,66
 554 644 554 644 581 637 c 1,67,-1
 553 472 l 1,0,-1
396 167 m 1,68,69
 400 191 400 191 394.5 208 c 128,-1,70
 389 225 389 225 378 236 c 128,-1,71
 367 247 367 247 353 253.5 c 128,-1,72
 339 260 339 260 328 263 c 1,73,-1
 288 61 l 1,74,75
 313 64 313 64 334 76 c 0,76,77
 343 80 343 80 352.5 87.5 c 128,-1,78
 362 95 362 95 370 105 c 128,-1,79
 378 115 378 115 384 129 c 128,-1,80
 390 143 390 143 396 167 c 1,68,69
332 596 m 1,81,82
 312 594 312 594 294 584 c 0,83,84
 279 575 279 575 264.5 557 c 128,-1,85
 250 539 250 539 244 507 c 0,86,87
 242 492 242 492 242 480 c 128,-1,88
 242 468 242 468 245 458.5 c 128,-1,89
 248 449 248 449 252.5 442 c 128,-1,90
 257 435 257 435 262 430 c 0,91,92
 275 418 275 418 294 413 c 1,93,-1
 332 596 l 1,81,82
EndSplineSet
EndChar

StartChar: percent
Encoding: 37 37 8
Width: 899
Flags: W
LayerCount: 2
Fore
SplineSet
319 568 m 0,0,1
 319 578 319 578 318 590.5 c 128,-1,2
 317 603 317 603 313 613 c 128,-1,3
 309 623 309 623 301 630 c 128,-1,4
 293 637 293 637 280 637 c 0,5,6
 260 637 260 637 244 623.5 c 128,-1,7
 228 610 228 610 216 588 c 128,-1,8
 204 566 204 566 195.5 538.5 c 128,-1,9
 187 511 187 511 181.5 484 c 128,-1,10
 176 457 176 457 174 433.5 c 128,-1,11
 172 410 172 410 172 396 c 0,12,13
 172 384 172 384 173 370 c 128,-1,14
 174 356 174 356 179 344 c 128,-1,15
 184 332 184 332 193 324 c 128,-1,16
 202 316 202 316 217 316 c 0,17,18
 236 316 236 316 251 330.5 c 128,-1,19
 266 345 266 345 277.5 368.5 c 128,-1,20
 289 392 289 392 297 421 c 128,-1,21
 305 450 305 450 310 478 c 128,-1,22
 315 506 315 506 317 530 c 128,-1,23
 319 554 319 554 319 568 c 0,0,1
755 284 m 0,24,25
 755 294 755 294 754 306 c 128,-1,26
 753 318 753 318 749 328 c 128,-1,27
 745 338 745 338 737 345 c 128,-1,28
 729 352 729 352 716 352 c 0,29,30
 696 352 696 352 680.5 338 c 128,-1,31
 665 324 665 324 653 302 c 128,-1,32
 641 280 641 280 632.5 252.5 c 128,-1,33
 624 225 624 225 618.5 198 c 128,-1,34
 613 171 613 171 611 147.5 c 128,-1,35
 609 124 609 124 609 109 c 0,36,37
 609 98 609 98 610 84.5 c 128,-1,38
 611 71 611 71 615.5 59.5 c 128,-1,39
 620 48 620 48 629 40.5 c 128,-1,40
 638 33 638 33 653 33 c 0,41,42
 672 33 672 33 687 47.5 c 128,-1,43
 702 62 702 62 713.5 85 c 128,-1,44
 725 108 725 108 733.5 137 c 128,-1,45
 742 166 742 166 747 194 c 128,-1,46
 752 222 752 222 754 246 c 128,-1,47
 756 270 756 270 755 284 c 0,24,25
424 544 m 0,48,49
 424 511 424 511 418.5 478 c 128,-1,50
 413 445 413 445 401.5 414 c 128,-1,51
 390 383 390 383 372 356.5 c 128,-1,52
 354 330 354 330 330 310.5 c 128,-1,53
 306 291 306 291 275.5 280 c 128,-1,54
 245 269 245 269 208 269 c 0,55,56
 139 269 139 269 105 306 c 128,-1,57
 71 343 71 343 71 410 c 0,58,59
 71 459 71 459 84 508.5 c 128,-1,60
 97 558 97 558 124 597.5 c 128,-1,61
 151 637 151 637 192.5 661.5 c 128,-1,62
 234 686 234 686 289 686 c 0,63,64
 357 686 357 686 391 650 c 128,-1,65
 425 614 425 614 424 544 c 0,48,49
228 0 m 1,66,-1
 156 0 l 1,67,-1
 704 670 l 1,68,-1
 776 670 l 1,69,-1
 228 0 l 1,66,-1
861 261 m 0,70,71
 861 228 861 228 855.5 195 c 128,-1,72
 850 162 850 162 838.5 131 c 128,-1,73
 827 100 827 100 809 73.5 c 128,-1,74
 791 47 791 47 767 27.5 c 128,-1,75
 743 8 743 8 712.5 -3 c 128,-1,76
 682 -14 682 -14 645 -14 c 0,77,78
 577 -14 577 -14 543.5 22 c 128,-1,79
 510 58 510 58 510 125 c 0,80,81
 510 157 510 157 515.5 190 c 128,-1,82
 521 223 521 223 532.5 254 c 128,-1,83
 544 285 544 285 562 311.5 c 128,-1,84
 580 338 580 338 604 357.5 c 128,-1,85
 628 377 628 377 658.5 388 c 128,-1,86
 689 399 689 399 726 399 c 0,87,88
 794 399 794 399 828 363 c 128,-1,89
 862 327 862 327 861 261 c 0,70,71
EndSplineSet
EndChar

StartChar: ampersand
Encoding: 38 38 9
Width: 745
Flags: W
LayerCount: 2
Fore
SplineSet
226 309 m 1,0,1
 195 285 195 285 177.5 255 c 128,-1,2
 160 225 160 225 160 188 c 0,3,4
 160 158 160 158 170 135 c 128,-1,5
 180 112 180 112 195.5 96.5 c 128,-1,6
 211 81 211 81 228.5 73.5 c 128,-1,7
 246 66 246 66 261 66 c 256,8,9
 276 66 276 66 289 68.5 c 128,-1,10
 302 71 302 71 314.5 76.5 c 128,-1,11
 327 82 327 82 341 91 c 128,-1,12
 355 100 355 100 372 112 c 1,13,-1
 226 309 l 1,0,1
404 542 m 0,14,15
 404 558 404 558 402 573 c 128,-1,16
 400 588 400 588 394 599.5 c 128,-1,17
 388 611 388 611 377.5 618 c 128,-1,18
 367 625 367 625 350 625 c 0,19,20
 342 625 342 625 327 620 c 128,-1,21
 312 615 312 615 297.5 603 c 128,-1,22
 283 591 283 591 272 571 c 128,-1,23
 261 551 261 551 261 523 c 0,24,25
 261 508 261 508 264.5 493 c 128,-1,26
 268 478 268 478 274 463.5 c 128,-1,27
 280 449 280 449 288 435.5 c 128,-1,28
 296 422 296 422 304 410 c 1,29,30
 326 420 326 420 344.5 433 c 128,-1,31
 363 446 363 446 376 462 c 128,-1,32
 389 478 389 478 396 498 c 128,-1,33
 403 518 403 518 404 542 c 0,14,15
633 308 m 1,34,35
 612 266 612 266 581 221 c 128,-1,36
 550 176 550 176 513 137 c 1,37,38
 531 114 531 114 547.5 99 c 128,-1,39
 564 84 564 84 582.5 75.5 c 128,-1,40
 601 67 601 67 623 64 c 128,-1,41
 645 61 645 61 673 61 c 1,42,-1
 673 9 l 1,43,44
 637 8 637 8 617 7 c 128,-1,45
 597 6 597 6 583 6 c 0,46,47
 545 4 545 4 508 9 c 1,48,49
 484 14 484 14 463.5 26 c 128,-1,50
 443 38 443 38 422 61 c 1,51,52
 403 48 403 48 381 36.5 c 128,-1,53
 359 25 359 25 333 16.5 c 128,-1,54
 307 8 307 8 276.5 3 c 128,-1,55
 246 -2 246 -2 210 -2 c 0,56,57
 164 -2 164 -2 127.5 10 c 128,-1,58
 91 22 91 22 65.5 44 c 128,-1,59
 40 66 40 66 27 97 c 128,-1,60
 14 128 14 128 14 165 c 0,61,62
 14 201 14 201 27 231.5 c 128,-1,63
 40 262 40 262 62.5 287.5 c 128,-1,64
 85 313 85 313 116 334 c 128,-1,65
 147 355 147 355 182 373 c 1,66,67
 160 403 160 403 145 433.5 c 128,-1,68
 130 464 130 464 130 499 c 0,69,70
 130 537 130 537 146.5 571 c 128,-1,71
 163 605 163 605 194 630.5 c 128,-1,72
 225 656 225 656 269.5 671 c 128,-1,73
 314 686 314 686 371 686 c 0,74,75
 413 686 413 686 445 675 c 128,-1,76
 477 664 477 664 498.5 645 c 128,-1,77
 520 626 520 626 530.5 602 c 128,-1,78
 541 578 541 578 541 553 c 0,79,80
 541 518 541 518 526.5 489.5 c 128,-1,81
 512 461 512 461 485.5 438 c 128,-1,82
 459 415 459 415 422.5 396.5 c 128,-1,83
 386 378 386 378 342 363 c 1,84,-1
 461 209 l 1,85,86
 479 232 479 232 493 256 c 128,-1,87
 507 280 507 280 516 299 c 0,88,89
 516 300 516 300 515.5 303.5 c 128,-1,90
 515 307 515 307 515 307 c 1,91,-1
 456 316 l 1,92,-1
 456 370 l 1,93,-1
 708 370 l 1,94,-1
 708 316 l 1,95,-1
 633 308 l 1,34,35
EndSplineSet
EndChar

StartChar: quotesingle
Encoding: 39 39 10
Width: 174
Flags: W
LayerCount: 2
Fore
SplineSet
225 668 m 0,0,1
 225 661 225 661 220 642.5 c 128,-1,2
 215 624 215 624 206.5 599.5 c 128,-1,3
 198 575 198 575 188 547.5 c 128,-1,4
 178 520 178 520 168.5 495 c 128,-1,5
 159 470 159 470 151 449.5 c 128,-1,6
 143 429 143 429 140 419 c 1,7,-1
 103 419 l 1,8,-1
 109 652 l 2,9,10
 109 665 109 665 115 676 c 128,-1,11
 121 687 121 687 130.5 695 c 128,-1,12
 140 703 140 703 152 707.5 c 128,-1,13
 164 712 164 712 176 712 c 0,14,15
 197 712 197 712 210 701.5 c 128,-1,16
 223 691 223 691 225 668 c 0,0,1
EndSplineSet
EndChar

StartChar: parenleft
Encoding: 40 40 11
Width: 423
Flags: W
LayerCount: 2
Fore
SplineSet
460 663 m 1,0,1
 422 659 422 659 391 639.5 c 128,-1,2
 360 620 360 620 334 590 c 128,-1,3
 308 560 308 560 287.5 521 c 128,-1,4
 267 482 267 482 251.5 438.5 c 128,-1,5
 236 395 236 395 225 349.5 c 128,-1,6
 214 304 214 304 207 259.5 c 128,-1,7
 200 215 200 215 197 174.5 c 128,-1,8
 194 134 194 134 194 102 c 256,9,10
 194 70 194 70 198.5 39 c 128,-1,11
 203 8 203 8 216 -17 c 128,-1,12
 229 -42 229 -42 252.5 -59 c 128,-1,13
 276 -76 276 -76 313 -80 c 1,14,-1
 302 -134 l 1,15,16
 240 -133 240 -133 196.5 -111 c 128,-1,17
 153 -89 153 -89 125.5 -52 c 128,-1,18
 98 -15 98 -15 86 35 c 128,-1,19
 74 85 74 85 74 142 c 0,20,21
 74 201 74 201 84 266 c 128,-1,22
 94 331 94 331 114.5 394.5 c 128,-1,23
 135 458 135 458 167 516 c 128,-1,24
 199 574 199 574 243 618.5 c 128,-1,25
 287 663 287 663 344 690 c 128,-1,26
 401 717 401 717 471 718 c 1,27,-1
 460 663 l 1,0,1
EndSplineSet
EndChar

StartChar: parenright
Encoding: 41 41 12
Width: 423
Flags: W
LayerCount: 2
Fore
SplineSet
353 438 m 1,0,1
 353 379 353 379 343 314 c 128,-1,2
 333 249 333 249 312 185.5 c 128,-1,3
 291 122 291 122 259 64 c 128,-1,4
 227 6 227 6 182.5 -38.5 c 128,-1,5
 138 -83 138 -83 81 -110 c 128,-1,6
 24 -137 24 -137 -46 -138 c 1,7,-1
 -37 -84 l 1,8,9
 1 -80 1 -80 32.5 -60.5 c 128,-1,10
 64 -41 64 -41 89.5 -10.5 c 128,-1,11
 115 20 115 20 135.5 59 c 128,-1,12
 156 98 156 98 171.5 141.5 c 128,-1,13
 187 185 187 185 198 231 c 128,-1,14
 209 277 209 277 216 321 c 128,-1,15
 223 365 223 365 226 405.5 c 128,-1,16
 229 446 229 446 229 478 c 256,17,18
 229 510 229 510 224.5 541 c 128,-1,19
 220 572 220 572 207 597 c 128,-1,20
 194 622 194 622 170.5 639 c 128,-1,21
 147 656 147 656 110 660 c 1,22,-1
 121 713 l 1,23,24
 183 712 183 712 226.5 690.5 c 128,-1,25
 270 669 270 669 297.5 632 c 128,-1,26
 325 595 325 595 337.5 545 c 128,-1,27
 350 495 350 495 353 438 c 1,0,1
EndSplineSet
EndChar

StartChar: asterisk
Encoding: 42 42 13
Width: 500
Flags: W
LayerCount: 2
Fore
SplineSet
268 357 m 1,0,-1
 191 337 l 1,1,-1
 189 415 l 1,2,-1
 295 493 l 1,3,-1
 308 481 l 1,4,-1
 268 357 l 1,0,-1
290 505 m 1,5,-1
 161 505 l 1,6,-1
 119 569 l 1,7,-1
 189 598 l 1,8,-1
 295 519 l 1,9,-1
 290 505 l 1,5,-1
436 336 m 1,10,-1
 359 356 l 1,11,-1
 319 480 l 1,12,-1
 332 492 l 1,13,-1
 437 414 l 1,14,-1
 436 336 l 1,10,-1
320 531 m 1,15,-1
 305 531 l 1,16,-1
 264 656 l 1,17,-1
 312 715 l 1,18,-1
 361 656 l 1,19,-1
 320 531 l 1,15,-1
464 504 m 1,20,-1
 336 504 l 1,21,-1
 331 519 l 1,22,-1
 436 597 l 1,23,-1
 508 568 l 1,24,-1
 464 504 l 1,20,-1
EndSplineSet
EndChar

StartChar: plus
Encoding: 43 43 14
Width: 1000
Flags: W
LayerCount: 2
Fore
SplineSet
530 269 m 1,0,-1
 530 0 l 1,1,-1
 469 0 l 1,2,-1
 469 269 l 1,3,-1
 200 269 l 1,4,-1
 200 331 l 1,5,-1
 469 331 l 1,6,-1
 469 600 l 1,7,-1
 530 600 l 1,8,-1
 530 331 l 1,9,-1
 799 331 l 1,10,-1
 799 269 l 1,11,-1
 530 269 l 1,0,-1
EndSplineSet
EndChar

StartChar: comma
Encoding: 44 44 15
Width: 320
Flags: W
LayerCount: 2
Fore
SplineSet
200 83 m 0,0,1
 200 54 200 54 189.5 24.5 c 128,-1,2
 179 -5 179 -5 160 -33 c 128,-1,3
 141 -61 141 -61 116 -86 c 128,-1,4
 91 -111 91 -111 63 -130 c 128,-1,5
 35 -149 35 -149 5 -160.5 c 128,-1,6
 -25 -172 -25 -172 -53 -173 c 1,7,-1
 -44 -125 l 1,8,9
 -17 -122 -17 -122 7.5 -111.5 c 128,-1,10
 32 -101 32 -101 51.5 -84.5 c 128,-1,11
 71 -68 71 -68 84 -45.5 c 128,-1,12
 97 -23 97 -23 101 5 c 1,13,-1
 40 5 l 1,14,15
 31 14 31 14 26 26 c 128,-1,16
 21 38 21 38 21 51 c 0,17,18
 21 71 21 71 29.5 89 c 128,-1,19
 38 107 38 107 52 120.5 c 128,-1,20
 66 134 66 134 84.5 142 c 128,-1,21
 103 150 103 150 123 150 c 0,22,23
 156 150 156 150 177.5 133 c 128,-1,24
 199 116 199 116 200 83 c 0,0,1
EndSplineSet
EndChar

StartChar: hyphen
Encoding: 45 45 16
Width: 348
Flags: W
LayerCount: 2
Fore
SplineSet
291 187 m 1,0,-1
 29 187 l 1,1,-1
 49 292 l 1,2,-1
 311 292 l 1,3,-1
 291 187 l 1,0,-1
EndSplineSet
EndChar

StartChar: period
Encoding: 46 46 17
Width: 317
Flags: W
LayerCount: 2
Fore
SplineSet
190 70 m 256,0,1
 190 53 190 53 183.5 38 c 128,-1,2
 177 23 177 23 166 12 c 128,-1,3
 155 1 155 1 140 -5.5 c 128,-1,4
 125 -12 125 -12 108 -12 c 256,5,6
 91 -12 91 -12 76 -5.5 c 128,-1,7
 61 1 61 1 50 12 c 128,-1,8
 39 23 39 23 32.5 38 c 128,-1,9
 26 53 26 53 26 70 c 256,10,11
 26 87 26 87 32.5 102 c 128,-1,12
 39 117 39 117 50 128 c 128,-1,13
 61 139 61 139 76 145.5 c 128,-1,14
 91 152 91 152 108 152 c 256,15,16
 125 152 125 152 140 145.5 c 128,-1,17
 155 139 155 139 166 128 c 128,-1,18
 177 117 177 117 183.5 102 c 128,-1,19
 190 87 190 87 190 70 c 256,0,1
EndSplineSet
EndChar

StartChar: slash
Encoding: 47 47 18
Width: 500
Flags: W
LayerCount: 2
Fore
SplineSet
78 -92 m 1,0,-1
 0 -92 l 1,1,-1
 421 671 l 1,2,-1
 500 671 l 1,3,-1
 78 -92 l 1,0,-1
EndSplineSet
EndChar

StartChar: zero
Encoding: 48 48 19
Width: 598
Flags: W
LayerCount: 2
Fore
SplineSet
442 478 m 0,0,1
 442 519 442 519 434.5 547 c 128,-1,2
 427 575 427 575 416 592 c 128,-1,3
 405 609 405 609 393 616 c 128,-1,4
 381 623 381 623 372 623 c 0,5,6
 349 623 349 623 326 604.5 c 128,-1,7
 303 586 303 586 282.5 554 c 128,-1,8
 262 522 262 522 245 479.5 c 128,-1,9
 228 437 228 437 216 389 c 128,-1,10
 204 341 204 341 197 290.5 c 128,-1,11
 190 240 190 240 190 193 c 0,12,13
 190 159 190 159 194.5 135 c 128,-1,14
 199 111 199 111 206 95 c 128,-1,15
 213 79 213 79 221.5 69.5 c 128,-1,16
 230 60 230 60 238 55.5 c 128,-1,17
 246 51 246 51 252 50 c 128,-1,18
 258 49 258 49 260 49 c 0,19,20
 282 49 282 49 304 67.5 c 128,-1,21
 326 86 326 86 346.5 117.5 c 128,-1,22
 367 149 367 149 384.5 191.5 c 128,-1,23
 402 234 402 234 414.5 281.5 c 128,-1,24
 427 329 427 329 434 379.5 c 128,-1,25
 441 430 441 430 442 478 c 0,0,1
590 459 m 1,26,27
 590 403 590 403 580.5 346 c 128,-1,28
 571 289 571 289 551.5 236.5 c 128,-1,29
 532 184 532 184 503.5 138.5 c 128,-1,30
 475 93 475 93 437 59 c 128,-1,31
 399 25 399 25 352 5.5 c 128,-1,32
 305 -14 305 -14 249 -14 c 256,33,34
 193 -14 193 -14 152.5 2 c 128,-1,35
 112 18 112 18 86 47.5 c 128,-1,36
 60 77 60 77 48 118.5 c 128,-1,37
 36 160 36 160 36 210 c 256,38,39
 36 260 36 260 44.5 315 c 128,-1,40
 53 370 53 370 71 422.5 c 128,-1,41
 89 475 89 475 116.5 522.5 c 128,-1,42
 144 570 144 570 182 606 c 128,-1,43
 220 642 220 642 269 663 c 128,-1,44
 318 684 318 684 379 684 c 0,45,46
 438 684 438 684 478.5 665.5 c 128,-1,47
 519 647 519 647 543.5 616 c 128,-1,48
 568 585 568 585 578.5 544 c 128,-1,49
 589 503 589 503 590 459 c 1,26,27
EndSplineSet
EndChar

StartChar: one
Encoding: 49 49 20
Width: 598
Flags: W
LayerCount: 2
Fore
SplineSet
346 76 m 2,0,1
 345 70 345 70 350.5 67 c 128,-1,2
 356 64 356 64 365 64 c 2,3,-1
 439 58 l 1,4,-1
 439 3 l 1,5,-1
 84 3 l 1,6,-1
 84 59 l 1,7,-1
 187 64 l 2,8,9
 192 64 192 64 197 68 c 128,-1,10
 202 72 202 72 202 77 c 2,11,-1
 302 583 l 1,12,-1
 147 563 l 1,13,-1
 147 619 l 1,14,-1
 396 687 l 1,15,-1
 463 687 l 1,16,-1
 346 76 l 2,0,1
EndSplineSet
EndChar

StartChar: two
Encoding: 50 50 21
Width: 598
Flags: W
LayerCount: 2
Fore
SplineSet
577 535 m 1,0,1
 577 501 577 501 565.5 468 c 128,-1,2
 554 435 554 435 533.5 403 c 128,-1,3
 513 371 513 371 485 340.5 c 128,-1,4
 457 310 457 310 425 282 c 0,5,6
 371 235 371 235 304.5 189 c 128,-1,7
 238 143 238 143 171 97 c 1,8,-1
 425 97 l 1,9,-1
 459 180 l 1,10,-1
 536 180 l 1,11,-1
 503 5 l 1,12,-1
 -17 5 l 1,13,-1
 -4 75 l 1,14,15
 104 151 104 151 184 211 c 128,-1,16
 264 271 264 271 316.5 323 c 128,-1,17
 369 375 369 375 395 423.5 c 128,-1,18
 421 472 421 472 421 525 c 0,19,20
 421 554 421 554 413 573 c 128,-1,21
 405 592 405 592 393 603 c 128,-1,22
 381 614 381 614 367 618.5 c 128,-1,23
 353 623 353 623 342 623 c 0,24,25
 332 623 332 623 321.5 621 c 128,-1,26
 311 619 311 619 301.5 616.5 c 128,-1,27
 292 614 292 614 284.5 611 c 128,-1,28
 277 608 277 608 273 607 c 1,29,-1
 253 503 l 1,30,31
 249 501 249 501 244.5 496.5 c 128,-1,32
 240 492 240 492 233 488 c 128,-1,33
 226 484 226 484 215.5 481 c 128,-1,34
 205 478 205 478 189 478 c 0,35,36
 172 478 172 478 158.5 483 c 128,-1,37
 145 488 145 488 135 496.5 c 128,-1,38
 125 505 125 505 120 516 c 128,-1,39
 115 527 115 527 115 539 c 0,40,41
 115 573 115 573 134.5 601 c 128,-1,42
 154 629 154 629 189.5 648.5 c 128,-1,43
 225 668 225 668 274 678.5 c 128,-1,44
 323 689 323 689 382 689 c 0,45,46
 430 689 430 689 468 680 c 128,-1,47
 506 671 506 671 532 652.5 c 128,-1,48
 558 634 558 634 572 605.5 c 128,-1,49
 586 577 586 577 577 535 c 1,0,1
EndSplineSet
EndChar

StartChar: three
Encoding: 51 51 22
Width: 598
Flags: W
LayerCount: 2
Fore
SplineSet
575 541 m 1,0,1
 575 517 575 517 565 491 c 128,-1,2
 555 465 555 465 534 441 c 128,-1,3
 513 417 513 417 480 396 c 128,-1,4
 447 375 447 375 402 360 c 1,5,6
 467 348 467 348 501.5 317 c 128,-1,7
 536 286 536 286 536 232 c 0,8,9
 536 202 536 202 526 172 c 128,-1,10
 516 142 516 142 497 115 c 128,-1,11
 478 88 478 88 450 65 c 128,-1,12
 422 42 422 42 386.5 25 c 128,-1,13
 351 8 351 8 308 -1.5 c 128,-1,14
 265 -11 265 -11 216 -11 c 0,15,16
 162 -11 162 -11 124.5 0 c 128,-1,17
 87 11 87 11 63.5 28 c 128,-1,18
 40 45 40 45 29.5 65 c 128,-1,19
 19 85 19 85 19 102 c 0,20,21
 19 109 19 109 23.5 121 c 128,-1,22
 28 133 28 133 37.5 144.5 c 128,-1,23
 47 156 47 156 61 164 c 128,-1,24
 75 172 75 172 94 172 c 0,25,26
 105 172 105 172 113.5 169.5 c 128,-1,27
 122 167 122 167 129 163.5 c 128,-1,28
 136 160 136 160 141 156.5 c 128,-1,29
 146 153 146 153 150 152 c 1,30,-1
 166 69 l 1,31,32
 168 68 168 68 174.5 65.5 c 128,-1,33
 181 63 181 63 189.5 60.5 c 128,-1,34
 198 58 198 58 207 56 c 128,-1,35
 216 54 216 54 223 54 c 0,36,37
 249 54 249 54 276.5 66 c 128,-1,38
 304 78 304 78 326.5 100 c 128,-1,39
 349 122 349 122 363.5 153 c 128,-1,40
 378 184 378 184 378 222 c 0,41,42
 378 245 378 245 372.5 261.5 c 128,-1,43
 367 278 367 278 358 289 c 128,-1,44
 349 300 349 300 338.5 306.5 c 128,-1,45
 328 313 328 313 318 316 c 128,-1,46
 308 319 308 319 300.5 319.5 c 128,-1,47
 293 320 293 320 291 320 c 0,48,49
 284 320 284 320 277 320 c 128,-1,50
 270 320 270 320 260 319 c 128,-1,51
 250 318 250 318 235.5 316 c 128,-1,52
 221 314 221 314 200 311 c 1,53,-1
 211 388 l 1,54,55
 256 386 256 386 294.5 395 c 128,-1,56
 333 404 333 404 361 423 c 128,-1,57
 389 442 389 442 404.5 470 c 128,-1,58
 420 498 420 498 420 533 c 0,59,60
 420 562 420 562 410 581 c 128,-1,61
 400 600 400 600 386.5 610.5 c 128,-1,62
 373 621 373 621 360.5 624.5 c 128,-1,63
 348 628 348 628 344 628 c 0,64,65
 331 628 331 628 319.5 625.5 c 128,-1,66
 308 623 308 623 299 619 c 128,-1,67
 290 615 290 615 283.5 611 c 128,-1,68
 277 607 277 607 274 605 c 1,69,-1
 258 510 l 1,70,71
 253 508 253 508 245 505 c 128,-1,72
 237 502 237 502 227.5 499 c 128,-1,73
 218 496 218 496 208 494 c 128,-1,74
 198 492 198 492 190 492 c 0,75,76
 179 492 179 492 167.5 497 c 128,-1,77
 156 502 156 502 146 511.5 c 128,-1,78
 136 521 136 521 129.5 533 c 128,-1,79
 123 545 123 545 123 559 c 0,80,81
 123 588 123 588 143.5 612 c 128,-1,82
 164 636 164 636 199 653.5 c 128,-1,83
 234 671 234 671 281 681 c 128,-1,84
 328 691 328 691 382 691 c 0,85,86
 434 691 434 691 472 681 c 128,-1,87
 510 671 510 671 534.5 652 c 128,-1,88
 559 633 559 633 570.5 606.5 c 128,-1,89
 582 580 582 580 575 541 c 1,0,1
EndSplineSet
EndChar

StartChar: four
Encoding: 52 52 23
Width: 598
Flags: W
LayerCount: 2
Fore
SplineSet
181 276 m 1,0,-1
 337 276 l 1,1,-1
 377 478 l 1,2,-1
 181 276 l 1,0,-1
548 199 m 1,3,-1
 456 199 l 1,4,-1
 413 -27 l 1,5,-1
 277 -27 l 1,6,-1
 321 199 l 1,7,-1
 21 199 l 1,8,-1
 34 270 l 1,9,-1
 440 686 l 1,10,-1
 553 686 l 1,11,-1
 473 276 l 1,12,-1
 563 276 l 1,13,-1
 548 199 l 1,3,-1
EndSplineSet
EndChar

StartChar: five
Encoding: 53 53 24
Width: 598
Flags: W
LayerCount: 2
Fore
SplineSet
567 581 m 1,0,-1
 276 581 l 1,1,-1
 242 409 l 1,2,3
 257 411 257 411 276.5 412.5 c 128,-1,4
 296 414 296 414 319 414 c 0,5,6
 362 414 362 414 400 405 c 128,-1,7
 438 396 438 396 466.5 376.5 c 128,-1,8
 495 357 495 357 511 326 c 128,-1,9
 527 295 527 295 527 251 c 0,10,11
 527 200 527 200 503 152 c 128,-1,12
 479 104 479 104 435.5 67.5 c 128,-1,13
 392 31 392 31 331 9 c 128,-1,14
 270 -13 270 -13 197 -13 c 0,15,16
 149 -13 149 -13 113.5 -6 c 128,-1,17
 78 1 78 1 55 14 c 128,-1,18
 32 27 32 27 21 44.5 c 128,-1,19
 10 62 10 62 10 82 c 0,20,21
 10 95 10 95 16 108 c 128,-1,22
 22 121 22 121 32.5 131 c 128,-1,23
 43 141 43 141 58 147.5 c 128,-1,24
 73 154 73 154 91 154 c 0,25,26
 98 154 98 154 104 152.5 c 128,-1,27
 110 151 110 151 115.5 148.5 c 128,-1,28
 121 146 121 146 126 143.5 c 128,-1,29
 131 141 131 141 136 141 c 1,30,-1
 162 57 l 1,31,32
 164 57 164 57 171 56 c 128,-1,33
 178 55 178 55 186 53.5 c 128,-1,34
 194 52 194 52 202 51 c 128,-1,35
 210 50 210 50 214 50 c 0,36,37
 241 50 241 50 269.5 63.5 c 128,-1,38
 298 77 298 77 321 101 c 128,-1,39
 344 125 344 125 358.5 157.5 c 128,-1,40
 373 190 373 190 373 228 c 256,41,42
 373 266 373 266 359 289 c 128,-1,43
 345 312 345 312 324 324.5 c 128,-1,44
 303 337 303 337 277.5 341.5 c 128,-1,45
 252 346 252 346 231 346 c 0,46,47
 221 346 221 346 203 345 c 128,-1,48
 185 344 185 344 165.5 342.5 c 128,-1,49
 146 341 146 341 128.5 339.5 c 128,-1,50
 111 338 111 338 102 338 c 1,51,-1
 171 674 l 1,52,-1
 579 674 l 1,53,-1
 567 581 l 1,0,-1
EndSplineSet
EndChar

StartChar: six
Encoding: 54 54 25
Width: 598
Flags: W
LayerCount: 2
Fore
SplineSet
413 247 m 1,0,1
 413 280 413 280 405.5 305 c 128,-1,2
 398 330 398 330 385 346.5 c 128,-1,3
 372 363 372 363 354 371.5 c 128,-1,4
 336 380 336 380 316 380 c 0,5,6
 309 380 309 380 298.5 378.5 c 128,-1,7
 288 377 288 377 274.5 372 c 128,-1,8
 261 367 261 367 244 358 c 128,-1,9
 227 349 227 349 207 334 c 1,10,11
 206 329 206 329 203 315 c 128,-1,12
 200 301 200 301 197 282.5 c 128,-1,13
 194 264 194 264 191.5 244 c 128,-1,14
 189 224 189 224 189 207 c 0,15,16
 189 183 189 183 190 155 c 128,-1,17
 191 127 191 127 199.5 103 c 128,-1,18
 208 79 208 79 226 63 c 128,-1,19
 244 47 244 47 277 47 c 0,20,21
 298 47 298 47 322.5 62 c 128,-1,22
 347 77 347 77 368 104 c 128,-1,23
 389 131 389 131 402.5 168 c 128,-1,24
 416 205 416 205 413 247 c 1,0,1
563 273 m 0,25,26
 563 236 563 236 554 200.5 c 128,-1,27
 545 165 545 165 527.5 133.5 c 128,-1,28
 510 102 510 102 484.5 75 c 128,-1,29
 459 48 459 48 426.5 28.5 c 128,-1,30
 394 9 394 9 355 -1.5 c 128,-1,31
 316 -12 316 -12 272 -12 c 256,32,33
 228 -12 228 -12 186.5 -1 c 128,-1,34
 145 10 145 10 112.5 36.5 c 128,-1,35
 80 63 80 63 60.5 107.5 c 128,-1,36
 41 152 41 152 41 218 c 0,37,38
 41 277 41 277 55.5 335 c 128,-1,39
 70 393 70 393 99 445.5 c 128,-1,40
 128 498 128 498 171 544 c 128,-1,41
 214 590 214 590 271 625.5 c 128,-1,42
 328 661 328 661 398.5 684.5 c 128,-1,43
 469 708 469 708 552 716 c 1,44,-1
 552 651 l 1,45,46
 493 645 493 645 442 626 c 128,-1,47
 391 607 391 607 350 578 c 128,-1,48
 309 549 309 549 279 511 c 128,-1,49
 249 473 249 473 232 430 c 1,50,51
 259 441 259 441 291 448 c 128,-1,52
 323 455 323 455 361 455 c 0,53,54
 410 455 410 455 448 441.5 c 128,-1,55
 486 428 486 428 511.5 404 c 128,-1,56
 537 380 537 380 550 346.5 c 128,-1,57
 563 313 563 313 563 273 c 0,25,26
EndSplineSet
EndChar

StartChar: seven
Encoding: 55 55 26
Width: 598
Flags: W
LayerCount: 2
Fore
SplineSet
638 623 m 1,0,-1
 183 -8 l 1,1,-1
 176 -36 l 1,2,-1
 33 -36 l 1,3,-1
 478 582 l 1,4,-1
 207 582 l 1,5,-1
 175 494 l 1,6,-1
 94 494 l 1,7,-1
 130 672 l 1,8,-1
 648 672 l 1,9,-1
 638 623 l 1,0,-1
EndSplineSet
EndChar

StartChar: eight
Encoding: 56 56 27
Width: 598
Flags: W
LayerCount: 2
Fore
SplineSet
397 184 m 0,0,1
 397 204 397 204 385.5 222 c 128,-1,2
 374 240 374 240 354 256 c 128,-1,3
 334 272 334 272 308 286 c 128,-1,4
 282 300 282 300 254 313 c 1,5,6
 234 301 234 301 216.5 286 c 128,-1,7
 199 271 199 271 187 253 c 128,-1,8
 175 235 175 235 168 214 c 128,-1,9
 161 193 161 193 161 169 c 256,10,11
 161 145 161 145 167 123.5 c 128,-1,12
 173 102 173 102 186 86 c 128,-1,13
 199 70 199 70 219.5 60.5 c 128,-1,14
 240 51 240 51 269 51 c 0,15,16
 290 51 290 51 313 61.5 c 128,-1,17
 336 72 336 72 355 90.5 c 128,-1,18
 374 109 374 109 386 133.5 c 128,-1,19
 398 158 398 158 397 184 c 0,0,1
435 535 m 0,20,21
 435 555 435 555 431.5 572 c 128,-1,22
 428 589 428 589 419 601 c 128,-1,23
 410 613 410 613 395.5 620 c 128,-1,24
 381 627 381 627 361 627 c 0,25,26
 343 627 343 627 323 617.5 c 128,-1,27
 303 608 303 608 286.5 591 c 128,-1,28
 270 574 270 574 259.5 550 c 128,-1,29
 249 526 249 526 249 497 c 0,30,31
 249 479 249 479 256 464.5 c 128,-1,32
 263 450 263 450 276 437 c 128,-1,33
 289 424 289 424 308 412.5 c 128,-1,34
 327 401 327 401 350 390 c 1,35,36
 389 413 389 413 412 449 c 128,-1,37
 435 485 435 485 435 535 c 0,20,21
571 542 m 0,38,39
 571 504 571 504 559.5 475.5 c 128,-1,40
 548 447 548 447 528 425.5 c 128,-1,41
 508 404 508 404 481.5 387.5 c 128,-1,42
 455 371 455 371 426 358 c 1,43,44
 446 350 446 350 467 337.5 c 128,-1,45
 488 325 488 325 506 307.5 c 128,-1,46
 524 290 524 290 535 267.5 c 128,-1,47
 546 245 546 245 546 216 c 0,48,49
 546 172 546 172 525.5 131 c 128,-1,50
 505 90 505 90 466.5 59 c 128,-1,51
 428 28 428 28 373.5 9.5 c 128,-1,52
 319 -9 319 -9 251 -9 c 0,53,54
 190 -9 190 -9 146.5 3.5 c 128,-1,55
 103 16 103 16 74.5 38 c 128,-1,56
 46 60 46 60 32.5 90.5 c 128,-1,57
 19 121 19 121 19 156 c 0,58,59
 19 179 19 179 27 205.5 c 128,-1,60
 35 232 35 232 54 258.5 c 128,-1,61
 73 285 73 285 104.5 310.5 c 128,-1,62
 136 336 136 336 183 357 c 1,63,64
 159 370 159 370 144 385.5 c 128,-1,65
 129 401 129 401 120.5 416.5 c 128,-1,66
 112 432 112 432 109 447.5 c 128,-1,67
 106 463 106 463 106 477 c 0,68,69
 106 516 106 516 122.5 553.5 c 128,-1,70
 139 591 139 591 171.5 620.5 c 128,-1,71
 204 650 204 650 253.5 668 c 128,-1,72
 303 686 303 686 369 686 c 0,73,74
 424 686 424 686 462.5 674.5 c 128,-1,75
 501 663 501 663 525 643 c 128,-1,76
 549 623 549 623 560 597.5 c 128,-1,77
 571 572 571 572 571 542 c 0,38,39
EndSplineSet
EndChar

StartChar: nine
Encoding: 57 57 28
Width: 598
Flags: W
LayerCount: 2
Fore
SplineSet
451 474 m 1,0,1
 451 523 451 523 439.5 553.5 c 128,-1,2
 428 584 428 584 412.5 600 c 128,-1,3
 397 616 397 616 381.5 621.5 c 128,-1,4
 366 627 366 627 358 627 c 0,5,6
 336 627 336 627 311.5 611.5 c 128,-1,7
 287 596 287 596 266.5 568.5 c 128,-1,8
 246 541 246 541 233 503.5 c 128,-1,9
 220 466 220 466 220 424 c 0,10,11
 220 387 220 387 231 362 c 128,-1,12
 242 337 242 337 257.5 322 c 128,-1,13
 273 307 273 307 289 301 c 128,-1,14
 305 295 305 295 314 295 c 0,15,16
 338 295 338 295 358 302 c 128,-1,17
 378 309 378 309 393 318.5 c 128,-1,18
 408 328 408 328 418 337 c 128,-1,19
 428 346 428 346 431 349 c 1,20,21
 436 380 436 380 442.5 410.5 c 128,-1,22
 449 441 449 441 451 474 c 1,0,1
596 473 m 0,23,24
 596 401 596 401 575.5 338.5 c 128,-1,25
 555 276 555 276 518.5 223 c 128,-1,26
 482 170 482 170 432 126.5 c 128,-1,27
 382 83 382 83 324 47.5 c 128,-1,28
 266 12 266 12 202 -15 c 128,-1,29
 138 -42 138 -42 74 -62 c 1,30,-1
 47 -1 l 1,31,32
 97 18 97 18 142.5 39.5 c 128,-1,33
 188 61 188 61 229.5 89.5 c 128,-1,34
 271 118 271 118 309 155.5 c 128,-1,35
 347 193 347 193 382 244 c 1,36,37
 355 235 355 235 325.5 229.5 c 128,-1,38
 296 224 296 224 268 224 c 0,39,40
 227 224 227 224 190.5 234 c 128,-1,41
 154 244 154 244 126.5 265.5 c 128,-1,42
 99 287 99 287 83 320.5 c 128,-1,43
 67 354 67 354 67 400 c 0,44,45
 67 456 67 456 88.5 507 c 128,-1,46
 110 558 110 558 150 597 c 128,-1,47
 190 636 190 636 247 659 c 128,-1,48
 304 682 304 682 374 682 c 0,49,50
 397 682 397 682 422.5 679.5 c 128,-1,51
 448 677 448 677 472.5 668.5 c 128,-1,52
 497 660 497 660 519.5 645.5 c 128,-1,53
 542 631 542 631 559 607.5 c 128,-1,54
 576 584 576 584 586 551 c 128,-1,55
 596 518 596 518 596 473 c 0,23,24
EndSplineSet
EndChar

StartChar: colon
Encoding: 58 58 29
Width: 317
Flags: W
LayerCount: 2
Fore
SplineSet
190 70 m 256,0,1
 190 53 190 53 183.5 38 c 128,-1,2
 177 23 177 23 166 12 c 128,-1,3
 155 1 155 1 140 -5.5 c 128,-1,4
 125 -12 125 -12 108 -12 c 256,5,6
 91 -12 91 -12 76 -5.5 c 128,-1,7
 61 1 61 1 50 12 c 128,-1,8
 39 23 39 23 32.5 38 c 128,-1,9
 26 53 26 53 26 70 c 256,10,11
 26 87 26 87 32.5 102 c 128,-1,12
 39 117 39 117 50 128 c 128,-1,13
 61 139 61 139 76 145.5 c 128,-1,14
 91 152 91 152 108 152 c 256,15,16
 125 152 125 152 140 145.5 c 128,-1,17
 155 139 155 139 166 128 c 128,-1,18
 177 117 177 117 183.5 102 c 128,-1,19
 190 87 190 87 190 70 c 256,0,1
257 412 m 256,20,21
 257 395 257 395 251 380 c 128,-1,22
 245 365 245 365 234 354 c 128,-1,23
 223 343 223 343 208 336.5 c 128,-1,24
 193 330 193 330 176 330 c 256,25,26
 159 330 159 330 144 336.5 c 128,-1,27
 129 343 129 343 118 354 c 128,-1,28
 107 365 107 365 100.5 380 c 128,-1,29
 94 395 94 395 94 412 c 256,30,31
 94 429 94 429 100.5 444 c 128,-1,32
 107 459 107 459 118 470 c 128,-1,33
 129 481 129 481 144 487.5 c 128,-1,34
 159 494 159 494 176 494 c 256,35,36
 193 494 193 494 208 487.5 c 128,-1,37
 223 481 223 481 234 470 c 128,-1,38
 245 459 245 459 251 444 c 128,-1,39
 257 429 257 429 257 412 c 256,20,21
EndSplineSet
EndChar

StartChar: semicolon
Encoding: 59 59 30
Width: 317
Flags: W
LayerCount: 2
Fore
SplineSet
200 83 m 0,0,1
 200 54 200 54 189.5 24.5 c 128,-1,2
 179 -5 179 -5 160 -33 c 128,-1,3
 141 -61 141 -61 116 -86 c 128,-1,4
 91 -111 91 -111 63 -130 c 128,-1,5
 35 -149 35 -149 5 -160.5 c 128,-1,6
 -25 -172 -25 -172 -53 -173 c 1,7,-1
 -44 -125 l 1,8,9
 -17 -122 -17 -122 7.5 -111.5 c 128,-1,10
 32 -101 32 -101 51.5 -84.5 c 128,-1,11
 71 -68 71 -68 84 -45.5 c 128,-1,12
 97 -23 97 -23 101 5 c 1,13,-1
 40 5 l 1,14,15
 31 14 31 14 26 26 c 128,-1,16
 21 38 21 38 21 51 c 0,17,18
 21 71 21 71 29.5 89 c 128,-1,19
 38 107 38 107 52 120.5 c 128,-1,20
 66 134 66 134 84.5 142 c 128,-1,21
 103 150 103 150 123 150 c 0,22,23
 156 150 156 150 177.5 133 c 128,-1,24
 199 116 199 116 200 83 c 0,0,1
257 409 m 256,25,26
 257 392 257 392 251 377 c 128,-1,27
 245 362 245 362 234 351 c 128,-1,28
 223 340 223 340 208 333.5 c 128,-1,29
 193 327 193 327 176 327 c 256,30,31
 159 327 159 327 144 333.5 c 128,-1,32
 129 340 129 340 118 351 c 128,-1,33
 107 362 107 362 100.5 377 c 128,-1,34
 94 392 94 392 94 409 c 256,35,36
 94 426 94 426 100.5 441 c 128,-1,37
 107 456 107 456 118 467 c 128,-1,38
 129 478 129 478 144 484.5 c 128,-1,39
 159 491 159 491 176 491 c 256,40,41
 193 491 193 491 208 484.5 c 128,-1,42
 223 478 223 478 234 467 c 128,-1,43
 245 456 245 456 251 441 c 128,-1,44
 257 426 257 426 257 409 c 256,25,26
EndSplineSet
EndChar

StartChar: less
Encoding: 60 60 31
Width: 1000
Flags: W
LayerCount: 2
Fore
SplineSet
200 269 m 1,0,-1
 200 331 l 1,1,-1
 799 560 l 1,2,-1
 799 498 l 1,3,-1
 264 299 l 1,4,-1
 799 101 l 1,5,-1
 799 39 l 1,6,-1
 200 269 l 1,0,-1
EndSplineSet
EndChar

StartChar: equal
Encoding: 61 61 32
Width: 1000
Flags: W
LayerCount: 2
Fore
SplineSet
200 178 m 1,0,-1
 200 240 l 1,1,-1
 799 240 l 1,2,-1
 799 178 l 1,3,-1
 200 178 l 1,0,-1
200 359 m 1,4,-1
 200 421 l 1,5,-1
 799 421 l 1,6,-1
 799 359 l 1,7,-1
 200 359 l 1,4,-1
EndSplineSet
EndChar

StartChar: greater
Encoding: 62 62 33
Width: 1000
Flags: W
LayerCount: 2
Fore
SplineSet
200 39 m 1,0,-1
 200 101 l 1,1,-1
 735 299 l 1,2,-1
 200 498 l 1,3,-1
 200 560 l 1,4,-1
 799 331 l 1,5,-1
 799 269 l 1,6,-1
 200 39 l 1,0,-1
EndSplineSet
EndChar

StartChar: question
Encoding: 63 63 34
Width: 535
Flags: W
LayerCount: 2
Fore
SplineSet
259 64 m 0,0,1
 259 48 259 48 252.5 34 c 128,-1,2
 246 20 246 20 235 10 c 128,-1,3
 224 0 224 0 209.5 -5.5 c 128,-1,4
 195 -11 195 -11 179 -11 c 256,5,6
 163 -11 163 -11 149.5 -4.5 c 128,-1,7
 136 2 136 2 126 13 c 128,-1,8
 116 24 116 24 110.5 38.5 c 128,-1,9
 105 53 105 53 105 69 c 256,10,11
 105 85 105 85 110.5 99 c 128,-1,12
 116 113 116 113 126 123.5 c 128,-1,13
 136 134 136 134 150 140 c 128,-1,14
 164 146 164 146 180 146 c 0,15,16
 197 146 197 146 211.5 139.5 c 128,-1,17
 226 133 226 133 236 122 c 128,-1,18
 246 111 246 111 252 96 c 128,-1,19
 258 81 258 81 259 64 c 0,0,1
511 533 m 1,20,21
 511 499 511 499 500.5 469 c 128,-1,22
 490 439 490 439 471 413.5 c 128,-1,23
 452 388 452 388 426.5 367 c 128,-1,24
 401 346 401 346 372 329.5 c 128,-1,25
 343 313 343 313 312 302 c 128,-1,26
 281 291 281 291 251 286 c 1,27,-1
 234 202 l 1,28,-1
 167 202 l 1,29,-1
 192 334 l 1,30,31
 227 341 227 341 259.5 359 c 128,-1,32
 292 377 292 377 317 403 c 128,-1,33
 342 429 342 429 357 461.5 c 128,-1,34
 372 494 372 494 372 531 c 0,35,36
 372 556 372 556 363.5 574 c 128,-1,37
 355 592 355 592 340.5 603 c 128,-1,38
 326 614 326 614 306.5 619 c 128,-1,39
 287 624 287 624 265 624 c 1,40,-1
 206 510 l 1,41,42
 206 510 206 510 203 509 c 128,-1,43
 200 508 200 508 196.5 507 c 128,-1,44
 193 506 193 506 190 505.5 c 128,-1,45
 187 505 187 505 187 505 c 1,46,47
 175 505 175 505 162 506.5 c 128,-1,48
 149 508 149 508 138.5 513 c 128,-1,49
 128 518 128 518 121 527.5 c 128,-1,50
 114 537 114 537 114 552 c 0,51,52
 114 576 114 576 124 595 c 128,-1,53
 134 614 134 614 151 628.5 c 128,-1,54
 168 643 168 643 190 653.5 c 128,-1,55
 212 664 212 664 235 670.5 c 128,-1,56
 258 677 258 677 281 680 c 128,-1,57
 304 683 304 683 323 683 c 0,58,59
 359 683 359 683 393.5 674.5 c 128,-1,60
 428 666 428 666 455 647.5 c 128,-1,61
 482 629 482 629 498.5 600.5 c 128,-1,62
 515 572 515 572 511 533 c 1,20,21
EndSplineSet
EndChar

StartChar: at
Encoding: 64 64 35
Width: 936
Flags: W
LayerCount: 2
Fore
SplineSet
877 368 m 1,0,1
 877 319 877 319 866.5 276.5 c 128,-1,2
 856 234 856 234 837.5 199 c 128,-1,3
 819 164 819 164 794 136.5 c 128,-1,4
 769 109 769 109 740.5 90.5 c 128,-1,5
 712 72 712 72 681.5 62.5 c 128,-1,6
 651 53 651 53 622 53 c 0,7,8
 600 53 600 53 585 58.5 c 128,-1,9
 570 64 570 64 560 73.5 c 128,-1,10
 550 83 550 83 545 95.5 c 128,-1,11
 540 108 540 108 539 122 c 1,12,13
 524 109 524 109 508 97 c 128,-1,14
 492 85 492 85 475 75.5 c 128,-1,15
 458 66 458 66 440 60.5 c 128,-1,16
 422 55 422 55 403 55 c 0,17,18
 369 55 369 55 343.5 67 c 128,-1,19
 318 79 318 79 300.5 101 c 128,-1,20
 283 123 283 123 274 153 c 128,-1,21
 265 183 265 183 265 219 c 0,22,23
 265 275 265 275 285.5 324.5 c 128,-1,24
 306 374 306 374 341.5 411 c 128,-1,25
 377 448 377 448 425 469.5 c 128,-1,26
 473 491 473 491 527 491 c 0,27,28
 538 491 538 491 549.5 488.5 c 128,-1,29
 561 486 561 486 572.5 481.5 c 128,-1,30
 584 477 584 477 594.5 472 c 128,-1,31
 605 467 605 467 614 463 c 1,32,-1
 627 487 l 1,33,-1
 710 487 l 1,34,-1
 706 469 l 2,35,36
 703 455 703 455 698 434 c 128,-1,37
 693 413 693 413 687 387 c 128,-1,38
 681 361 681 361 675 335 c 0,39,40
 661 273 661 273 643 195 c 0,41,42
 640 179 640 179 638.5 165.5 c 128,-1,43
 637 152 637 152 638.5 142.5 c 128,-1,44
 640 133 640 133 646.5 128 c 128,-1,45
 653 123 653 123 666 123 c 0,46,47
 675 123 675 123 689 130.5 c 128,-1,48
 703 138 703 138 718 152.5 c 128,-1,49
 733 167 733 167 748 188.5 c 128,-1,50
 763 210 763 210 774.5 238 c 128,-1,51
 786 266 786 266 793.5 300 c 128,-1,52
 801 334 801 334 801 374 c 0,53,54
 801 421 801 421 790 459 c 128,-1,55
 779 497 779 497 760 526.5 c 128,-1,56
 741 556 741 556 715 577.5 c 128,-1,57
 689 599 689 599 660 613 c 128,-1,58
 631 627 631 627 599.5 633.5 c 128,-1,59
 568 640 568 640 538 640 c 0,60,61
 486 640 486 640 438 627.5 c 128,-1,62
 390 615 390 615 348.5 591.5 c 128,-1,63
 307 568 307 568 273 534 c 128,-1,64
 239 500 239 500 215 457.5 c 128,-1,65
 191 415 191 415 178 365 c 128,-1,66
 165 315 165 315 165 259 c 0,67,68
 165 182 165 182 188.5 117.5 c 128,-1,69
 212 53 212 53 255.5 6 c 128,-1,70
 299 -41 299 -41 361 -67 c 128,-1,71
 423 -93 423 -93 499 -93 c 0,72,73
 538 -93 538 -93 573.5 -86.5 c 128,-1,74
 609 -80 609 -80 642 -69 c 128,-1,75
 675 -58 675 -58 706.5 -43 c 128,-1,76
 738 -28 738 -28 769 -11 c 1,77,-1
 789 -60 l 1,78,79
 756 -77 756 -77 720 -93 c 128,-1,80
 684 -109 684 -109 645 -121 c 128,-1,81
 606 -133 606 -133 563 -140.5 c 128,-1,82
 520 -148 520 -148 473 -148 c 0,83,84
 415 -148 415 -148 362 -136 c 128,-1,85
 309 -124 309 -124 263.5 -100.5 c 128,-1,86
 218 -77 218 -77 181 -43 c 128,-1,87
 144 -9 144 -9 118 34.5 c 128,-1,88
 92 78 92 78 78 130 c 128,-1,89
 64 182 64 182 64 241 c 0,90,91
 64 313 64 313 81.5 375 c 128,-1,92
 99 437 99 437 130 487 c 128,-1,93
 161 537 161 537 204 575 c 128,-1,94
 247 613 247 613 298.5 638.5 c 128,-1,95
 350 664 350 664 407.5 677 c 128,-1,96
 465 690 465 690 525 690 c 0,97,98
 606 690 606 690 671.5 669 c 128,-1,99
 737 648 737 648 783 607.5 c 128,-1,100
 829 567 829 567 854 508 c 128,-1,101
 879 449 879 449 877 368 c 1,0,1
571 394 m 2,102,103
 572 399 572 399 570 408 c 128,-1,104
 568 417 568 417 563 425 c 128,-1,105
 558 433 558 433 549 439 c 128,-1,106
 540 445 540 445 528 445 c 0,107,108
 498 445 498 445 471.5 429 c 128,-1,109
 445 413 445 413 425 384.5 c 128,-1,110
 405 356 405 356 393.5 316.5 c 128,-1,111
 382 277 382 277 382 231 c 0,112,113
 382 203 382 203 387.5 183.5 c 128,-1,114
 393 164 393 164 402 152 c 128,-1,115
 411 140 411 140 422 134.5 c 128,-1,116
 433 129 433 129 444 129 c 0,117,118
 460 129 460 129 472.5 135 c 128,-1,119
 485 141 485 141 495 150 c 128,-1,120
 505 159 505 159 513.5 169.5 c 128,-1,121
 522 180 522 180 529 188 c 1,122,-1
 571 394 l 2,102,103
EndSplineSet
EndChar

StartChar: A
Encoding: 65 65 36
Width: 714
Flags: W
LayerCount: 2
Fore
SplineSet
382 503 m 1,0,-1
 271 310 l 1,1,-1
 416 310 l 1,2,-1
 382 503 l 1,0,-1
392 0 m 1,3,-1
 392 49 l 1,4,5
 399 49 399 49 407 49.5 c 128,-1,6
 415 50 415 50 421 50 c 0,7,8
 428 50 428 50 435 50 c 0,9,10
 444 50 444 50 449 52 c 128,-1,11
 454 54 454 54 453 62 c 2,12,-1
 424 245 l 1,13,-1
 236 245 l 1,14,-1
 138 62 l 2,15,16
 134 55 134 55 137.5 52 c 128,-1,17
 141 49 141 49 150 49 c 0,18,19
 157 49 157 49 165 49 c 0,20,21
 172 49 172 49 181 48.5 c 128,-1,22
 190 48 190 48 199 48 c 1,23,-1
 199 -1 l 1,24,-1
 -58 -1 l 1,25,-1
 -58 48 l 1,26,-1
 0 54 l 1,27,-1
 370 684 l 1,28,-1
 488 684 l 1,29,-1
 596 68 l 2,30,31
 597 59 597 59 600.5 56.5 c 128,-1,32
 604 54 604 54 615 53 c 0,33,34
 621 53 621 53 628 53 c 0,35,36
 634 53 634 53 642 53 c 128,-1,37
 650 53 650 53 658 53 c 1,38,-1
 658 4 l 1,39,-1
 392 0 l 1,3,-1
EndSplineSet
EndChar

StartChar: B
Encoding: 66 66 37
Width: 648
Flags: W
LayerCount: 2
Fore
SplineSet
616 540 m 0,0,1
 616 504 616 504 604 476 c 128,-1,2
 592 448 592 448 571 426.5 c 128,-1,3
 550 405 550 405 521.5 389 c 128,-1,4
 493 373 493 373 460 361 c 1,5,6
 492 356 492 356 517.5 346 c 128,-1,7
 543 336 543 336 560.5 320.5 c 128,-1,8
 578 305 578 305 587 283.5 c 128,-1,9
 596 262 596 262 596 233 c 0,10,11
 596 174 596 174 574 131.5 c 128,-1,12
 552 89 552 89 511 62 c 128,-1,13
 470 35 470 35 412 22.5 c 128,-1,14
 354 10 354 10 282 10 c 2,15,-1
 -12 10 l 1,16,-1
 -12 59 l 1,17,18
 0 59 0 59 11 59.5 c 128,-1,19
 22 60 22 60 30 60 c 0,20,21
 40 60 40 60 49 60 c 0,22,23
 57 60 57 60 61.5 62.5 c 128,-1,24
 66 65 66 65 67 75 c 2,25,-1
 171 605 l 2,26,27
 172 613 172 613 168 615.5 c 128,-1,28
 164 618 164 618 155 618 c 0,29,30
 147 618 147 618 138 618 c 0,31,32
 130 618 130 618 119.5 618.5 c 128,-1,33
 109 619 109 619 98 619 c 1,34,-1
 98 668 l 1,35,-1
 399 668 l 2,36,37
 462 668 462 668 504 658 c 128,-1,38
 546 648 546 648 571 630.5 c 128,-1,39
 596 613 596 613 606 589.5 c 128,-1,40
 616 566 616 566 616 540 c 0,0,1
445 215 m 0,41,42
 445 245 445 245 434.5 265 c 128,-1,43
 424 285 424 285 406 296.5 c 128,-1,44
 388 308 388 308 364.5 312.5 c 128,-1,45
 341 317 341 317 315 317 c 256,46,47
 289 317 289 317 261 315 c 1,48,-1
 211 55 l 1,49,50
 221 55 221 55 231 55 c 2,51,-1
 249 55 l 2,52,53
 293 55 293 55 329 65 c 128,-1,54
 365 75 365 75 390.5 95 c 128,-1,55
 416 115 416 115 430 145 c 128,-1,56
 444 175 444 175 445 215 c 0,41,42
462 532 m 0,57,58
 462 555 462 555 452.5 571 c 128,-1,59
 443 587 443 587 427.5 596.5 c 128,-1,60
 412 606 412 606 391.5 610 c 128,-1,61
 371 614 371 614 349 614 c 0,62,63
 341 614 341 614 333 614 c 128,-1,64
 325 614 325 614 319 614 c 1,65,-1
 273 372 l 1,66,67
 281 372 281 372 287 372 c 2,68,-1
 296 372 l 2,69,70
 333 372 333 372 364 383.5 c 128,-1,71
 395 395 395 395 417 416 c 128,-1,72
 439 437 439 437 451 466 c 128,-1,73
 463 495 463 495 462 532 c 0,57,58
EndSplineSet
EndChar

StartChar: C
Encoding: 67 67 38
Width: 671
Flags: W
LayerCount: 2
Fore
SplineSet
655 469 m 1,0,-1
 582 469 l 1,1,-1
 582 580 l 2,2,3
 582 585 582 585 578 592 c 128,-1,4
 574 599 574 599 567 601 c 0,5,6
 564 602 564 602 553.5 605.5 c 128,-1,7
 543 609 543 609 530 612 c 128,-1,8
 517 615 517 615 503 617.5 c 128,-1,9
 489 620 489 620 478 620 c 0,10,11
 447 620 447 620 414 609 c 128,-1,12
 381 598 381 598 350 576.5 c 128,-1,13
 319 555 319 555 291.5 523.5 c 128,-1,14
 264 492 264 492 243.5 451 c 128,-1,15
 223 410 223 410 211.5 360.5 c 128,-1,16
 200 311 200 311 200 253 c 0,17,18
 200 196 200 196 216.5 156 c 128,-1,19
 233 116 233 116 259.5 90.5 c 128,-1,20
 286 65 286 65 318.5 53.5 c 128,-1,21
 351 42 351 42 383 42 c 0,22,23
 393 42 393 42 405.5 43 c 128,-1,24
 418 44 418 44 429.5 46 c 128,-1,25
 441 48 441 48 450.5 50 c 128,-1,26
 460 52 460 52 464 54 c 1,27,28
 471 54 471 54 474.5 58.5 c 128,-1,29
 478 63 478 63 480 68 c 2,30,-1
 527 199 l 1,31,-1
 602 199 l 1,32,-1
 572 18 l 1,33,34
 553 12 553 12 528.5 4.5 c 128,-1,35
 504 -3 504 -3 475.5 -9 c 128,-1,36
 447 -15 447 -15 415 -19 c 128,-1,37
 383 -23 383 -23 348 -23 c 0,38,39
 292 -23 292 -23 248 -12 c 128,-1,40
 204 -1 204 -1 171 19 c 128,-1,41
 138 39 138 39 115 66 c 128,-1,42
 92 93 92 93 78 124.5 c 128,-1,43
 64 156 64 156 57.5 190 c 128,-1,44
 51 224 51 224 51 258 c 0,45,46
 51 309 51 309 63.5 360 c 128,-1,47
 76 411 76 411 100.5 457 c 128,-1,48
 125 503 125 503 161.5 543 c 128,-1,49
 198 583 198 583 244.5 612.5 c 128,-1,50
 291 642 291 642 348 658.5 c 128,-1,51
 405 675 405 675 471 675 c 0,52,53
 499 675 499 675 525 672 c 128,-1,54
 551 669 551 669 576.5 664 c 128,-1,55
 602 659 602 659 628.5 651.5 c 128,-1,56
 655 644 655 644 684 635 c 1,57,-1
 655 469 l 1,0,-1
EndSplineSet
EndChar

StartChar: D
Encoding: 68 68 39
Width: 712
Flags: W
LayerCount: 2
Fore
SplineSet
544 422 m 0,0,1
 544 463 544 463 535.5 492.5 c 128,-1,2
 527 522 527 522 512 542.5 c 128,-1,3
 497 563 497 563 476.5 575.5 c 128,-1,4
 456 588 456 588 432.5 595 c 128,-1,5
 409 602 409 602 383.5 604.5 c 128,-1,6
 358 607 358 607 333 607 c 2,7,-1
 319 607 l 1,8,-1
 212 59 l 1,9,-1
 262 59 l 2,10,11
 305 59 305 59 343 72.5 c 128,-1,12
 381 86 381 86 412.5 110 c 128,-1,13
 444 134 444 134 468.5 167 c 128,-1,14
 493 200 493 200 510 239.5 c 128,-1,15
 527 279 527 279 536 324 c 128,-1,16
 545 369 545 369 544 422 c 0,0,1
694 408 m 1,17,18
 694 319 694 319 663 243.5 c 128,-1,19
 632 168 632 168 573.5 113 c 128,-1,20
 515 58 515 58 431 27 c 128,-1,21
 347 -4 347 -4 242 -4 c 2,22,-1
 -14 -4 l 1,23,-1
 -14 45 l 1,24,25
 -3 45 -3 45 7.5 45.5 c 128,-1,26
 18 46 18 46 26 46 c 0,27,28
 35 46 35 46 44 46 c 0,29,30
 56 46 56 46 59.5 48.5 c 128,-1,31
 63 51 63 51 65 61 c 2,32,-1
 169 591 l 2,33,34
 170 599 170 599 165 601.5 c 128,-1,35
 160 604 160 604 151 604 c 256,36,37
 142 604 142 604 133 604 c 0,38,39
 125 604 125 604 115 604.5 c 128,-1,40
 105 605 105 605 95 605 c 1,41,-1
 95 654 l 1,42,-1
 354 654 l 2,43,44
 431 654 431 654 493.5 640 c 128,-1,45
 556 626 556 626 600 595 c 128,-1,46
 644 564 644 564 667.5 515.5 c 128,-1,47
 691 467 691 467 694 408 c 1,17,18
EndSplineSet
EndChar

StartChar: E
Encoding: 69 69 40
Width: 600
Flags: W
LayerCount: 2
Fore
SplineSet
590 513 m 1,0,-1
 511 513 l 1,1,-1
 511 597 l 2,2,3
 511 604 511 604 503.5 606.5 c 128,-1,4
 496 609 496 609 488 609 c 2,5,-1
 317 609 l 1,6,-1
 273 378 l 1,7,-1
 385 378 l 2,8,9
 392 378 392 378 401 381.5 c 128,-1,10
 410 385 410 385 412 392 c 2,11,-1
 432 461 l 1,12,-1
 504 461 l 1,13,-1
 459 227 l 1,14,-1
 386 227 l 1,15,-1
 395 302 l 2,16,17
 395 304 395 304 393.5 306 c 128,-1,18
 392 308 392 308 389 309.5 c 128,-1,19
 386 311 386 311 382 311.5 c 128,-1,20
 378 312 378 312 375 312 c 2,21,-1
 260 312 l 1,22,-1
 211 55 l 1,23,-1
 423 55 l 2,24,25
 430 55 430 55 439 58.5 c 128,-1,26
 448 62 448 62 450 68 c 2,27,-1
 481 167 l 1,28,-1
 560 167 l 1,29,-1
 525 -6 l 1,30,-1
 -16 -6 l 1,31,-1
 -16 43 l 1,32,33
 -5 43 -5 43 5.5 43.5 c 128,-1,34
 16 44 16 44 24 44 c 0,35,36
 33 44 33 44 41 44 c 0,37,38
 52 44 52 44 56.5 46 c 128,-1,39
 61 48 61 48 62 57 c 2,40,-1
 166 587 l 2,41,42
 168 595 168 595 163 597.5 c 128,-1,43
 158 600 158 600 149 600 c 0,44,45
 141 600 141 600 132 600 c 0,46,47
 124 600 124 600 114 600.5 c 128,-1,48
 104 601 104 601 95 601 c 1,49,-1
 95 650 l 1,50,-1
 621 650 l 1,51,-1
 590 513 l 1,0,-1
EndSplineSet
EndChar

StartChar: F
Encoding: 70 70 41
Width: 556
Flags: W
LayerCount: 2
Fore
SplineSet
579 501 m 1,0,-1
 498 501 l 1,1,-1
 498 597 l 2,2,3
 498 604 498 604 491 606.5 c 128,-1,4
 484 609 484 609 476 609 c 2,5,-1
 317 609 l 1,6,-1
 271 368 l 1,7,-1
 376 368 l 2,8,9
 383 368 383 368 392 371 c 128,-1,10
 401 374 401 374 403 381 c 2,11,-1
 423 453 l 1,12,-1
 497 453 l 1,13,-1
 452 218 l 1,14,-1
 377 218 l 1,15,-1
 388 292 l 2,16,17
 388 298 388 298 380 301.5 c 128,-1,18
 372 305 372 305 365 305 c 2,19,-1
 259 305 l 1,20,-1
 213 67 l 2,21,22
 212 59 212 59 217 57 c 128,-1,23
 222 55 222 55 231 55 c 256,24,25
 240 55 240 55 250 55 c 0,26,27
 259 55 259 55 270 54.5 c 128,-1,28
 281 54 281 54 293 54 c 1,29,-1
 293 5 l 1,30,-1
 -16 5 l 1,31,-1
 -16 54 l 1,32,33
 -6 54 -6 54 4 54.5 c 128,-1,34
 14 55 14 55 22 55 c 0,35,36
 31 55 31 55 40 55 c 0,37,38
 51 55 51 55 56.5 57 c 128,-1,39
 62 59 62 59 64 68 c 2,40,-1
 168 598 l 2,41,42
 169 606 169 606 164 608.5 c 128,-1,43
 159 611 159 611 150 611 c 0,44,45
 142 611 142 611 133 611 c 0,46,47
 125 611 125 611 115 611.5 c 128,-1,48
 105 612 105 612 96 612 c 1,49,-1
 96 661 l 1,50,-1
 612 661 l 1,51,-1
 579 501 l 1,0,-1
EndSplineSet
EndChar

StartChar: G
Encoding: 71 71 42
Width: 729
Flags: W
LayerCount: 2
Fore
SplineSet
648 273 m 2,0,1
 642 273 642 273 639.5 269.5 c 128,-1,2
 637 266 637 266 636 260 c 2,3,-1
 591 28 l 1,4,5
 571 23 571 23 544 16 c 128,-1,6
 517 9 517 9 486 3 c 128,-1,7
 455 -3 455 -3 422.5 -7 c 128,-1,8
 390 -11 390 -11 359 -11 c 0,9,10
 296 -11 296 -11 249 2.5 c 128,-1,11
 202 16 202 16 168.5 38.5 c 128,-1,12
 135 61 135 61 113.5 90.5 c 128,-1,13
 92 120 92 120 79.5 151.5 c 128,-1,14
 67 183 67 183 62.5 214 c 128,-1,15
 58 245 58 245 58 271 c 0,16,17
 58 333 58 333 74.5 388 c 128,-1,18
 91 443 91 443 121 489.5 c 128,-1,19
 151 536 151 536 192.5 572.5 c 128,-1,20
 234 609 234 609 284 634.5 c 128,-1,21
 334 660 334 660 391 673.5 c 128,-1,22
 448 687 448 687 508 687 c 0,23,24
 536 687 536 687 560.5 685 c 128,-1,25
 585 683 585 683 609 678.5 c 128,-1,26
 633 674 633 674 658 667 c 128,-1,27
 683 660 683 660 713 651 c 1,28,-1
 676 469 l 1,29,-1
 592 469 l 1,30,-1
 601 582 l 2,31,32
 601 590 601 590 592.5 595 c 128,-1,33
 584 600 584 600 574 603 c 0,34,35
 570 604 570 604 561.5 607 c 128,-1,36
 553 610 553 610 542.5 613 c 128,-1,37
 532 616 532 616 520 618 c 128,-1,38
 508 620 508 620 497 620 c 0,39,40
 467 620 467 620 434 609 c 128,-1,41
 401 598 401 598 369.5 576.5 c 128,-1,42
 338 555 338 555 309.5 523.5 c 128,-1,43
 281 492 281 492 259.5 451 c 128,-1,44
 238 410 238 410 225.5 360.5 c 128,-1,45
 213 311 213 311 213 254 c 0,46,47
 213 214 213 214 222.5 183 c 128,-1,48
 232 152 232 152 247 129 c 128,-1,49
 262 106 262 106 281 91 c 128,-1,50
 300 76 300 76 319 66.5 c 128,-1,51
 338 57 338 57 355 53 c 128,-1,52
 372 49 372 49 383 49 c 0,53,54
 392 49 392 49 403 50 c 128,-1,55
 414 51 414 51 424.5 53 c 128,-1,56
 435 55 435 55 444.5 57 c 128,-1,57
 454 59 454 59 460 60 c 1,58,-1
 499 257 l 2,59,60
 500 266 500 266 496 268.5 c 128,-1,61
 492 271 492 271 481 271 c 0,62,63
 473 271 473 271 464 271 c 0,64,65
 456 271 456 271 446 271.5 c 128,-1,66
 436 272 436 272 427 272 c 1,67,-1
 427 323 l 1,68,-1
 726 323 l 1,69,-1
 726 272 l 1,70,-1
 648 273 l 2,0,1
EndSplineSet
EndChar

StartChar: H
Encoding: 72 72 43
Width: 767
Flags: W
LayerCount: 2
Fore
SplineSet
745 615 m 2,0,1
 736 615 736 615 732.5 611.5 c 128,-1,2
 729 608 729 608 728 602 c 2,3,-1
 624 72 l 2,4,5
 623 64 623 64 627 61.5 c 128,-1,6
 631 59 631 59 640 59 c 0,7,8
 648 59 648 59 657 59 c 0,9,10
 665 59 665 59 675 58.5 c 128,-1,11
 685 58 685 58 696 58 c 1,12,-1
 696 9 l 1,13,-1
 393 9 l 1,14,-1
 393 58 l 1,15,-1
 415 59 l 2,16,17
 426 59 426 59 434 59 c 0,18,19
 444 59 444 59 453 59 c 256,20,21
 462 59 462 59 467.5 61.5 c 128,-1,22
 473 64 473 64 474 72 c 2,23,-1
 522 322 l 1,24,-1
 252 322 l 1,25,-1
 204 72 l 2,26,27
 203 64 203 64 206 62 c 128,-1,28
 209 60 209 60 221 60 c 0,29,30
 229 60 229 60 238 60 c 0,31,32
 246 60 246 60 256 59.5 c 128,-1,33
 266 59 266 59 277 59 c 1,34,-1
 277 10 l 1,35,-1
 -25 10 l 1,36,-1
 -25 59 l 1,37,38
 -14 59 -14 59 -3.5 59.5 c 128,-1,39
 7 60 7 60 15 60 c 0,40,41
 24 60 24 60 32 60 c 0,42,43
 42 60 42 60 46.5 62.5 c 128,-1,44
 51 65 51 65 52 73 c 2,45,-1
 156 603 l 2,46,47
 157 611 157 611 152.5 613.5 c 128,-1,48
 148 616 148 616 138 616 c 0,49,50
 130 616 130 616 121 616 c 0,51,52
 113 616 113 616 103 616.5 c 128,-1,53
 93 617 93 617 83 617 c 1,54,-1
 83 666 l 1,55,-1
 384 666 l 1,56,-1
 384 617 l 1,57,58
 373 617 373 617 362.5 616.5 c 128,-1,59
 352 616 352 616 344 616 c 0,60,61
 334 616 334 616 325 616 c 256,62,63
 316 616 316 616 311.5 613 c 128,-1,64
 307 610 307 610 306 602 c 2,65,-1
 264 383 l 1,66,-1
 534 383 l 1,67,-1
 576 603 l 2,68,69
 577 611 577 611 572 614 c 128,-1,70
 567 617 567 617 555 617 c 0,71,72
 547 617 547 617 538 617 c 0,73,74
 530 617 530 617 520 617.5 c 128,-1,75
 510 618 510 618 501 618 c 1,76,-1
 501 667 l 1,77,-1
 803 667 l 1,78,-1
 803 618 l 1,79,-1
 745 615 l 2,0,1
EndSplineSet
EndChar

StartChar: I
Encoding: 73 73 44
Width: 355
Flags: W
LayerCount: 2
Fore
SplineSet
329 616 m 2,0,1
 322 616 322 616 319.5 612 c 128,-1,2
 317 608 317 608 316 602 c 2,3,-1
 212 72 l 2,4,5
 211 64 211 64 214 61.5 c 128,-1,6
 217 59 217 59 226 59 c 256,7,8
 235 59 235 59 245 59 c 0,9,10
 253 59 253 59 264 58.5 c 128,-1,11
 275 58 275 58 287 58 c 1,12,-1
 287 9 l 1,13,-1
 -16 9 l 1,14,-1
 -16 58 l 1,15,16
 -5 58 -5 58 5 58 c 128,-1,17
 15 58 15 58 23 58 c 0,18,19
 32 58 32 58 40 58 c 0,20,21
 51 58 51 58 56 60.5 c 128,-1,22
 61 63 61 63 62 73 c 2,23,-1
 166 603 l 2,24,25
 168 611 168 611 163 613.5 c 128,-1,26
 158 616 158 616 149 616 c 0,27,28
 141 616 141 616 132 616 c 0,29,30
 124 616 124 616 114 616.5 c 128,-1,31
 104 617 104 617 95 617 c 1,32,-1
 95 666 l 1,33,-1
 396 666 l 1,34,-1
 396 617 l 1,35,-1
 329 616 l 2,0,1
EndSplineSet
EndChar

StartChar: J
Encoding: 74 74 45
Width: 509
Flags: W
LayerCount: 2
Fore
SplineSet
480 615 m 2,0,1
 474 615 474 615 471.5 611 c 128,-1,2
 469 607 469 607 468 601 c 2,3,-1
 405 258 l 2,4,5
 395 199 395 199 379.5 149 c 128,-1,6
 364 99 364 99 335 63 c 128,-1,7
 306 27 306 27 258.5 6.5 c 128,-1,8
 211 -14 211 -14 138 -14 c 0,9,10
 105 -14 105 -14 79 -10 c 128,-1,11
 53 -6 53 -6 34 -0.5 c 128,-1,12
 15 5 15 5 3.5 10.5 c 128,-1,13
 -8 16 -8 16 -13 18 c 1,14,-1
 21 191 l 1,15,-1
 103 191 l 1,16,-1
 103 66 l 2,17,18
 103 63 103 63 107.5 59.5 c 128,-1,19
 112 56 112 56 118.5 53.5 c 128,-1,20
 125 51 125 51 132.5 49.5 c 128,-1,21
 140 48 140 48 145 48 c 0,22,23
 188 48 188 48 215.5 98 c 128,-1,24
 243 148 243 148 261 251 c 1,25,-1
 327 603 l 2,26,27
 328 611 328 611 323.5 613.5 c 128,-1,28
 319 616 319 616 310 616 c 256,29,30
 301 616 301 616 292 616 c 0,31,32
 284 616 284 616 273.5 616.5 c 128,-1,33
 263 617 263 617 253 617 c 1,34,-1
 253 666 l 1,35,-1
 554 666 l 1,36,-1
 554 617 l 1,37,-1
 480 615 l 2,0,1
EndSplineSet
EndChar

StartChar: K
Encoding: 75 75 46
Width: 698
Flags: W
LayerCount: 2
Fore
SplineSet
645 612 m 1,0,-1
 388 367 l 1,1,-1
 526 103 l 2,2,3
 534 87 534 87 539.5 77 c 128,-1,4
 545 67 545 67 550.5 61 c 128,-1,5
 556 55 556 55 563 53 c 128,-1,6
 570 51 570 51 581 51 c 0,7,8
 584 51 584 51 593.5 51.5 c 128,-1,9
 603 52 603 52 613.5 52.5 c 128,-1,10
 624 53 624 53 632.5 53.5 c 128,-1,11
 641 54 641 54 641 54 c 1,12,-1
 641 4 l 1,13,14
 614 -4 614 -4 584.5 -9 c 128,-1,15
 555 -14 555 -14 528 -14 c 0,16,17
 498 -14 498 -14 477 -10 c 128,-1,18
 456 -6 456 -6 441 3.5 c 128,-1,19
 426 13 426 13 415 27.5 c 128,-1,20
 404 42 404 42 394 62 c 2,21,-1
 274 291 l 1,22,-1
 252 291 l 1,23,-1
 209 70 l 2,24,25
 208 61 208 61 212.5 59 c 128,-1,26
 217 57 217 57 225 57 c 256,27,28
 233 57 233 57 241 57 c 0,29,30
 248 57 248 57 257 57 c 128,-1,31
 266 57 266 57 275 57 c 1,32,-1
 275 8 l 1,33,-1
 -17 8 l 1,34,-1
 -17 57 l 1,35,36
 -8 57 -8 57 2.5 57 c 128,-1,37
 13 57 13 57 22 57 c 0,38,39
 33 57 33 57 43 57 c 0,40,41
 50 57 50 57 54.5 60 c 128,-1,42
 59 63 59 63 60 72 c 2,43,-1
 164 602 l 2,44,45
 166 610 166 610 162.5 613 c 128,-1,46
 159 616 159 616 152 616 c 0,47,48
 144 616 144 616 136 616 c 0,49,50
 129 616 129 616 120 616.5 c 128,-1,51
 111 617 111 617 102 617 c 1,52,-1
 102 666 l 1,53,-1
 385 666 l 1,54,-1
 385 617 l 1,55,56
 375 617 375 617 365 616.5 c 128,-1,57
 355 616 355 616 348 616 c 0,58,59
 340 616 340 616 332 616 c 0,60,61
 325 616 325 616 320.5 613 c 128,-1,62
 316 610 316 610 314 601 c 2,63,-1
 272 384 l 1,64,-1
 279 384 l 1,65,-1
 504 603 l 2,66,67
 511 609 511 609 508 612.5 c 128,-1,68
 505 616 505 616 495 616 c 0,69,70
 487 616 487 616 479 616 c 0,71,72
 472 616 472 616 463 616.5 c 128,-1,73
 454 617 454 617 446 617 c 1,74,-1
 446 666 l 1,75,-1
 737 666 l 1,76,-1
 737 617 l 1,77,-1
 645 612 l 1,0,-1
EndSplineSet
EndChar

StartChar: L
Encoding: 76 76 47
Width: 560
Flags: W
LayerCount: 2
Fore
SplineSet
487 0 m 1,0,-1
 -15 0 l 1,1,-1
 -15 49 l 1,2,3
 -5 49 -5 49 5 49.5 c 128,-1,4
 15 50 15 50 23 50 c 2,5,-1
 41 50 l 1,6,7
 55 51 55 51 59.5 53.5 c 128,-1,8
 64 56 64 56 65 65 c 2,9,-1
 169 595 l 2,10,11
 171 603 171 603 166 605.5 c 128,-1,12
 161 608 161 608 153 608 c 256,13,14
 145 608 145 608 136 608 c 0,15,16
 128 608 128 608 118 608.5 c 128,-1,17
 108 609 108 609 98 609 c 1,18,-1
 98 658 l 1,19,-1
 399 658 l 1,20,-1
 399 609 l 1,21,22
 387 609 387 609 376 608.5 c 128,-1,23
 365 608 365 608 356 608 c 0,24,25
 346 608 346 608 337 608 c 0,26,27
 331 608 331 608 326.5 605 c 128,-1,28
 322 602 322 602 320 594 c 2,29,-1
 215 54 l 1,30,-1
 390 54 l 2,31,32
 397 54 397 54 406 57.5 c 128,-1,33
 415 61 415 61 417 67 c 2,34,-1
 458 194 l 1,35,-1
 532 194 l 1,36,-1
 487 0 l 1,0,-1
EndSplineSet
EndChar

StartChar: M
Encoding: 77 77 48
Width: 903
Flags: W
LayerCount: 2
Fore
SplineSet
876 613 m 2,0,1
 870 613 870 613 867.5 610.5 c 128,-1,2
 865 608 865 608 864 602 c 2,3,-1
 761 72 l 2,4,5
 760 64 760 64 764.5 62 c 128,-1,6
 769 60 769 60 778 60 c 0,7,8
 786 60 786 60 795 60 c 0,9,10
 803 60 803 60 813 59.5 c 128,-1,11
 823 59 823 59 833 59 c 1,12,-1
 833 10 l 1,13,-1
 532 10 l 1,14,-1
 532 59 l 1,15,16
 543 59 543 59 553.5 59.5 c 128,-1,17
 564 60 564 60 572 60 c 0,18,19
 582 60 582 60 591 60 c 0,20,21
 599 60 599 60 605 63 c 128,-1,22
 611 66 611 66 612 74 c 2,23,-1
 686 460 l 1,24,-1
 427 3 l 1,25,-1
 329 3 l 1,26,-1
 248 453 l 1,27,-1
 178 73 l 2,28,29
 176 65 176 65 180.5 62.5 c 128,-1,30
 185 60 185 60 191 60 c 0,31,32
 200 60 200 60 209 60 c 0,33,34
 217 60 217 60 227.5 59.5 c 128,-1,35
 238 59 238 59 249 59 c 1,36,-1
 249 10 l 1,37,-1
 -21 10 l 1,38,-1
 -21 59 l 1,39,40
 -11 59 -11 59 -1.5 59.5 c 128,-1,41
 8 60 8 60 16 60 c 0,42,43
 25 60 25 60 33 60 c 0,44,45
 43 60 43 60 49 62 c 128,-1,46
 55 64 55 64 57 73 c 2,47,-1
 160 603 l 2,48,49
 161 611 161 611 156.5 613.5 c 128,-1,50
 152 616 152 616 143 616 c 256,51,52
 134 616 134 616 125 616 c 0,53,54
 117 616 117 616 107 616.5 c 128,-1,55
 97 617 97 617 87 617 c 1,56,-1
 87 666 l 1,57,-1
 352 666 l 1,58,-1
 352 634 l 1,59,-1
 428 214 l 1,60,-1
 662 630 l 1,61,-1
 662 667 l 1,62,-1
 934 667 l 1,63,-1
 934 618 l 1,64,-1
 876 613 l 2,0,1
EndSplineSet
EndChar

StartChar: N
Encoding: 78 78 49
Width: 752
Flags: W
LayerCount: 2
Fore
SplineSet
731 615 m 1,0,1
 717 613 717 613 715 601 c 2,2,-1
 597 1 l 1,3,-1
 486 1 l 1,4,-1
 263 465 l 1,5,-1
 186 70 l 2,6,7
 185 62 185 62 189 60 c 128,-1,8
 193 58 193 58 203 58 c 0,9,10
 211 58 211 58 220 58 c 0,11,12
 228 58 228 58 238 57.5 c 128,-1,13
 248 57 248 57 259 57 c 1,14,-1
 259 8 l 1,15,-1
 -14 8 l 1,16,-1
 -14 57 l 1,17,18
 -4 57 -4 57 6 57.5 c 128,-1,19
 16 58 16 58 24 58 c 0,20,21
 33 58 33 58 41 58 c 0,22,23
 51 58 51 58 56.5 60 c 128,-1,24
 62 62 62 62 64 71 c 2,25,-1
 167 601 l 2,26,27
 169 609 169 609 164 611.5 c 128,-1,28
 159 614 159 614 150 614 c 0,29,30
 142 614 142 614 133 614 c 0,31,32
 125 614 125 614 115 614.5 c 128,-1,33
 105 615 105 615 95 615 c 1,34,-1
 95 664 l 1,35,-1
 329 664 l 1,36,-1
 329 634 l 1,37,-1
 523 227 l 1,38,-1
 596 595 l 2,39,40
 598 603 598 603 592 605.5 c 128,-1,41
 586 608 586 608 578 608 c 0,42,43
 569 608 569 608 560 608 c 0,44,45
 552 608 552 608 542 608.5 c 128,-1,46
 532 609 532 609 523 609 c 1,47,-1
 523 658 l 1,48,-1
 796 658 l 1,49,-1
 796 609 l 1,50,-1
 731 615 l 1,0,1
EndSplineSet
EndChar

StartChar: O
Encoding: 79 79 50
Width: 751
Flags: W
LayerCount: 2
Fore
SplineSet
577 416 m 1,0,1
 577 466 577 466 564.5 505 c 128,-1,2
 552 544 552 544 531.5 570.5 c 128,-1,3
 511 597 511 597 485.5 610.5 c 128,-1,4
 460 624 460 624 435 624 c 0,5,6
 406 624 406 624 377.5 609 c 128,-1,7
 349 594 349 594 324 568 c 128,-1,8
 299 542 299 542 278 506.5 c 128,-1,9
 257 471 257 471 242 430 c 128,-1,10
 227 389 227 389 218.5 344 c 128,-1,11
 210 299 210 299 210 255 c 0,12,13
 210 204 210 204 223 165 c 128,-1,14
 236 126 236 126 256.5 100 c 128,-1,15
 277 74 277 74 302.5 61 c 128,-1,16
 328 48 328 48 352 48 c 0,17,18
 381 48 381 48 409.5 63 c 128,-1,19
 438 78 438 78 463 104.5 c 128,-1,20
 488 131 488 131 509 166.5 c 128,-1,21
 530 202 530 202 545.5 243 c 128,-1,22
 561 284 561 284 569.5 328 c 128,-1,23
 578 372 578 372 577 416 c 1,0,1
733 415 m 0,24,25
 733 364 733 364 722.5 312 c 128,-1,26
 712 260 712 260 690.5 212 c 128,-1,27
 669 164 669 164 636.5 122.5 c 128,-1,28
 604 81 604 81 561 50 c 128,-1,29
 518 19 518 19 463.5 1.5 c 128,-1,30
 409 -16 409 -16 344 -16 c 0,31,32
 275 -16 275 -16 221 4.5 c 128,-1,33
 167 25 167 25 129.5 62 c 128,-1,34
 92 99 92 99 72.5 150 c 128,-1,35
 53 201 53 201 53 262 c 0,36,37
 53 313 53 313 64.5 364.5 c 128,-1,38
 76 416 76 416 99 463 c 128,-1,39
 122 510 122 510 155.5 550.5 c 128,-1,40
 189 591 189 591 232.5 620.5 c 128,-1,41
 276 650 276 650 329 666.5 c 128,-1,42
 382 683 382 683 443 683 c 0,43,44
 515 683 515 683 569.5 661 c 128,-1,45
 624 639 624 639 660.5 602 c 128,-1,46
 697 565 697 565 715.5 516.5 c 128,-1,47
 734 468 734 468 733 415 c 0,24,25
EndSplineSet
EndChar

StartChar: P
Encoding: 80 80 51
Width: 607
Flags: W
LayerCount: 2
Fore
SplineSet
612 507 m 1,0,1
 612 449 612 449 589.5 401.5 c 128,-1,2
 567 354 567 354 525 320 c 128,-1,3
 483 286 483 286 423 267.5 c 128,-1,4
 363 249 363 249 289 249 c 2,5,-1
 269 249 l 2,6,7
 257 249 257 249 247 249 c 1,8,-1
 211 71 l 2,9,10
 210 63 210 63 214 61 c 128,-1,11
 218 59 218 59 228 59 c 0,12,13
 236 59 236 59 245 59 c 0,14,15
 253 59 253 59 263 58.5 c 128,-1,16
 273 58 273 58 284 58 c 1,17,-1
 284 9 l 1,18,-1
 -18 9 l 1,19,-1
 -18 58 l 1,20,21
 -8 58 -8 58 2 58.5 c 128,-1,22
 12 59 12 59 20 59 c 0,23,24
 29 59 29 59 38 59 c 256,25,26
 47 59 47 59 52.5 61 c 128,-1,27
 58 63 58 63 60 72 c 2,28,-1
 164 602 l 2,29,30
 165 610 165 610 159.5 612.5 c 128,-1,31
 154 615 154 615 145 615 c 0,32,33
 137 615 137 615 128 615 c 0,34,35
 120 615 120 615 110 615.5 c 128,-1,36
 100 616 100 616 91 616 c 1,37,-1
 91 665 l 1,38,-1
 360 665 l 2,39,40
 430 665 430 665 477.5 652.5 c 128,-1,41
 525 640 525 640 554 618 c 128,-1,42
 583 596 583 596 595 566.5 c 128,-1,43
 607 537 607 537 612 507 c 1,0,1
462 488 m 1,44,45
 462 547 462 547 428.5 578 c 128,-1,46
 395 609 395 609 329 609 c 2,47,-1
 312 609 l 1,48,-1
 251 304 l 1,49,50
 280 304 280 304 312.5 310 c 128,-1,51
 345 316 345 316 375 334 c 0,52,53
 393 344 393 344 408.5 358.5 c 128,-1,54
 424 373 424 373 435.5 392 c 128,-1,55
 447 411 447 411 453.5 434.5 c 128,-1,56
 460 458 460 458 462 488 c 1,44,45
EndSplineSet
EndChar

StartChar: Q
Encoding: 81 81 52
Width: 751
Flags: W
LayerCount: 2
Fore
SplineSet
577 416 m 0,0,1
 577 464 577 464 565 502.5 c 128,-1,2
 553 541 553 541 533.5 568 c 128,-1,3
 514 595 514 595 489 609.5 c 128,-1,4
 464 624 464 624 439 624 c 0,5,6
 409 624 409 624 380 610 c 128,-1,7
 351 596 351 596 325 570.5 c 128,-1,8
 299 545 299 545 277 510 c 128,-1,9
 255 475 255 475 239 434 c 128,-1,10
 223 393 223 393 214 347.5 c 128,-1,11
 205 302 205 302 205 255 c 256,12,13
 205 208 205 208 217 169.5 c 128,-1,14
 229 131 229 131 249 104 c 128,-1,15
 269 77 269 77 295.5 62.5 c 128,-1,16
 322 48 322 48 350 48 c 256,17,18
 378 48 378 48 406 63 c 128,-1,19
 434 78 434 78 459.5 104.5 c 128,-1,20
 485 131 485 131 506.5 166.5 c 128,-1,21
 528 202 528 202 543.5 243.5 c 128,-1,22
 559 285 559 285 568 329.5 c 128,-1,23
 577 374 577 374 577 416 c 0,0,1
764 -105 m 1,24,25
 758 -108 758 -108 738 -116.5 c 128,-1,26
 718 -125 718 -125 691.5 -134 c 128,-1,27
 665 -143 665 -143 634.5 -149.5 c 128,-1,28
 604 -156 604 -156 577 -156 c 0,29,30
 531 -156 531 -156 498.5 -144.5 c 128,-1,31
 466 -133 466 -133 443 -113.5 c 128,-1,32
 420 -94 420 -94 404.5 -68 c 128,-1,33
 389 -42 389 -42 376 -14 c 1,34,35
 370 -14 370 -14 362 -14 c 128,-1,36
 354 -14 354 -14 345 -14 c 0,37,38
 281 -14 281 -14 227.5 5 c 128,-1,39
 174 24 174 24 135.5 60 c 128,-1,40
 97 96 97 96 76 147 c 128,-1,41
 55 198 55 198 55 261 c 0,42,43
 55 310 55 310 66.5 361 c 128,-1,44
 78 412 78 412 101 459.5 c 128,-1,45
 124 507 124 507 157.5 548.5 c 128,-1,46
 191 590 191 590 234.5 621 c 128,-1,47
 278 652 278 652 331 669.5 c 128,-1,48
 384 687 384 687 446 687 c 0,49,50
 517 687 517 687 571 666 c 128,-1,51
 625 645 625 645 661.5 608 c 128,-1,52
 698 571 698 571 716.5 522 c 128,-1,53
 735 473 735 473 735 418 c 0,54,55
 735 392 735 392 732 360 c 128,-1,56
 729 328 729 328 720 293.5 c 128,-1,57
 711 259 711 259 696 223 c 128,-1,58
 681 187 681 187 657 152.5 c 128,-1,59
 633 118 633 118 599 86 c 128,-1,60
 565 54 565 54 519 28 c 1,61,62
 533 3 533 3 543.5 -17.5 c 128,-1,63
 554 -38 554 -38 566 -52.5 c 128,-1,64
 578 -67 578 -67 593.5 -75 c 128,-1,65
 609 -83 609 -83 632 -83 c 0,66,67
 645 -83 645 -83 658.5 -80 c 128,-1,68
 672 -77 672 -77 688 -71.5 c 128,-1,69
 704 -66 704 -66 723 -57.5 c 128,-1,70
 742 -49 742 -49 766 -38 c 1,71,-1
 764 -105 l 1,24,25
EndSplineSet
EndChar

StartChar: R
Encoding: 82 82 53
Width: 683
Flags: W
LayerCount: 2
Fore
SplineSet
657 2 m 1,0,1
 635 -7 635 -7 613.5 -11.5 c 128,-1,2
 592 -16 592 -16 565 -16 c 0,3,4
 519 -16 519 -16 489.5 -5.5 c 128,-1,5
 460 5 460 5 441 25.5 c 128,-1,6
 422 46 422 46 411.5 76 c 128,-1,7
 401 106 401 106 393 145 c 0,8,9
 390 159 390 159 386.5 175 c 128,-1,10
 383 191 383 191 378 207 c 128,-1,11
 373 223 373 223 366 237.5 c 128,-1,12
 359 252 359 252 349 263 c 128,-1,13
 339 274 339 274 325.5 280.5 c 128,-1,14
 312 287 312 287 293 287 c 0,15,16
 287 287 287 287 278.5 287 c 128,-1,17
 270 287 270 287 262 287 c 1,18,-1
 221 66 l 2,19,20
 220 58 220 58 223.5 55.5 c 128,-1,21
 227 53 227 53 236 53 c 0,22,23
 244 53 244 53 254 53 c 0,24,25
 262 53 262 53 273 52.5 c 128,-1,26
 284 52 284 52 295 52 c 1,27,-1
 295 3 l 1,28,-1
 -7 3 l 1,29,-1
 -7 52 l 1,30,31
 4 52 4 52 14 52 c 128,-1,32
 24 52 24 52 32 52 c 0,33,34
 41 52 41 52 49 52 c 0,35,36
 58 52 58 52 63.5 54.5 c 128,-1,37
 69 57 69 57 71 66 c 2,38,-1
 173 596 l 2,39,40
 175 604 175 604 170.5 606.5 c 128,-1,41
 166 609 166 609 157 609 c 256,42,43
 148 609 148 609 139 609 c 0,44,45
 131 609 131 609 121 609.5 c 128,-1,46
 111 610 111 610 101 610 c 1,47,-1
 101 659 l 1,48,-1
 389 659 l 2,49,50
 439 659 439 659 482 651.5 c 128,-1,51
 525 644 525 644 557 626.5 c 128,-1,52
 589 609 589 609 607 580.5 c 128,-1,53
 625 552 625 552 625 511 c 0,54,55
 625 472 625 472 610 440.5 c 128,-1,56
 595 409 595 409 568.5 384 c 128,-1,57
 542 359 542 359 505.5 340.5 c 128,-1,58
 469 322 469 322 427 310 c 1,59,60
 455 297 455 297 472.5 281.5 c 128,-1,61
 490 266 490 266 500.5 246.5 c 128,-1,62
 511 227 511 227 517.5 203.5 c 128,-1,63
 524 180 524 180 531 153 c 0,64,65
 537 127 537 127 543.5 107 c 128,-1,66
 550 87 550 87 562.5 73.5 c 128,-1,67
 575 60 575 60 597 53.5 c 128,-1,68
 619 47 619 47 657 47 c 1,69,-1
 657 2 l 1,0,1
468 503 m 0,70,71
 468 527 468 527 461 544.5 c 128,-1,72
 454 562 454 562 443 573.5 c 128,-1,73
 432 585 432 585 418 592 c 128,-1,74
 404 599 404 599 390 602.5 c 128,-1,75
 376 606 376 606 364 606.5 c 128,-1,76
 352 607 352 607 345 607 c 2,77,-1
 321 606 l 1,78,-1
 273 348 l 1,79,-1
 279 348 l 2,80,81
 283 348 283 348 286 348 c 0,82,83
 290 348 290 348 294 348 c 0,84,85
 313 348 313 348 333.5 351.5 c 128,-1,86
 354 355 354 355 373.5 362 c 128,-1,87
 393 369 393 369 410 380.5 c 128,-1,88
 427 392 427 392 440 408.5 c 128,-1,89
 453 425 453 425 460.5 447 c 128,-1,90
 468 469 468 469 468 503 c 0,70,71
EndSplineSet
EndChar

StartChar: S
Encoding: 83 83 54
Width: 562
Flags: W
LayerCount: 2
Fore
SplineSet
521 491 m 1,0,-1
 445 491 l 1,1,-1
 449 595 l 2,2,3
 449 597 449 597 440 602 c 128,-1,4
 431 607 431 607 417 612.5 c 128,-1,5
 403 618 403 618 387 622 c 128,-1,6
 371 626 371 626 358 626 c 0,7,8
 339 626 339 626 317 617.5 c 128,-1,9
 295 609 295 609 276 592.5 c 128,-1,10
 257 576 257 576 244.5 552.5 c 128,-1,11
 232 529 232 529 232 499 c 0,12,13
 232 473 232 473 246 453.5 c 128,-1,14
 260 434 260 434 281 419.5 c 128,-1,15
 302 405 302 405 326 394 c 128,-1,16
 350 383 350 383 369 374 c 0,17,18
 395 361 395 361 420.5 346 c 128,-1,19
 446 331 446 331 465.5 312 c 128,-1,20
 485 293 485 293 496.5 268.5 c 128,-1,21
 508 244 508 244 508 212 c 0,22,23
 508 190 508 190 502 165 c 128,-1,24
 496 140 496 140 482 115.5 c 128,-1,25
 468 91 468 91 445.5 68.5 c 128,-1,26
 423 46 423 46 390 29 c 128,-1,27
 357 12 357 12 312.5 2 c 128,-1,28
 268 -8 268 -8 211 -8 c 0,29,30
 170 -8 170 -8 134.5 -1 c 128,-1,31
 99 6 99 6 71 15.5 c 128,-1,32
 43 25 43 25 24.5 34 c 128,-1,33
 6 43 6 43 0 47 c 1,34,-1
 34 211 l 1,35,-1
 119 211 l 1,36,-1
 108 92 l 2,37,38
 108 90 108 90 121.5 83.5 c 128,-1,39
 135 77 135 77 154 70.5 c 128,-1,40
 173 64 173 64 193 59.5 c 128,-1,41
 213 55 213 55 225 55 c 0,42,43
 247 55 247 55 271.5 63.5 c 128,-1,44
 296 72 296 72 316.5 89 c 128,-1,45
 337 106 337 106 350 132 c 128,-1,46
 363 158 363 158 363 193 c 0,47,48
 363 217 363 217 348.5 236 c 128,-1,49
 334 255 334 255 313 269.5 c 128,-1,50
 292 284 292 284 268 295.5 c 128,-1,51
 244 307 244 307 226 316 c 0,52,53
 200 329 200 329 175 343.5 c 128,-1,54
 150 358 150 358 130.5 376 c 128,-1,55
 111 394 111 394 99.5 416.5 c 128,-1,56
 88 439 88 439 88 468 c 0,57,58
 88 516 88 516 107 556.5 c 128,-1,59
 126 597 126 597 162 626 c 128,-1,60
 198 655 198 655 250 671.5 c 128,-1,61
 302 688 302 688 367 688 c 0,62,63
 400 688 400 688 428 684.5 c 128,-1,64
 456 681 456 681 479.5 675.5 c 128,-1,65
 503 670 503 670 522 663 c 128,-1,66
 541 656 541 656 556 650 c 1,67,-1
 521 491 l 1,0,-1
EndSplineSet
EndChar

StartChar: T
Encoding: 84 84 55
Width: 627
Flags: W
LayerCount: 2
Fore
SplineSet
655 496 m 1,0,-1
 578 496 l 1,1,-1
 582 602 l 2,2,3
 582 608 582 608 574.5 611 c 128,-1,4
 567 614 567 614 560 614 c 2,5,-1
 452 614 l 1,6,-1
 349 68 l 2,7,8
 348 60 348 60 353.5 58 c 128,-1,9
 359 56 359 56 368 56 c 0,10,11
 376 56 376 56 385 56 c 0,12,13
 393 56 393 56 403 56 c 2,14,-1
 423 55 l 1,15,-1
 423 6 l 1,16,-1
 122 6 l 1,17,-1
 122 55 l 1,18,19
 131 55 131 55 140.5 55 c 128,-1,20
 150 55 150 55 158 55 c 0,21,22
 167 55 167 55 175 55 c 0,23,24
 185 55 185 55 192.5 57.5 c 128,-1,25
 200 60 200 60 201 69 c 2,26,-1
 304 614 l 1,27,-1
 201 614 l 2,28,29
 198 614 198 614 194 613.5 c 128,-1,30
 190 613 190 613 186 611.5 c 128,-1,31
 182 610 182 610 179 608 c 128,-1,32
 176 606 176 606 176 603 c 1,33,-1
 138 498 l 1,34,-1
 60 498 l 1,35,-1
 94 672 l 1,36,-1
 689 672 l 1,37,-1
 655 496 l 1,0,-1
EndSplineSet
EndChar

StartChar: U
Encoding: 85 85 56
Width: 749
Flags: W
LayerCount: 2
Fore
SplineSet
725 616 m 2,0,1
 719 616 719 616 715.5 612 c 128,-1,2
 712 608 712 608 711 602 c 2,3,-1
 634 217 l 2,4,5
 624 165 624 165 602 123 c 128,-1,6
 580 81 580 81 544 51 c 128,-1,7
 508 21 508 21 456.5 4.5 c 128,-1,8
 405 -12 405 -12 337 -12 c 0,9,10
 282 -12 282 -12 238 -2 c 128,-1,11
 194 8 194 8 163 29.5 c 128,-1,12
 132 51 132 51 115.5 84.5 c 128,-1,13
 99 118 99 118 99 164 c 0,14,15
 99 178 99 178 102 205.5 c 128,-1,16
 105 233 105 233 111 266 c 2,17,-1
 180 601 l 2,18,19
 181 609 181 609 176 611.5 c 128,-1,20
 171 614 171 614 161 614 c 0,21,22
 153 614 153 614 144 614 c 0,23,24
 136 614 136 614 126 614.5 c 128,-1,25
 116 615 116 615 107 615 c 1,26,-1
 107 664 l 1,27,-1
 408 664 l 1,28,-1
 408 615 l 1,29,30
 397 615 397 615 386.5 614.5 c 128,-1,31
 376 614 376 614 368 614 c 0,32,33
 358 614 358 614 349 614 c 0,34,35
 341 614 341 614 336 611 c 128,-1,36
 331 608 331 608 330 600 c 2,37,-1
 262 266 l 2,38,39
 257 238 257 238 254.5 215.5 c 128,-1,40
 252 193 252 193 252 180 c 0,41,42
 252 149 252 149 262 127 c 128,-1,43
 272 105 272 105 288.5 91 c 128,-1,44
 305 77 305 77 326.5 71 c 128,-1,45
 348 65 348 65 370 65 c 0,46,47
 409 65 409 65 437.5 79 c 128,-1,48
 466 93 466 93 486 118 c 128,-1,49
 506 143 506 143 519 178 c 128,-1,50
 532 213 532 213 540 254 c 2,51,-1
 610 605 l 2,52,53
 611 613 611 613 607 615.5 c 128,-1,54
 603 618 603 618 591 618 c 0,55,56
 582 618 582 618 573 618 c 0,57,58
 565 618 565 618 555 618.5 c 128,-1,59
 545 619 545 619 536 619 c 1,60,-1
 536 668 l 1,61,-1
 804 668 l 1,62,-1
 804 619 l 1,63,-1
 725 616 l 2,0,1
EndSplineSet
EndChar

StartChar: V
Encoding: 86 86 57
Width: 685
Flags: W
LayerCount: 2
Fore
SplineSet
703 615 m 1,0,-1
 358 -16 l 1,1,-1
 244 -16 l 1,2,-1
 146 603 l 2,3,4
 145 612 145 612 138.5 614.5 c 128,-1,5
 132 617 132 617 124 617 c 0,6,7
 118 617 118 617 112 617 c 0,8,9
 107 617 107 617 100.5 617 c 128,-1,10
 94 617 94 617 88 617 c 1,11,-1
 88 667 l 1,12,-1
 357 667 l 1,13,-1
 357 617 l 1,14,15
 349 617 349 617 341.5 617 c 128,-1,16
 334 617 334 617 328 617 c 2,17,-1
 314 617 l 2,18,19
 306 617 306 617 300.5 614.5 c 128,-1,20
 295 612 295 612 296 603 c 2,21,-1
 360 187 l 1,22,-1
 582 603 l 1,23,24
 583 607 583 607 582.5 609.5 c 128,-1,25
 582 612 582 612 580 613 c 128,-1,26
 578 614 578 614 575 614 c 128,-1,27
 572 614 572 614 570 614 c 2,28,-1
 554 614 l 2,29,30
 547 614 547 614 538 614 c 128,-1,31
 529 614 529 614 521 614 c 1,32,-1
 521 664 l 1,33,-1
 766 664 l 1,34,-1
 766 615 l 1,35,-1
 703 615 l 1,0,-1
EndSplineSet
EndChar

StartChar: W
Encoding: 87 87 58
Width: 969
Flags: W
LayerCount: 2
Fore
SplineSet
980 615 m 1,0,-1
 680 -16 l 1,1,-1
 578 -16 l 1,2,-1
 527 442 l 1,3,-1
 310 -16 l 1,4,-1
 202 -16 l 1,5,-1
 151 603 l 2,6,7
 151 612 151 612 146 614 c 128,-1,8
 141 616 141 616 129 616 c 0,9,10
 123 616 123 616 116 616 c 0,11,12
 110 616 110 616 102.5 616 c 128,-1,13
 95 616 95 616 89 616 c 1,14,-1
 89 666 l 1,15,-1
 361 666 l 1,16,-1
 361 616 l 1,17,18
 353 616 353 616 344.5 616 c 128,-1,19
 336 616 336 616 330 616 c 0,20,21
 322 616 322 616 316 616 c 256,22,23
 310 616 310 616 305 614 c 128,-1,24
 300 612 300 612 300 603 c 2,25,-1
 328 250 l 1,26,-1
 529 669 l 1,27,-1
 649 669 l 1,28,-1
 692 241 l 1,29,-1
 860 602 l 2,30,31
 861 606 861 606 861 608.5 c 128,-1,32
 861 611 861 611 858.5 612 c 128,-1,33
 856 613 856 613 852 613 c 128,-1,34
 848 613 848 613 843 613 c 2,35,-1
 828 613 l 2,36,37
 822 613 822 613 814.5 613 c 128,-1,38
 807 613 807 613 800 613 c 1,39,-1
 800 663 l 1,40,-1
 1050 663 l 1,41,-1
 1050 614 l 1,42,-1
 980 615 l 1,0,-1
EndSplineSet
EndChar

StartChar: X
Encoding: 88 88 59
Width: 674
Flags: W
LayerCount: 2
Fore
SplineSet
658 616 m 2,0,1
 648 616 648 616 643 612 c 128,-1,2
 638 608 638 608 636 606 c 2,3,-1
 418 361 l 1,4,-1
 548 69 l 2,5,6
 551 62 551 62 555 60.5 c 128,-1,7
 559 59 559 59 564 59 c 0,8,9
 572 59 572 59 580 59 c 0,10,11
 587 59 587 59 597 58.5 c 128,-1,12
 607 58 607 58 618 58 c 1,13,-1
 618 9 l 1,14,-1
 318 9 l 1,15,-1
 318 58 l 1,16,17
 327 58 327 58 337 58 c 128,-1,18
 347 58 347 58 355 58 c 0,19,20
 364 58 364 58 373 58 c 0,21,22
 378 58 378 58 382.5 58 c 128,-1,23
 387 58 387 58 390 59 c 128,-1,24
 393 60 393 60 393.5 62.5 c 128,-1,25
 394 65 394 65 393 69 c 2,26,-1
 316 245 l 1,27,-1
 156 69 l 2,28,29
 153 66 153 66 154 61.5 c 128,-1,30
 155 57 155 57 163 57 c 2,31,-1
 225 53 l 1,32,-1
 225 4 l 1,33,-1
 -49 4 l 1,34,-1
 -49 53 l 1,35,36
 -43 53 -43 53 -35.5 53 c 128,-1,37
 -28 53 -28 53 -23 53 c 0,38,39
 -17 53 -17 53 -11 53 c 256,40,41
 -5 53 -5 53 -1 53 c 128,-1,42
 3 53 3 53 6 54 c 128,-1,43
 9 55 9 55 11.5 57 c 128,-1,44
 14 59 14 59 17 62 c 2,45,-1
 265 335 l 1,46,-1
 146 600 l 2,47,48
 143 608 143 608 138.5 609 c 128,-1,49
 134 610 134 610 123 610 c 0,50,51
 116 610 116 610 108 610 c 0,52,53
 102 610 102 610 93 610.5 c 128,-1,54
 84 611 84 611 76 611 c 1,55,-1
 76 660 l 1,56,-1
 377 660 l 1,57,-1
 377 611 l 1,58,59
 365 611 365 611 354 610.5 c 128,-1,60
 343 610 343 610 334 610 c 0,61,62
 323 610 323 610 314 610 c 0,63,64
 308 610 308 610 303 607 c 128,-1,65
 298 604 298 604 301 596 c 2,66,-1
 368 444 l 1,67,-1
 504 596 l 2,68,69
 507 599 507 599 507.5 603.5 c 128,-1,70
 508 608 508 608 499 608 c 2,71,-1
 446 612 l 1,72,-1
 446 661 l 1,73,-1
 714 661 l 1,74,-1
 714 612 l 1,75,-1
 658 616 l 2,0,1
EndSplineSet
EndChar

StartChar: Y
Encoding: 89 89 60
Width: 681
Flags: W
LayerCount: 2
Fore
SplineSet
688 616 m 2,0,1
 683 616 683 616 678 612 c 128,-1,2
 673 608 673 608 671 606 c 2,3,-1
 418 283 l 1,4,-1
 377 73 l 2,5,6
 375 65 375 65 379.5 63 c 128,-1,7
 384 61 384 61 394 61 c 0,8,9
 402 61 402 61 411 61 c 0,10,11
 419 61 419 61 429 60.5 c 128,-1,12
 439 60 439 60 449 60 c 1,13,-1
 449 11 l 1,14,-1
 147 11 l 1,15,-1
 147 60 l 1,16,17
 156 60 156 60 166 60.5 c 128,-1,18
 176 61 176 61 184 61 c 0,19,20
 193 61 193 61 202 61 c 256,21,22
 211 61 211 61 217 63 c 128,-1,23
 223 65 223 65 225 74 c 2,24,-1
 266 276 l 1,25,-1
 155 608 l 2,26,27
 153 616 153 616 146.5 617 c 128,-1,28
 140 618 140 618 131 618 c 0,29,30
 124 618 124 618 116 618 c 0,31,32
 109 618 109 618 100 618.5 c 128,-1,33
 91 619 91 619 83 619 c 1,34,-1
 83 668 l 1,35,-1
 383 668 l 1,36,-1
 383 619 l 1,37,38
 372 619 372 619 361.5 618.5 c 128,-1,39
 351 618 351 618 343 618 c 0,40,41
 333 618 333 618 324 618 c 0,42,43
 316 618 316 618 310.5 615 c 128,-1,44
 305 612 305 612 308 603 c 2,45,-1
 376 386 l 1,46,-1
 541 604 l 2,47,48
 543 607 543 607 541.5 612 c 128,-1,49
 540 617 540 617 529 617 c 2,50,-1
 471 620 l 1,51,-1
 471 669 l 1,52,-1
 753 669 l 1,53,-1
 753 620 l 1,54,-1
 688 616 l 2,0,1
EndSplineSet
EndChar

StartChar: Z
Encoding: 90 90 61
Width: 604
Flags: W
LayerCount: 2
Fore
SplineSet
627 621 m 1,0,-1
 162 62 l 1,1,-1
 408 62 l 2,2,3
 415 62 415 62 424 66 c 128,-1,4
 433 70 433 70 435 76 c 2,5,-1
 471 205 l 1,6,-1
 554 205 l 1,7,-1
 514 -2 l 1,8,-1
 -23 -2 l 1,9,-1
 -14 46 l 1,10,-1
 450 606 l 1,11,-1
 242 606 l 2,12,13
 235 606 235 606 226 603 c 128,-1,14
 217 600 217 600 215 593 c 2,15,-1
 184 487 l 1,16,-1
 101 487 l 1,17,-1
 137 669 l 1,18,-1
 637 669 l 1,19,-1
 627 621 l 1,0,-1
EndSplineSet
EndChar

StartChar: bracketleft
Encoding: 91 91 62
Width: 448
Flags: W
LayerCount: 2
Fore
SplineSet
485 647 m 1,0,-1
 333 647 l 1,1,-1
 189 -75 l 1,2,-1
 342 -75 l 1,3,-1
 331 -132 l 1,4,-1
 55 -132 l 1,5,-1
 221 707 l 1,6,-1
 498 707 l 1,7,-1
 485 647 l 1,0,-1
EndSplineSet
EndChar

StartChar: backslash
Encoding: 92 92 63
Width: 494
Flags: W
LayerCount: 2
Fore
SplineSet
416 -92 m 1,0,-1
 0 671 l 1,1,-1
 78 671 l 1,2,-1
 494 -92 l 1,3,-1
 416 -92 l 1,0,-1
EndSplineSet
EndChar

StartChar: bracketright
Encoding: 93 93 64
Width: 448
Flags: W
LayerCount: 2
Fore
SplineSet
236 -131 m 1,0,-1
 -41 -131 l 1,1,-1
 -29 -74 l 1,2,-1
 124 -74 l 1,3,-1
 267 648 l 1,4,-1
 113 648 l 1,5,-1
 125 708 l 1,6,-1
 401 708 l 1,7,-1
 236 -131 l 1,0,-1
EndSplineSet
EndChar

StartChar: asciicircum
Encoding: 94 94 65
Width: 339
Flags: W
LayerCount: 2
Fore
SplineSet
312 550 m 1,0,-1
 246 645 l 1,1,-1
 141 550 l 1,2,-1
 58 550 l 1,3,-1
 203 721 l 1,4,-1
 320 721 l 1,5,-1
 397 550 l 1,6,-1
 312 550 l 1,0,-1
EndSplineSet
EndChar

StartChar: underscore
Encoding: 95 95 66
Width: 341
Flags: W
LayerCount: 2
Fore
SplineSet
262 -166 m 1,0,-1
 -79 -166 l 1,1,-1
 -63 -86 l 1,2,-1
 278 -86 l 1,3,-1
 262 -166 l 1,0,-1
EndSplineSet
EndChar

StartChar: grave
Encoding: 96 96 67
Width: 423
Flags: W
LayerCount: 2
Fore
SplineSet
271 550 m 1,0,-1
 109 638 l 2,1,2
 104 640 104 640 100 645 c 128,-1,3
 96 650 96 650 93 655.5 c 128,-1,4
 90 661 90 661 88.5 667 c 128,-1,5
 87 673 87 673 87 677 c 0,6,7
 87 685 87 685 89.5 694.5 c 128,-1,8
 92 704 92 704 98.5 711.5 c 128,-1,9
 105 719 105 719 115.5 723.5 c 128,-1,10
 126 728 126 728 142 728 c 0,11,12
 152 728 152 728 159.5 727 c 128,-1,13
 167 726 167 726 174 722.5 c 128,-1,14
 181 719 181 719 188 713 c 128,-1,15
 195 707 195 707 203 698 c 2,16,-1
 339 547 l 1,17,-1
 271 550 l 1,0,-1
EndSplineSet
EndChar

StartChar: a
Encoding: 97 97 68
Width: 567
Flags: W
LayerCount: 2
Fore
SplineSet
375 394 m 0,0,1
 375 395 375 395 374.5 402.5 c 128,-1,2
 374 410 374 410 372 418.5 c 128,-1,3
 370 427 370 427 367 433.5 c 128,-1,4
 364 440 364 440 360 440 c 0,5,6
 328 440 328 440 302 428.5 c 128,-1,7
 276 417 276 417 255.5 397 c 128,-1,8
 235 377 235 377 220 351 c 128,-1,9
 205 325 205 325 195 295.5 c 128,-1,10
 185 266 185 266 180.5 235.5 c 128,-1,11
 176 205 176 205 176 177 c 0,12,13
 176 157 176 157 176.5 137 c 128,-1,14
 177 117 177 117 182 100.5 c 128,-1,15
 187 84 187 84 198.5 74 c 128,-1,16
 210 64 210 64 232 64 c 0,17,18
 248 64 248 64 262 71 c 128,-1,19
 276 78 276 78 287.5 87.5 c 128,-1,20
 299 97 299 97 308 106.5 c 128,-1,21
 317 116 317 116 322 120 c 1,22,23
 325 140 325 140 327 150.5 c 128,-1,24
 329 161 329 161 330.5 171 c 128,-1,25
 332 181 332 181 334 193.5 c 128,-1,26
 336 206 336 206 340.5 229.5 c 128,-1,27
 345 253 345 253 352 291 c 128,-1,28
 359 329 359 329 375 394 c 0,0,1
560 27 m 1,29,30
 543 21 543 21 524.5 14 c 128,-1,31
 506 7 506 7 486.5 1 c 128,-1,32
 467 -5 467 -5 447.5 -9 c 128,-1,33
 428 -13 428 -13 409 -13 c 0,34,35
 378 -13 378 -13 357 -1.5 c 128,-1,36
 336 10 336 10 327 31 c 1,37,38
 314 23 314 23 299 15 c 128,-1,39
 284 7 284 7 267.5 1 c 128,-1,40
 251 -5 251 -5 233.5 -8.5 c 128,-1,41
 216 -12 216 -12 198 -12 c 0,42,43
 168 -12 168 -12 144 -4 c 128,-1,44
 120 4 120 4 101.5 18 c 128,-1,45
 83 32 83 32 70.5 50.5 c 128,-1,46
 58 69 58 69 50 89 c 128,-1,47
 42 109 42 109 38.5 129.5 c 128,-1,48
 35 150 35 150 35 168 c 0,49,50
 35 205 35 205 43 243.5 c 128,-1,51
 51 282 51 282 67.5 318.5 c 128,-1,52
 84 355 84 355 109 387 c 128,-1,53
 134 419 134 419 168.5 443 c 128,-1,54
 203 467 203 467 247 480.5 c 128,-1,55
 291 494 291 494 344 494 c 0,56,57
 365 494 365 494 386.5 488.5 c 128,-1,58
 408 483 408 483 425 474 c 1,59,-1
 432 482 l 1,60,-1
 538 482 l 1,61,62
 536 475 536 475 532.5 466 c 128,-1,63
 529 457 529 457 525.5 448.5 c 128,-1,64
 522 440 522 440 519 433 c 128,-1,65
 516 426 516 426 516 423 c 2,66,-1
 452 94 l 1,67,68
 452 83 452 83 452.5 75.5 c 128,-1,69
 453 68 453 68 455.5 63.5 c 128,-1,70
 458 59 458 59 463 57.5 c 128,-1,71
 468 56 468 56 476 56 c 0,72,73
 477 56 477 56 489 58.5 c 128,-1,74
 501 61 501 61 515.5 64.5 c 128,-1,75
 530 68 530 68 543 71 c 128,-1,76
 556 74 556 74 559 74 c 1,77,-1
 560 27 l 1,29,30
EndSplineSet
EndChar

StartChar: b
Encoding: 98 98 69
Width: 532
Flags: W
LayerCount: 2
Fore
SplineSet
361 307 m 0,0,1
 361 338 361 338 356.5 360 c 128,-1,2
 352 382 352 382 344.5 396 c 128,-1,3
 337 410 337 410 328 416 c 128,-1,4
 319 422 319 422 311 422 c 0,5,6
 291 422 291 422 265.5 409 c 128,-1,7
 240 396 240 396 218 377 c 1,8,-1
 163 79 l 1,9,10
 170 67 170 67 184.5 56 c 128,-1,11
 199 45 199 45 222 45 c 0,12,13
 238 45 238 45 254.5 55.5 c 128,-1,14
 271 66 271 66 286.5 84.5 c 128,-1,15
 302 103 302 103 315.5 128 c 128,-1,16
 329 153 329 153 339 182 c 128,-1,17
 349 211 349 211 354.5 242.5 c 128,-1,18
 360 274 360 274 361 307 c 0,0,1
499 308 m 0,19,20
 499 279 499 279 493 243.5 c 128,-1,21
 487 208 487 208 472.5 172.5 c 128,-1,22
 458 137 458 137 435 104 c 128,-1,23
 412 71 412 71 379 45 c 128,-1,24
 346 19 346 19 301.5 3.5 c 128,-1,25
 257 -12 257 -12 200 -12 c 0,26,27
 146 -12 146 -12 101 1 c 128,-1,28
 56 14 56 14 20 37 c 1,29,-1
 136 660 l 1,30,-1
 49 667 l 1,31,-1
 49 703 l 1,32,-1
 217 734 l 1,33,-1
 285 734 l 1,34,-1
 233 465 l 1,35,36
 260 479 260 479 288.5 488 c 128,-1,37
 317 497 317 497 343 497 c 0,38,39
 383 497 383 497 412.5 479.5 c 128,-1,40
 442 462 442 462 461.5 435 c 128,-1,41
 481 408 481 408 490.5 374.5 c 128,-1,42
 500 341 500 341 499 308 c 0,19,20
EndSplineSet
EndChar

StartChar: c
Encoding: 99 99 70
Width: 480
Flags: W
LayerCount: 2
Fore
SplineSet
450 425 m 0,0,1
 450 417 450 417 446 404 c 128,-1,2
 442 391 442 391 431.5 379 c 128,-1,3
 421 367 421 367 402.5 358.5 c 128,-1,4
 384 350 384 350 356 350 c 1,5,-1
 301 427 l 1,6,7
 273 421 273 421 252.5 404 c 128,-1,8
 232 387 232 387 218 364.5 c 128,-1,9
 204 342 204 342 195 316 c 128,-1,10
 186 290 186 290 181.5 266 c 128,-1,11
 177 242 177 242 175.5 222.5 c 128,-1,12
 174 203 174 203 174 193 c 0,13,14
 174 171 174 171 175.5 148.5 c 128,-1,15
 177 126 177 126 184 108 c 128,-1,16
 191 90 191 90 204.5 79 c 128,-1,17
 218 68 218 68 242 68 c 0,18,19
 260 68 260 68 279 73 c 128,-1,20
 298 78 298 78 320 92.5 c 128,-1,21
 342 107 342 107 368.5 132.5 c 128,-1,22
 395 158 395 158 428 198 c 1,23,-1
 428 99 l 1,24,25
 408 75 408 75 385 55.5 c 128,-1,26
 362 36 362 36 335 22.5 c 128,-1,27
 308 9 308 9 277 1.5 c 128,-1,28
 246 -6 246 -6 211 -6 c 0,29,30
 166 -6 166 -6 133 7.5 c 128,-1,31
 100 21 100 21 79 45.5 c 128,-1,32
 58 70 58 70 48 105 c 128,-1,33
 38 140 38 140 38 182 c 0,34,35
 38 246 38 246 58 304 c 128,-1,36
 78 362 78 362 116.5 406 c 128,-1,37
 155 450 155 450 210.5 475.5 c 128,-1,38
 266 501 266 501 337 501 c 0,39,40
 366 501 366 501 387.5 494 c 128,-1,41
 409 487 409 487 423 476.5 c 128,-1,42
 437 466 437 466 443.5 453.5 c 128,-1,43
 450 441 450 441 450 425 c 0,0,1
EndSplineSet
EndChar

StartChar: d
Encoding: 100 100 71
Width: 565
Flags: W
LayerCount: 2
Fore
SplineSet
375 394 m 2,0,1
 375 395 375 395 372 402.5 c 128,-1,2
 369 410 369 410 363.5 418.5 c 128,-1,3
 358 427 358 427 350 433.5 c 128,-1,4
 342 440 342 440 334 440 c 0,5,6
 308 440 308 440 279.5 420.5 c 128,-1,7
 251 401 251 401 227 366 c 128,-1,8
 203 331 203 331 187.5 282 c 128,-1,9
 172 233 172 233 172 174 c 0,10,11
 172 114 172 114 186.5 86.5 c 128,-1,12
 201 59 201 59 228 59 c 0,13,14
 240 59 240 59 252.5 65 c 128,-1,15
 265 71 265 71 277.5 81.5 c 128,-1,16
 290 92 290 92 302.5 105 c 128,-1,17
 315 118 315 118 327 132 c 1,18,-1
 375 394 l 2,0,1
452 88 m 2,19,20
 450 76 450 76 451 68 c 128,-1,21
 452 60 452 60 454.5 55.5 c 128,-1,22
 457 51 457 51 460.5 49.5 c 128,-1,23
 464 48 464 48 466 48 c 0,24,25
 476 48 476 48 488.5 51 c 128,-1,26
 501 54 501 54 513.5 58.5 c 128,-1,27
 526 63 526 63 537 68 c 128,-1,28
 548 73 548 73 556 77 c 1,29,-1
 556 28 l 1,30,31
 544 21 544 21 526 13.5 c 128,-1,32
 508 6 508 6 487.5 0 c 128,-1,33
 467 -6 467 -6 446 -9.5 c 128,-1,34
 425 -13 425 -13 406 -13 c 0,35,36
 368 -13 368 -13 346.5 -0.5 c 128,-1,37
 325 12 325 12 317 34 c 1,38,39
 304 24 304 24 289 15.5 c 128,-1,40
 274 7 274 7 258 0.5 c 128,-1,41
 242 -6 242 -6 225.5 -9.5 c 128,-1,42
 209 -13 209 -13 193 -13 c 0,43,44
 150 -13 150 -13 119 3 c 128,-1,45
 88 19 88 19 68.5 45 c 128,-1,46
 49 71 49 71 40 103 c 128,-1,47
 31 135 31 135 31 167 c 0,48,49
 31 205 31 205 39 244.5 c 128,-1,50
 47 284 47 284 63.5 320.5 c 128,-1,51
 80 357 80 357 105 389 c 128,-1,52
 130 421 130 421 163.5 444.5 c 128,-1,53
 197 468 197 468 239 481.5 c 128,-1,54
 281 495 281 495 331 495 c 0,55,56
 349 495 349 495 363.5 491 c 128,-1,57
 378 487 378 487 387 484 c 1,58,-1
 416 657 l 1,59,-1
 327 664 l 1,60,-1
 327 700 l 1,61,-1
 495 731 l 1,62,-1
 562 731 l 1,63,-1
 452 88 l 2,19,20
EndSplineSet
EndChar

StartChar: e
Encoding: 101 101 72
Width: 479
Flags: W
LayerCount: 2
Fore
SplineSet
333 395 m 0,0,1
 333 403 333 403 332 411.5 c 128,-1,2
 331 420 331 420 327.5 426.5 c 128,-1,3
 324 433 324 433 317 437 c 128,-1,4
 310 441 310 441 299 441 c 0,5,6
 276 441 276 441 258 424.5 c 128,-1,7
 240 408 240 408 226 382.5 c 128,-1,8
 212 357 212 357 202 326.5 c 128,-1,9
 192 296 192 296 186 269 c 1,10,11
 211 274 211 274 237.5 285.5 c 128,-1,12
 264 297 264 297 285.5 313 c 128,-1,13
 307 329 307 329 320.5 349 c 128,-1,14
 334 369 334 369 333 395 c 0,0,1
463 390 m 1,15,16
 463 364 463 364 451.5 342 c 128,-1,17
 440 320 440 320 419.5 301.5 c 128,-1,18
 399 283 399 283 371 268.5 c 128,-1,19
 343 254 343 254 311.5 243.5 c 128,-1,20
 280 233 280 233 246 226.5 c 128,-1,21
 212 220 212 220 179 218 c 1,22,23
 179 209 179 209 178.5 197.5 c 128,-1,24
 178 186 178 186 178 178 c 0,25,26
 178 153 178 153 181.5 131.5 c 128,-1,27
 185 110 185 110 193.5 94 c 128,-1,28
 202 78 202 78 216 69 c 128,-1,29
 230 60 230 60 250 60 c 0,30,31
 266 60 266 60 282.5 66 c 128,-1,32
 299 72 299 72 320.5 86.5 c 128,-1,33
 342 101 342 101 371 125 c 128,-1,34
 400 149 400 149 441 184 c 1,35,-1
 441 89 l 1,36,37
 427 75 427 75 404 57.5 c 128,-1,38
 381 40 381 40 351.5 24.5 c 128,-1,39
 322 9 322 9 288 -1 c 128,-1,40
 254 -11 254 -11 218 -11 c 0,41,42
 186 -11 186 -11 154 -3 c 128,-1,43
 122 5 122 5 96.5 25.5 c 128,-1,44
 71 46 71 46 55 81.5 c 128,-1,45
 39 117 39 117 39 172 c 0,46,47
 39 210 39 210 48.5 249 c 128,-1,48
 58 288 58 288 75.5 324 c 128,-1,49
 93 360 93 360 118 391.5 c 128,-1,50
 143 423 143 423 174.5 446 c 128,-1,51
 206 469 206 469 244 482.5 c 128,-1,52
 282 496 282 496 324 496 c 0,53,54
 360 496 360 496 386.5 484 c 128,-1,55
 413 472 413 472 430.5 455.5 c 128,-1,56
 448 439 448 439 456 421.5 c 128,-1,57
 464 404 464 404 463 390 c 1,15,16
EndSplineSet
EndChar

StartChar: f
Encoding: 102 102 73
Width: 361
Flags: W
LayerCount: 2
Fore
SplineSet
481 669 m 1,0,1
 481 658 481 658 478 647.5 c 128,-1,2
 475 637 475 637 465.5 628 c 128,-1,3
 456 619 456 619 439.5 612 c 128,-1,4
 423 605 423 605 397 602 c 1,5,-1
 335 661 l 1,6,7
 315 643 315 643 303 616.5 c 128,-1,8
 291 590 291 590 284 561.5 c 128,-1,9
 277 533 277 533 274 506.5 c 128,-1,10
 271 480 271 480 269 462 c 1,11,-1
 391 462 l 1,12,-1
 391 403 l 1,13,-1
 259 403 l 1,14,15
 258 389 258 389 254.5 361 c 128,-1,16
 251 333 251 333 246 297.5 c 128,-1,17
 241 262 241 262 235 222 c 128,-1,18
 229 182 229 182 223.5 145 c 128,-1,19
 218 108 218 108 213 77 c 128,-1,20
 208 46 208 46 204 29 c 0,21,22
 198 3 198 3 186.5 -26 c 128,-1,23
 175 -55 175 -55 158.5 -83 c 128,-1,24
 142 -111 142 -111 121.5 -136 c 128,-1,25
 101 -161 101 -161 76.5 -180 c 128,-1,26
 52 -199 52 -199 24 -210 c 128,-1,27
 -4 -221 -4 -221 -35 -221 c 0,28,29
 -56 -221 -56 -221 -71.5 -213.5 c 128,-1,30
 -87 -206 -87 -206 -97 -195.5 c 128,-1,31
 -107 -185 -107 -185 -111.5 -173 c 128,-1,32
 -116 -161 -116 -161 -116 -153 c 0,33,34
 -116 -133 -116 -133 -103.5 -113 c 128,-1,35
 -91 -93 -91 -93 -71 -79 c 1,36,-1
 18 -136 l 1,37,38
 29 -120 29 -120 38.5 -98 c 128,-1,39
 48 -76 48 -76 56 -49.5 c 128,-1,40
 64 -23 64 -23 71 7 c 128,-1,41
 78 37 78 37 83 68 c 0,42,43
 95 137 95 137 105 220.5 c 128,-1,44
 115 304 115 304 129 399 c 1,45,-1
 53 392 l 1,46,-1
 54 438 l 1,47,-1
 139 467 l 1,48,49
 143 491 143 491 151 520.5 c 128,-1,50
 159 550 159 550 172 580 c 128,-1,51
 185 610 185 610 203 638 c 128,-1,52
 221 666 221 666 245.5 687.5 c 128,-1,53
 270 709 270 709 301.5 722 c 128,-1,54
 333 735 333 735 373 735 c 0,55,56
 400 735 400 735 420.5 728.5 c 128,-1,57
 441 722 441 722 455 712 c 128,-1,58
 469 702 469 702 476 690.5 c 128,-1,59
 483 679 483 679 481 669 c 1,0,1
EndSplineSet
EndChar

StartChar: g
Encoding: 103 103 74
Width: 485
Flags: W
LayerCount: 2
Fore
SplineSet
325 -83 m 0,0,1
 325 -66 325 -66 314.5 -51 c 128,-1,2
 304 -36 304 -36 277 -24 c 2,3,-1
 166 24 l 1,4,5
 150 18 150 18 139 9 c 128,-1,6
 128 0 128 0 121 -11 c 128,-1,7
 114 -22 114 -22 111.5 -35 c 128,-1,8
 109 -48 109 -48 109 -61 c 0,9,10
 109 -77 109 -77 113.5 -96 c 128,-1,11
 118 -115 118 -115 129.5 -131.5 c 128,-1,12
 141 -148 141 -148 161 -159 c 128,-1,13
 181 -170 181 -170 211 -170 c 0,14,15
 245 -170 245 -170 267 -160.5 c 128,-1,16
 289 -151 289 -151 302 -137.5 c 128,-1,17
 315 -124 315 -124 320 -109 c 128,-1,18
 325 -94 325 -94 325 -83 c 0,0,1
314 360 m 0,19,20
 314 377 314 377 314 393 c 128,-1,21
 314 409 314 409 310.5 421 c 128,-1,22
 307 433 307 433 299.5 440 c 128,-1,23
 292 447 292 447 278 447 c 0,24,25
 270 447 270 447 255.5 435.5 c 128,-1,26
 241 424 241 424 226.5 403 c 128,-1,27
 212 382 212 382 201.5 352 c 128,-1,28
 191 322 191 322 191 286 c 0,29,30
 191 269 191 269 192 255 c 128,-1,31
 193 241 193 241 196.5 231 c 128,-1,32
 200 221 200 221 207 215.5 c 128,-1,33
 214 210 214 210 226 210 c 0,34,35
 250 210 250 210 267 225 c 128,-1,36
 284 240 284 240 294 263 c 128,-1,37
 304 286 304 286 308.5 312.5 c 128,-1,38
 313 339 313 339 314 360 c 0,19,20
439 419 m 1,39,40
 443 408 443 408 446 392 c 128,-1,41
 449 376 449 376 449 358 c 0,42,43
 449 321 449 321 435 286 c 128,-1,44
 421 251 421 251 393 224 c 128,-1,45
 365 197 365 197 323.5 180.5 c 128,-1,46
 282 164 282 164 228 164 c 1,47,48
 223 150 223 150 221 136 c 128,-1,49
 219 122 219 122 220 114 c 1,50,-1
 352 54 l 2,51,52
 375 44 375 44 394.5 34 c 128,-1,53
 414 24 414 24 427.5 11.5 c 128,-1,54
 441 -1 441 -1 448.5 -17 c 128,-1,55
 456 -33 456 -33 456 -54 c 0,56,57
 456 -85 456 -85 434.5 -114.5 c 128,-1,58
 413 -144 413 -144 375.5 -167 c 128,-1,59
 338 -190 338 -190 288 -204 c 128,-1,60
 238 -218 238 -218 182 -218 c 0,61,62
 123 -218 123 -218 82.5 -205 c 128,-1,63
 42 -192 42 -192 16.5 -171 c 128,-1,64
 -9 -150 -9 -150 -20 -123.5 c 128,-1,65
 -31 -97 -31 -97 -31 -71 c 0,66,67
 -31 -46 -31 -46 -21 -25 c 128,-1,68
 -11 -4 -11 -4 7 13.5 c 128,-1,69
 25 31 25 31 49 44 c 128,-1,70
 73 57 73 57 101 66 c 1,71,72
 100 77 100 77 102 91.5 c 128,-1,73
 104 106 104 106 109 121 c 128,-1,74
 114 136 114 136 121.5 150 c 128,-1,75
 129 164 129 164 138 174 c 1,76,77
 118 183 118 183 101.5 194.5 c 128,-1,78
 85 206 85 206 73 221 c 128,-1,79
 61 236 61 236 54.5 255 c 128,-1,80
 48 274 48 274 48 297 c 256,81,82
 48 320 48 320 53.5 344 c 128,-1,83
 59 368 59 368 71 390 c 128,-1,84
 83 412 83 412 101 431.5 c 128,-1,85
 119 451 119 451 144 465.5 c 128,-1,86
 169 480 169 480 200.5 488.5 c 128,-1,87
 232 497 232 497 270 497 c 0,88,89
 289 497 289 497 306 494.5 c 128,-1,90
 323 492 323 492 337.5 488 c 128,-1,91
 352 484 352 484 363 480 c 128,-1,92
 374 476 374 476 381 474 c 1,93,-1
 526 474 l 1,94,-1
 526 416 l 1,95,-1
 439 419 l 1,39,40
EndSplineSet
EndChar

StartChar: h
Encoding: 104 104 75
Width: 564
Flags: W
LayerCount: 2
Fore
SplineSet
562 27 m 1,0,1
 525 9 525 9 487 -1.5 c 128,-1,2
 449 -12 449 -12 410 -12 c 0,3,4
 393 -12 393 -12 375 -8.5 c 128,-1,5
 357 -5 357 -5 343 3 c 128,-1,6
 329 11 329 11 322 24 c 128,-1,7
 315 37 315 37 318 56 c 2,8,-1
 378 347 l 2,9,10
 381 365 381 365 379 378.5 c 128,-1,11
 377 392 377 392 372 401.5 c 128,-1,12
 367 411 367 411 359.5 415.5 c 128,-1,13
 352 420 352 420 345 420 c 0,14,15
 334 420 334 420 320 414.5 c 128,-1,16
 306 409 306 409 290.5 399 c 128,-1,17
 275 389 275 389 259 376 c 128,-1,18
 243 363 243 363 228 348 c 1,19,-1
 155 -2 l 1,20,-1
 23 -2 l 1,21,-1
 160 659 l 1,22,-1
 73 666 l 1,23,-1
 73 702 l 1,24,-1
 241 733 l 1,25,-1
 310 733 l 1,26,-1
 250 451 l 1,27,28
 280 469 280 469 318.5 482.5 c 128,-1,29
 357 496 357 496 401 496 c 0,30,31
 438 496 438 496 462.5 486 c 128,-1,32
 487 476 487 476 500.5 457.5 c 128,-1,33
 514 439 514 439 517 413 c 128,-1,34
 520 387 520 387 514 356 c 2,35,-1
 458 92 l 2,36,37
 456 80 456 80 457.5 72 c 128,-1,38
 459 64 459 64 462.5 59 c 128,-1,39
 466 54 466 54 470.5 52 c 128,-1,40
 475 50 475 50 479 50 c 0,41,42
 500 50 500 50 519 57.5 c 128,-1,43
 538 65 538 65 560 77 c 1,44,-1
 562 27 l 1,0,1
EndSplineSet
EndChar

StartChar: i
Encoding: 105 105 76
Width: 310
Flags: W
LayerCount: 2
Fore
SplineSet
308 32 m 1,0,1
 264 8 264 8 223.5 -2 c 128,-1,2
 183 -12 183 -12 141 -12 c 0,3,4
 114 -12 114 -12 95.5 -3 c 128,-1,5
 77 6 77 6 66.5 20.5 c 128,-1,6
 56 35 56 35 53 53 c 128,-1,7
 50 71 50 71 53 89 c 2,8,-1
 115 421 l 1,9,-1
 30 430 l 1,10,-1
 30 464 l 1,11,-1
 195 497 l 1,12,-1
 265 497 l 1,13,-1
 188 97 l 2,14,15
 187 89 187 89 187 81 c 128,-1,16
 187 73 187 73 188.5 67 c 128,-1,17
 190 61 190 61 194.5 57.5 c 128,-1,18
 199 54 199 54 207 54 c 0,19,20
 210 54 210 54 221 56 c 128,-1,21
 232 58 232 58 247 62 c 128,-1,22
 262 66 262 66 278 72 c 128,-1,23
 294 78 294 78 308 85 c 1,24,-1
 308 32 l 1,0,1
295 661 m 256,25,26
 295 645 295 645 289 631 c 128,-1,27
 283 617 283 617 272.5 606.5 c 128,-1,28
 262 596 262 596 248 590 c 128,-1,29
 234 584 234 584 218 584 c 256,30,31
 202 584 202 584 188.5 590 c 128,-1,32
 175 596 175 596 165 606.5 c 128,-1,33
 155 617 155 617 149.5 631 c 128,-1,34
 144 645 144 645 144 661 c 256,35,36
 144 677 144 677 149.5 691 c 128,-1,37
 155 705 155 705 165 715 c 128,-1,38
 175 725 175 725 188.5 731 c 128,-1,39
 202 737 202 737 218 737 c 256,40,41
 234 737 234 737 248 731 c 128,-1,42
 262 725 262 725 272.5 715 c 128,-1,43
 283 705 283 705 289 691 c 128,-1,44
 295 677 295 677 295 661 c 256,25,26
EndSplineSet
EndChar

StartChar: j
Encoding: 106 106 77
Width: 317
Flags: W
LayerCount: 2
Fore
SplineSet
204 83 m 2,0,1
 200 58 200 58 190 25.5 c 128,-1,2
 180 -7 180 -7 164.5 -41.5 c 128,-1,3
 149 -76 149 -76 128.5 -109.5 c 128,-1,4
 108 -143 108 -143 82.5 -169 c 128,-1,5
 57 -195 57 -195 27 -211 c 128,-1,6
 -3 -227 -3 -227 -37 -227 c 0,7,8
 -54 -227 -54 -227 -69.5 -223 c 128,-1,9
 -85 -219 -85 -219 -96.5 -211.5 c 128,-1,10
 -108 -204 -108 -204 -115 -194 c 128,-1,11
 -122 -184 -122 -184 -122 -172 c 0,12,13
 -122 -163 -122 -163 -119 -155.5 c 128,-1,14
 -116 -148 -116 -148 -110.5 -142 c 128,-1,15
 -105 -136 -105 -136 -98 -130.5 c 128,-1,16
 -91 -125 -91 -125 -83 -120 c 1,17,-1
 11 -144 l 1,18,19
 17 -134 17 -134 24 -118.5 c 128,-1,20
 31 -103 31 -103 37.5 -85 c 128,-1,21
 44 -67 44 -67 49 -47.5 c 128,-1,22
 54 -28 54 -28 57 -10 c 2,23,-1
 130 417 l 1,24,-1
 45 426 l 1,25,-1
 45 461 l 1,26,-1
 211 494 l 1,27,-1
 276 494 l 1,28,-1
 204 83 l 2,0,1
312 657 m 256,29,30
 312 641 312 641 306 627 c 128,-1,31
 300 613 300 613 289.5 602.5 c 128,-1,32
 279 592 279 592 265 586 c 128,-1,33
 251 580 251 580 235 580 c 256,34,35
 219 580 219 580 205 586 c 128,-1,36
 191 592 191 592 181 602.5 c 128,-1,37
 171 613 171 613 165 627 c 128,-1,38
 159 641 159 641 159 657 c 256,39,40
 159 673 159 673 165 687 c 128,-1,41
 171 701 171 701 181 711 c 128,-1,42
 191 721 191 721 205 727 c 128,-1,43
 219 733 219 733 235 733 c 256,44,45
 251 733 251 733 265 727 c 128,-1,46
 279 721 279 721 289.5 711 c 128,-1,47
 300 701 300 701 306 687 c 128,-1,48
 312 673 312 673 312 657 c 256,29,30
EndSplineSet
EndChar

StartChar: k
Encoding: 107 107 78
Width: 549
Flags: W
LayerCount: 2
Fore
SplineSet
538 25 m 1,0,1
 526 19 526 19 508.5 12.5 c 128,-1,2
 491 6 491 6 471.5 1 c 128,-1,3
 452 -4 452 -4 432 -7.5 c 128,-1,4
 412 -11 412 -11 395 -11 c 0,5,6
 382 -11 382 -11 368 -6.5 c 128,-1,7
 354 -2 354 -2 341 5.5 c 128,-1,8
 328 13 328 13 317.5 22.5 c 128,-1,9
 307 32 307 32 301 42 c 0,10,11
 293 54 293 54 282 76 c 128,-1,12
 271 98 271 98 259 123.5 c 128,-1,13
 247 149 247 149 235.5 174.5 c 128,-1,14
 224 200 224 200 215 220 c 1,15,-1
 195 201 l 1,16,-1
 154 -4 l 1,17,-1
 22 -4 l 1,18,-1
 155 657 l 1,19,-1
 68 664 l 1,20,-1
 68 700 l 1,21,-1
 236 731 l 1,22,-1
 303 731 l 1,23,-1
 220 321 l 1,24,-1
 332 435 l 1,25,26
 362 467 362 467 389 480 c 128,-1,27
 416 493 416 493 445 493 c 0,28,29
 463 493 463 493 478.5 488 c 128,-1,30
 494 483 494 483 505 474.5 c 128,-1,31
 516 466 516 466 522 456 c 128,-1,32
 528 446 528 446 528 436 c 0,33,34
 528 428 528 428 526 415.5 c 128,-1,35
 524 403 524 403 516 390 c 128,-1,36
 508 377 508 377 491.5 364.5 c 128,-1,37
 475 352 475 352 447 343 c 1,38,-1
 407 407 l 1,39,40
 396 397 396 397 382.5 384.5 c 128,-1,41
 369 372 369 372 356 359.5 c 128,-1,42
 343 347 343 347 331 335.5 c 128,-1,43
 319 324 319 324 310 316 c 1,44,45
 316 304 316 304 324 284.5 c 128,-1,46
 332 265 332 265 341 243 c 128,-1,47
 350 221 350 221 360 198 c 128,-1,48
 370 175 370 175 381 155 c 0,49,50
 391 136 391 136 400.5 118 c 128,-1,51
 410 100 410 100 419.5 86 c 128,-1,52
 429 72 429 72 439.5 63.5 c 128,-1,53
 450 55 450 55 462 55 c 1,54,55
 462 55 462 55 481 60.5 c 128,-1,56
 500 66 500 66 542 83 c 1,57,-1
 538 25 l 1,0,1
EndSplineSet
EndChar

StartChar: l
Encoding: 108 108 79
Width: 306
Flags: W
LayerCount: 2
Fore
SplineSet
304 28 m 1,0,1
 268 10 268 10 226 -1 c 128,-1,2
 184 -12 184 -12 145 -12 c 0,3,4
 96 -12 96 -12 68.5 8.5 c 128,-1,5
 41 29 41 29 41 63 c 0,6,7
 41 71 41 71 41.5 80 c 128,-1,8
 42 89 42 89 44 98 c 2,9,-1
 152 659 l 1,10,-1
 65 666 l 1,11,-1
 65 702 l 1,12,-1
 233 733 l 1,13,-1
 298 733 l 1,14,-1
 175 99 l 2,15,16
 174 91 174 91 174 82.5 c 128,-1,17
 174 74 174 74 176.5 67 c 128,-1,18
 179 60 179 60 184.5 56 c 128,-1,19
 190 52 190 52 199 52 c 0,20,21
 210 52 210 52 237 59 c 128,-1,22
 264 66 264 66 299 81 c 1,23,-1
 304 28 l 1,0,1
EndSplineSet
EndChar

StartChar: m
Encoding: 109 109 80
Width: 826
Flags: W
LayerCount: 2
Fore
SplineSet
823 28 m 1,0,1
 785 9 785 9 750 -1.5 c 128,-1,2
 715 -12 715 -12 677 -12 c 0,3,4
 655 -12 655 -12 635.5 -7.5 c 128,-1,5
 616 -3 616 -3 602 6.5 c 128,-1,6
 588 16 588 16 581.5 29.5 c 128,-1,7
 575 43 575 43 578 61 c 2,8,-1
 632 327 l 1,9,10
 652 420 652 420 613 420 c 0,11,12
 592 420 592 420 573 410.5 c 128,-1,13
 554 401 554 401 539.5 388 c 128,-1,14
 525 375 525 375 514.5 361.5 c 128,-1,15
 504 348 504 348 500 340 c 1,16,-1
 428 0 l 1,17,-1
 297 0 l 1,18,-1
 365 329 l 2,19,20
 367 343 367 343 369.5 359 c 128,-1,21
 372 375 372 375 371 388.5 c 128,-1,22
 370 402 370 402 363.5 411 c 128,-1,23
 357 420 357 420 341 420 c 0,24,25
 326 420 326 420 310 411.5 c 128,-1,26
 294 403 294 403 279.5 390.5 c 128,-1,27
 265 378 265 378 252.5 364 c 128,-1,28
 240 350 240 350 231 339 c 1,29,-1
 160 1 l 1,30,-1
 28 1 l 1,31,-1
 115 425 l 1,32,-1
 32 433 l 1,33,-1
 32 466 l 1,34,-1
 197 499 l 1,35,-1
 265 499 l 1,36,-1
 254 442 l 1,37,38
 290 466 290 466 328 482 c 128,-1,39
 366 498 366 498 400 498 c 0,40,41
 420 498 420 498 436 492.5 c 128,-1,42
 452 487 452 487 464.5 477.5 c 128,-1,43
 477 468 477 468 485.5 456 c 128,-1,44
 494 444 494 444 499 432 c 1,45,46
 518 446 518 446 539.5 458 c 128,-1,47
 561 470 561 470 583 479 c 128,-1,48
 605 488 605 488 626.5 493 c 128,-1,49
 648 498 648 498 667 498 c 0,50,51
 693 498 693 498 715 489 c 128,-1,52
 737 480 737 480 752 463 c 128,-1,53
 767 446 767 446 772.5 422 c 128,-1,54
 778 398 778 398 772 369 c 2,55,-1
 715 100 l 2,56,57
 711 79 711 79 716 65 c 128,-1,58
 721 51 721 51 740 51 c 0,59,60
 744 51 744 51 753.5 52.5 c 128,-1,61
 763 54 763 54 774.5 57 c 128,-1,62
 786 60 786 60 798 64.5 c 128,-1,63
 810 69 810 69 820 74 c 1,64,-1
 823 28 l 1,0,1
EndSplineSet
EndChar

StartChar: n
Encoding: 110 110 81
Width: 578
Flags: W
LayerCount: 2
Fore
SplineSet
574 22 m 1,0,1
 561 16 561 16 541.5 10 c 128,-1,2
 522 4 522 4 500.5 -0.5 c 128,-1,3
 479 -5 479 -5 457.5 -8 c 128,-1,4
 436 -11 436 -11 419 -11 c 0,5,6
 403 -11 403 -11 384 -9 c 128,-1,7
 365 -7 365 -7 349.5 -0.5 c 128,-1,8
 334 6 334 6 325 18 c 128,-1,9
 316 30 316 30 319 50 c 2,10,-1
 380 355 l 2,11,12
 383 373 383 373 383 385 c 128,-1,13
 383 397 383 397 379.5 404.5 c 128,-1,14
 376 412 376 412 370 415 c 128,-1,15
 364 418 364 418 357 418 c 0,16,17
 346 418 346 418 331 411.5 c 128,-1,18
 316 405 316 405 299.5 394 c 128,-1,19
 283 383 283 383 266 368.5 c 128,-1,20
 249 354 249 354 234 338 c 1,21,-1
 164 0 l 1,22,-1
 31 0 l 1,23,-1
 118 424 l 1,24,-1
 35 432 l 1,25,-1
 35 465 l 1,26,-1
 199 498 l 1,27,-1
 268 498 l 1,28,-1
 256 440 l 1,29,30
 274 452 274 452 294 462.5 c 128,-1,31
 314 473 314 473 334.5 480.5 c 128,-1,32
 355 488 355 488 375.5 492 c 128,-1,33
 396 496 396 496 415 496 c 0,34,35
 452 496 452 496 476 487.5 c 128,-1,36
 500 479 500 479 512 462.5 c 128,-1,37
 524 446 524 446 526 422 c 128,-1,38
 528 398 528 398 523 367 c 2,39,-1
 469 86 l 2,40,41
 467 74 467 74 469 66.5 c 128,-1,42
 471 59 471 59 475 55 c 128,-1,43
 479 51 479 51 483.5 50 c 128,-1,44
 488 49 488 49 491 49 c 0,45,46
 506 49 506 49 528 55 c 128,-1,47
 550 61 550 61 572 70 c 1,48,-1
 574 22 l 1,0,1
EndSplineSet
EndChar

StartChar: o
Encoding: 111 111 82
Width: 553
Flags: W
LayerCount: 2
Fore
SplineSet
377 307 m 0,0,1
 377 343 377 343 370 369 c 128,-1,2
 363 395 363 395 353 412 c 128,-1,3
 343 429 343 429 331.5 437 c 128,-1,4
 320 445 320 445 311 445 c 0,5,6
 296 445 296 445 280.5 435 c 128,-1,7
 265 425 265 425 250.5 407.5 c 128,-1,8
 236 390 236 390 223 365.5 c 128,-1,9
 210 341 210 341 200 312 c 128,-1,10
 190 283 190 283 184.5 251 c 128,-1,11
 179 219 179 219 179 186 c 0,12,13
 179 148 179 148 186.5 121 c 128,-1,14
 194 94 194 94 204.5 77.5 c 128,-1,15
 215 61 215 61 226.5 53.5 c 128,-1,16
 238 46 238 46 246 46 c 0,17,18
 272 46 272 46 296 69.5 c 128,-1,19
 320 93 320 93 338.5 131 c 128,-1,20
 357 169 357 169 367.5 215.5 c 128,-1,21
 378 262 378 262 377 307 c 0,0,1
522 304 m 1,22,23
 522 265 522 265 513.5 226.5 c 128,-1,24
 505 188 505 188 488 153.5 c 128,-1,25
 471 119 471 119 446.5 89 c 128,-1,26
 422 59 422 59 390 37.5 c 128,-1,27
 358 16 358 16 319 4 c 128,-1,28
 280 -8 280 -8 235 -8 c 0,29,30
 184 -8 184 -8 146.5 6.5 c 128,-1,31
 109 21 109 21 84.5 46.5 c 128,-1,32
 60 72 60 72 48.5 107 c 128,-1,33
 37 142 37 142 37 183 c 0,34,35
 37 222 37 222 45.5 260.5 c 128,-1,36
 54 299 54 299 70 334.5 c 128,-1,37
 86 370 86 370 110 400 c 128,-1,38
 134 430 134 430 165.5 452 c 128,-1,39
 197 474 197 474 236 486.5 c 128,-1,40
 275 499 275 499 321 499 c 0,41,42
 366 499 366 499 403 487 c 128,-1,43
 440 475 440 475 466 450.5 c 128,-1,44
 492 426 492 426 506 389.5 c 128,-1,45
 520 353 520 353 522 304 c 1,22,23
EndSplineSet
EndChar

StartChar: p
Encoding: 112 112 83
Width: 541
Flags: W
LayerCount: 2
Fore
SplineSet
369 307 m 0,0,1
 369 327 369 327 367.5 348.5 c 128,-1,2
 366 370 366 370 360 387.5 c 128,-1,3
 354 405 354 405 342.5 416 c 128,-1,4
 331 427 331 427 312 427 c 0,5,6
 302 427 302 427 290 421.5 c 128,-1,7
 278 416 278 416 266 407.5 c 128,-1,8
 254 399 254 399 243.5 390 c 128,-1,9
 233 381 233 381 226 375 c 1,10,-1
 165 67 l 1,11,12
 170 64 170 64 177.5 59.5 c 128,-1,13
 185 55 185 55 193 51.5 c 128,-1,14
 201 48 201 48 209 45.5 c 128,-1,15
 217 43 217 43 223 43 c 0,16,17
 243 43 243 43 262 54 c 128,-1,18
 281 65 281 65 297.5 85 c 128,-1,19
 314 105 314 105 327.5 131 c 128,-1,20
 341 157 341 157 350.5 186.5 c 128,-1,21
 360 216 360 216 365 247 c 128,-1,22
 370 278 370 278 369 307 c 0,0,1
509 311 m 1,23,24
 509 271 509 271 499.5 231.5 c 128,-1,25
 490 192 490 192 472 156.5 c 128,-1,26
 454 121 454 121 427.5 90.5 c 128,-1,27
 401 60 401 60 367 38 c 128,-1,28
 333 16 333 16 291.5 3.5 c 128,-1,29
 250 -9 250 -9 203 -9 c 0,30,31
 185 -9 185 -9 171.5 -6.5 c 128,-1,32
 158 -4 158 -4 149 -2 c 1,33,-1
 119 -149 l 2,34,35
 118 -155 118 -155 122 -159.5 c 128,-1,36
 126 -164 126 -164 134 -164 c 0,37,38
 140 -164 140 -164 150 -164 c 0,39,40
 158 -164 158 -164 170.5 -164.5 c 128,-1,41
 183 -165 183 -165 200 -166 c 1,42,-1
 200 -211 l 1,43,-1
 -94 -211 l 1,44,-1
 -94 -166 l 1,45,46
 -87 -166 -87 -166 -77 -166 c 128,-1,47
 -67 -166 -67 -166 -58 -166 c 0,48,49
 -48 -166 -48 -166 -37 -166 c 0,50,51
 -30 -166 -30 -166 -26.5 -161.5 c 128,-1,52
 -23 -157 -23 -157 -22 -151 c 2,53,-1
 91 424 l 1,54,-1
 8 433 l 1,55,-1
 8 466 l 1,56,-1
 172 499 l 1,57,-1
 239 499 l 1,58,-1
 232 462 l 1,59,60
 239 466 239 466 251 472 c 128,-1,61
 263 478 263 478 278.5 483.5 c 128,-1,62
 294 489 294 489 312 493 c 128,-1,63
 330 497 330 497 350 497 c 0,64,65
 389 497 389 497 417.5 480.5 c 128,-1,66
 446 464 446 464 464.5 437.5 c 128,-1,67
 483 411 483 411 492 377.5 c 128,-1,68
 501 344 501 344 509 311 c 1,23,24
EndSplineSet
EndChar

StartChar: q
Encoding: 113 113 84
Width: 569
Flags: W
LayerCount: 2
Fore
SplineSet
382 390 m 2,0,1
 383 394 383 394 380.5 403 c 128,-1,2
 378 412 378 412 373.5 421 c 128,-1,3
 369 430 369 430 363 436.5 c 128,-1,4
 357 443 357 443 352 443 c 0,5,6
 321 443 321 443 289 423.5 c 128,-1,7
 257 404 257 404 231.5 369 c 128,-1,8
 206 334 206 334 190 284.5 c 128,-1,9
 174 235 174 235 174 175 c 0,10,11
 174 149 174 149 176.5 127.5 c 128,-1,12
 179 106 179 106 185.5 91 c 128,-1,13
 192 76 192 76 203.5 67.5 c 128,-1,14
 215 59 215 59 233 59 c 0,15,16
 248 59 248 59 260.5 64.5 c 128,-1,17
 273 70 273 70 284 78.5 c 128,-1,18
 295 87 295 87 305 97 c 128,-1,19
 315 107 315 107 325 116 c 1,20,-1
 382 390 l 2,0,1
405 -151 m 2,21,22
 404 -157 404 -157 406 -161.5 c 128,-1,23
 408 -166 408 -166 416 -166 c 256,24,25
 424 -166 424 -166 434 -166 c 0,26,27
 443 -166 443 -166 456 -166.5 c 128,-1,28
 469 -167 469 -167 486 -168 c 1,29,-1
 486 -213 l 1,30,-1
 192 -213 l 1,31,-1
 192 -168 l 1,32,33
 198 -168 198 -168 208 -167.5 c 128,-1,34
 218 -167 218 -167 227 -167 c 0,35,36
 238 -166 238 -166 250 -166 c 0,37,38
 264 -165 264 -165 266 -151 c 2,39,-1
 301 22 l 1,40,41
 271 5 271 5 241.5 -4.5 c 128,-1,42
 212 -14 212 -14 185 -14 c 0,43,44
 145 -14 145 -14 115.5 -1.5 c 128,-1,45
 86 11 86 11 66.5 34.5 c 128,-1,46
 47 58 47 58 37.5 92 c 128,-1,47
 28 126 28 126 28 168 c 0,48,49
 28 205 28 205 36.5 243.5 c 128,-1,50
 45 282 45 282 62.5 318.5 c 128,-1,51
 80 355 80 355 105.5 387 c 128,-1,52
 131 419 131 419 164.5 443 c 128,-1,53
 198 467 198 467 239.5 480.5 c 128,-1,54
 281 494 281 494 329 494 c 0,55,56
 353 494 353 494 375 489 c 128,-1,57
 397 484 397 484 414 477 c 1,58,-1
 430 495 l 1,59,-1
 527 495 l 1,60,-1
 405 -151 l 2,21,22
EndSplineSet
EndChar

StartChar: r
Encoding: 114 114 85
Width: 418
Flags: W
LayerCount: 2
Fore
SplineSet
456 429 m 1,0,1
 456 395 456 395 434.5 378 c 128,-1,2
 413 361 413 361 362 361 c 1,3,-1
 336 415 l 1,4,5
 313 404 313 404 292 388 c 128,-1,6
 271 372 271 372 254.5 352.5 c 128,-1,7
 238 333 238 333 226.5 311.5 c 128,-1,8
 215 290 215 290 211 268 c 2,9,-1
 155 4 l 1,10,-1
 23 4 l 1,11,-1
 110 426 l 1,12,-1
 27 435 l 1,13,-1
 27 469 l 1,14,-1
 193 502 l 1,15,-1
 261 502 l 1,16,-1
 249 436 l 1,17,18
 262 449 262 449 277.5 461 c 128,-1,19
 293 473 293 473 310.5 482 c 128,-1,20
 328 491 328 491 346.5 496 c 128,-1,21
 365 501 365 501 383 501 c 0,22,23
 402 501 402 501 416 494 c 128,-1,24
 430 487 430 487 439 477 c 128,-1,25
 448 467 448 467 452.5 455 c 128,-1,26
 457 443 457 443 456 429 c 1,0,1
EndSplineSet
EndChar

StartChar: s
Encoding: 115 115 86
Width: 415
Flags: W
LayerCount: 2
Fore
SplineSet
394 422 m 1,0,1
 394 389 394 389 375 373 c 128,-1,2
 356 357 356 357 311 355 c 1,3,-1
 260 441 l 1,4,5
 257 441 257 441 254 441 c 256,6,7
 251 441 251 441 246.5 441 c 128,-1,8
 242 441 242 441 237 441 c 0,9,10
 222 441 222 441 214 435 c 128,-1,11
 206 429 206 429 202 420 c 128,-1,12
 198 411 198 411 197.5 400.5 c 128,-1,13
 197 390 197 390 197 381 c 0,14,15
 197 366 197 366 204.5 351.5 c 128,-1,16
 212 337 212 337 224.5 323.5 c 128,-1,17
 237 310 237 310 252.5 297 c 128,-1,18
 268 284 268 284 284 272 c 0,19,20
 301 259 301 259 316.5 245.5 c 128,-1,21
 332 232 332 232 344 217 c 128,-1,22
 356 202 356 202 363 185.5 c 128,-1,23
 370 169 370 169 370 151 c 0,24,25
 370 123 370 123 356.5 94.5 c 128,-1,26
 343 66 343 66 315.5 43.5 c 128,-1,27
 288 21 288 21 246.5 7 c 128,-1,28
 205 -7 205 -7 149 -7 c 0,29,30
 110 -7 110 -7 81.5 1 c 128,-1,31
 53 9 53 9 34.5 22 c 128,-1,32
 16 35 16 35 7 52 c 128,-1,33
 -2 69 -2 69 -2 87 c 0,34,35
 -2 100 -2 100 2.5 112 c 128,-1,36
 7 124 7 124 15 133.5 c 128,-1,37
 23 143 23 143 32.5 148.5 c 128,-1,38
 42 154 42 154 52 154 c 0,39,40
 73 154 73 154 88 147.5 c 128,-1,41
 103 141 103 141 112 131 c 1,42,-1
 94 72 l 1,43,44
 99 65 99 65 108.5 59.5 c 128,-1,45
 118 54 118 54 129 50.5 c 128,-1,46
 140 47 140 47 151.5 45.5 c 128,-1,47
 163 44 163 44 173 44 c 0,48,49
 203 44 203 44 217.5 64.5 c 128,-1,50
 232 85 232 85 232 120 c 0,51,52
 232 135 232 135 226.5 148 c 128,-1,53
 221 161 221 161 210.5 173.5 c 128,-1,54
 200 186 200 186 185 198 c 128,-1,55
 170 210 170 210 152 224 c 0,56,57
 137 235 137 235 122.5 249 c 128,-1,58
 108 263 108 263 96.5 278.5 c 128,-1,59
 85 294 85 294 78 311.5 c 128,-1,60
 71 329 71 329 71 348 c 0,61,62
 71 383 71 383 87.5 411 c 128,-1,63
 104 439 104 439 131.5 459 c 128,-1,64
 159 479 159 479 195.5 489.5 c 128,-1,65
 232 500 232 500 272 500 c 0,66,67
 303 500 303 500 325.5 491.5 c 128,-1,68
 348 483 348 483 363 471.5 c 128,-1,69
 378 460 378 460 385 447 c 128,-1,70
 392 434 392 434 394 422 c 1,0,1
EndSplineSet
EndChar

StartChar: t
Encoding: 116 116 87
Width: 344
Flags: W
LayerCount: 2
Fore
SplineSet
244 417 m 1,0,-1
 182 108 l 2,1,2
 177 85 177 85 187 71 c 128,-1,3
 197 57 197 57 220 57 c 0,4,5
 231 57 231 57 247 60.5 c 128,-1,6
 263 64 263 64 280.5 69 c 128,-1,7
 298 74 298 74 314.5 80 c 128,-1,8
 331 86 331 86 343 89 c 1,9,-1
 343 35 l 1,10,11
 335 32 335 32 314.5 24 c 128,-1,12
 294 16 294 16 267.5 8 c 128,-1,13
 241 0 241 0 212.5 -6 c 128,-1,14
 184 -12 184 -12 161 -12 c 0,15,16
 133 -12 133 -12 112 -5.5 c 128,-1,17
 91 1 91 1 77 12.5 c 128,-1,18
 63 24 63 24 56 40.5 c 128,-1,19
 49 57 49 57 49 76 c 0,20,21
 49 85 49 85 49.5 94.5 c 128,-1,22
 50 104 50 104 52 114 c 2,23,-1
 113 411 l 1,24,-1
 42 404 l 1,25,-1
 42 445 l 1,26,-1
 126 478 l 1,27,-1
 176 581 l 1,28,-1
 276 581 l 1,29,-1
 256 469 l 1,30,-1
 395 469 l 1,31,-1
 395 414 l 1,32,-1
 244 417 l 1,0,-1
EndSplineSet
EndChar

StartChar: u
Encoding: 117 117 88
Width: 574
Flags: W
LayerCount: 2
Fore
SplineSet
571 27 m 1,0,1
 561 22 561 22 543.5 15 c 128,-1,2
 526 8 526 8 504.5 2 c 128,-1,3
 483 -4 483 -4 460 -8 c 128,-1,4
 437 -12 437 -12 416 -12 c 0,5,6
 391 -12 391 -12 375 -7 c 128,-1,7
 359 -2 359 -2 350 5.5 c 128,-1,8
 341 13 341 13 337.5 21 c 128,-1,9
 334 29 334 29 334 34 c 1,10,11
 301 12 301 12 262.5 0 c 128,-1,12
 224 -12 224 -12 176 -12 c 0,13,14
 139 -12 139 -12 113.5 0.5 c 128,-1,15
 88 13 88 13 73.5 32 c 128,-1,16
 59 51 59 51 54.5 73.5 c 128,-1,17
 50 96 50 96 54 116 c 2,18,-1
 118 422 l 1,19,-1
 35 431 l 1,20,-1
 35 464 l 1,21,-1
 200 497 l 1,22,-1
 269 497 l 1,23,-1
 187 115 l 2,24,25
 185 104 185 104 186 93.5 c 128,-1,26
 187 83 187 83 191 75 c 128,-1,27
 195 67 195 67 202 62.5 c 128,-1,28
 209 58 209 58 218 58 c 0,29,30
 234 58 234 58 249.5 62.5 c 128,-1,31
 265 67 265 67 279.5 75 c 128,-1,32
 294 83 294 83 308 93.5 c 128,-1,33
 322 104 322 104 335 116 c 1,34,-1
 413 485 l 1,35,-1
 545 485 l 1,36,-1
 463 98 l 2,37,38
 458 71 458 71 466 59 c 128,-1,39
 474 47 474 47 489 47 c 0,40,41
 492 47 492 47 497 48 c 128,-1,42
 502 49 502 49 511 52.5 c 128,-1,43
 520 56 520 56 534 63 c 128,-1,44
 548 70 548 70 570 82 c 1,45,-1
 571 27 l 1,0,1
EndSplineSet
EndChar

StartChar: v
Encoding: 118 118 89
Width: 508
Flags: W
LayerCount: 2
Fore
SplineSet
514 436 m 1,0,1
 514 424 514 424 512 412.5 c 128,-1,2
 510 401 510 401 507 391.5 c 128,-1,3
 504 382 504 382 500.5 374.5 c 128,-1,4
 497 367 497 367 495 363 c 0,5,6
 462 302 462 302 423.5 246.5 c 128,-1,7
 385 191 385 191 347.5 143.5 c 128,-1,8
 310 96 310 96 276.5 57.5 c 128,-1,9
 243 19 243 19 219 -7 c 1,10,-1
 122 -7 l 1,11,12
 134 18 134 18 139.5 37 c 128,-1,13
 145 56 145 56 145 72 c 0,14,15
 145 73 145 73 144.5 86 c 128,-1,16
 144 99 144 99 142.5 119.5 c 128,-1,17
 141 140 141 140 139 167 c 128,-1,18
 137 194 137 194 134.5 222.5 c 128,-1,19
 132 251 132 251 129 280 c 128,-1,20
 126 309 126 309 122.5 334 c 128,-1,21
 119 359 119 359 115.5 378.5 c 128,-1,22
 112 398 112 398 109 407 c 0,23,24
 107 412 107 412 105.5 415 c 128,-1,25
 104 418 104 418 102 419.5 c 128,-1,26
 100 421 100 421 96.5 421 c 128,-1,27
 93 421 93 421 87 421 c 0,28,29
 77 421 77 421 66 421 c 0,30,31
 57 421 57 421 45 421 c 128,-1,32
 33 421 33 421 21 421 c 1,33,-1
 21 456 l 1,34,-1
 140 491 l 1,35,36
 191 491 191 491 219 473 c 128,-1,37
 247 455 247 455 250 417 c 2,38,-1
 277 160 l 1,39,40
 295 184 295 184 312 206 c 128,-1,41
 329 228 329 228 344 249.5 c 128,-1,42
 359 271 359 271 371.5 292.5 c 128,-1,43
 384 314 384 314 393 337 c 1,44,-1
 366 463 l 1,45,46
 378 475 378 475 399 481.5 c 128,-1,47
 420 488 420 488 443 488 c 0,48,49
 460 488 460 488 475 484 c 128,-1,50
 490 480 490 480 501 471.5 c 128,-1,51
 512 463 512 463 518 451.5 c 128,-1,52
 524 440 524 440 514 436 c 1,0,1
EndSplineSet
EndChar

StartChar: w
Encoding: 119 119 90
Width: 750
Flags: W
LayerCount: 2
Fore
SplineSet
754 437 m 1,0,1
 754 417 754 417 743.5 388 c 128,-1,2
 733 359 733 359 715.5 325.5 c 128,-1,3
 698 292 698 292 675.5 256 c 128,-1,4
 653 220 653 220 628.5 184.5 c 128,-1,5
 604 149 604 149 580 117 c 128,-1,6
 556 85 556 85 536 59 c 128,-1,7
 516 33 516 33 502 15.5 c 128,-1,8
 488 -2 488 -2 484 -7 c 1,9,-1
 385 -7 l 1,10,-1
 365 279 l 1,11,12
 346 241 346 241 325.5 202 c 128,-1,13
 305 163 305 163 284 126 c 128,-1,14
 263 89 263 89 243 55.5 c 128,-1,15
 223 22 223 22 205 -5 c 1,16,-1
 102 -5 l 1,17,-1
 112 22 l 1,18,-1
 86 430 l 1,19,-1
 10 438 l 1,20,-1
 10 469 l 1,21,-1
 144 505 l 1,22,-1
 215 493 l 1,23,-1
 234 192 l 1,24,25
 251 225 251 225 268.5 261 c 128,-1,26
 286 297 286 297 303 333.5 c 128,-1,27
 320 370 320 370 336.5 407 c 128,-1,28
 353 444 353 444 368 480 c 1,29,-1
 481 491 l 1,30,-1
 504 140 l 1,31,32
 521 164 521 164 540.5 192.5 c 128,-1,33
 560 221 560 221 579 250.5 c 128,-1,34
 598 280 598 280 615 309.5 c 128,-1,35
 632 339 632 339 644 365 c 1,36,-1
 606 471 l 1,37,38
 607 473 607 473 612 478 c 128,-1,39
 617 483 617 483 625 487.5 c 128,-1,40
 633 492 633 492 644 495.5 c 128,-1,41
 655 499 655 499 670 499 c 0,42,43
 690 499 690 499 705 492 c 128,-1,44
 720 485 720 485 730 475 c 128,-1,45
 740 465 740 465 745 454.5 c 128,-1,46
 750 444 750 444 754 437 c 1,0,1
EndSplineSet
EndChar

StartChar: x
Encoding: 120 120 91
Width: 576
Flags: W
LayerCount: 2
Fore
SplineSet
585 437 m 1,0,1
 585 428 585 428 584 415 c 128,-1,2
 583 402 583 402 576.5 390.5 c 128,-1,3
 570 379 570 379 556 371 c 128,-1,4
 542 363 542 363 517 363 c 1,5,-1
 474 415 l 1,6,7
 462 407 462 407 446 392 c 128,-1,8
 430 377 430 377 413.5 357 c 128,-1,9
 397 337 397 337 381.5 312.5 c 128,-1,10
 366 288 366 288 355 260 c 1,11,12
 357 252 357 252 362 236.5 c 128,-1,13
 367 221 367 221 373.5 202.5 c 128,-1,14
 380 184 380 184 387 165 c 128,-1,15
 394 146 394 146 400 131 c 256,16,17
 406 116 406 116 411 103 c 128,-1,18
 416 90 416 90 421 80 c 128,-1,19
 426 70 426 70 432 64.5 c 128,-1,20
 438 59 438 59 446 59 c 0,21,22
 449 59 449 59 455.5 59 c 128,-1,23
 462 59 462 59 471 61.5 c 128,-1,24
 480 64 480 64 492.5 70 c 128,-1,25
 505 76 505 76 521 87 c 1,26,-1
 521 29 l 1,27,28
 504 19 504 19 487.5 12.5 c 128,-1,29
 471 6 471 6 454 2 c 128,-1,30
 437 -2 437 -2 418.5 -3.5 c 128,-1,31
 400 -5 400 -5 379 -5 c 0,32,33
 355 -5 355 -5 334.5 11 c 128,-1,34
 314 27 314 27 297.5 51.5 c 128,-1,35
 281 76 281 76 269 105 c 128,-1,36
 257 134 257 134 250 159 c 1,37,38
 247 153 247 153 239 138.5 c 128,-1,39
 231 124 231 124 219 105.5 c 128,-1,40
 207 87 207 87 191.5 67 c 128,-1,41
 176 47 176 47 157.5 31 c 128,-1,42
 139 15 139 15 118.5 4.5 c 128,-1,43
 98 -6 98 -6 77 -6 c 0,44,45
 60 -6 60 -6 43.5 -2.5 c 128,-1,46
 27 1 27 1 14.5 8.5 c 128,-1,47
 2 16 2 16 -5.5 27 c 128,-1,48
 -13 38 -13 38 -13 52 c 0,49,50
 -13 63 -13 63 -10.5 76.5 c 128,-1,51
 -8 90 -8 90 1 101.5 c 128,-1,52
 10 113 10 113 27 120.5 c 128,-1,53
 44 128 44 128 71 128 c 1,54,-1
 109 69 l 1,55,56
 122 80 122 80 137.5 96.5 c 128,-1,57
 153 113 153 113 169 134 c 128,-1,58
 185 155 185 155 199.5 180 c 128,-1,59
 214 205 214 205 225 234 c 1,60,61
 223 243 223 243 218 260 c 128,-1,62
 213 277 213 277 206.5 297 c 128,-1,63
 200 317 200 317 192.5 337.5 c 128,-1,64
 185 358 185 358 178 375 c 128,-1,65
 171 392 171 392 165 402.5 c 128,-1,66
 159 413 159 413 156 413 c 2,67,-1
 58 425 l 1,68,-1
 58 455 l 1,69,70
 63 457 63 457 74.5 460.5 c 128,-1,71
 86 464 86 464 100.5 468 c 128,-1,72
 115 472 115 472 130.5 476 c 128,-1,73
 146 480 146 480 159.5 483.5 c 128,-1,74
 173 487 173 487 183 489 c 128,-1,75
 193 491 193 491 196 491 c 0,76,77
 219 491 219 491 237 480 c 128,-1,78
 255 469 255 469 269.5 448.5 c 128,-1,79
 284 428 284 428 296 399 c 128,-1,80
 308 370 308 370 318 334 c 1,81,82
 335 360 335 360 355.5 388 c 128,-1,83
 376 416 376 416 399.5 439 c 128,-1,84
 423 462 423 462 448 476.5 c 128,-1,85
 473 491 473 491 499 491 c 0,86,87
 514 491 514 491 528.5 486.5 c 128,-1,88
 543 482 543 482 554 474 c 128,-1,89
 565 466 565 466 572 454.5 c 128,-1,90
 579 443 579 443 585 437 c 1,0,1
EndSplineSet
EndChar

StartChar: y
Encoding: 121 121 92
Width: 542
Flags: W
LayerCount: 2
Fore
SplineSet
520 412 m 1,0,1
 515 407 515 407 504 392 c 128,-1,2
 493 377 493 377 481.5 358 c 128,-1,3
 470 339 470 339 459 318.5 c 128,-1,4
 448 298 448 298 442 283 c 0,5,6
 432 260 432 260 417.5 226.5 c 128,-1,7
 403 193 403 193 385 154 c 128,-1,8
 367 115 367 115 346 73 c 128,-1,9
 325 31 325 31 302 -9 c 0,10,11
 278 -52 278 -52 249.5 -91 c 128,-1,12
 221 -130 221 -130 188 -159 c 128,-1,13
 155 -188 155 -188 116.5 -205 c 128,-1,14
 78 -222 78 -222 33 -222 c 0,15,16
 3 -222 3 -222 -17 -214.5 c 128,-1,17
 -37 -207 -37 -207 -49 -195.5 c 128,-1,18
 -61 -184 -61 -184 -65.5 -171 c 128,-1,19
 -70 -158 -70 -158 -70 -148 c 0,20,21
 -70 -136 -70 -136 -66.5 -122 c 128,-1,22
 -63 -108 -63 -108 -53.5 -96 c 128,-1,23
 -44 -84 -44 -84 -29 -76 c 128,-1,24
 -14 -68 -14 -68 9 -68 c 1,25,-1
 51 -144 l 1,26,27
 118 -130 118 -130 201 22 c 1,28,29
 201 27 201 27 197.5 47 c 128,-1,30
 194 67 194 67 188.5 95.5 c 128,-1,31
 183 124 183 124 176 158.5 c 128,-1,32
 169 193 169 193 162 228 c 0,33,34
 155 262 155 262 149 296.5 c 128,-1,35
 143 331 143 331 138 358.5 c 128,-1,36
 133 386 133 386 129 403 c 128,-1,37
 125 420 125 420 122 420 c 2,38,-1
 17 428 l 1,39,-1
 17 458 l 1,40,41
 22 459 22 459 33 462.5 c 128,-1,42
 44 466 44 466 58 470 c 128,-1,43
 72 474 72 474 87 478 c 128,-1,44
 102 482 102 482 115.5 485 c 128,-1,45
 129 488 129 488 139.5 490 c 128,-1,46
 150 492 150 492 155 492 c 0,47,48
 171 492 171 492 184.5 490 c 128,-1,49
 198 488 198 488 209.5 478.5 c 128,-1,50
 221 469 221 469 231 449.5 c 128,-1,51
 241 430 241 430 251 395 c 0,52,53
 255 378 255 378 260.5 355 c 128,-1,54
 266 332 266 332 271.5 305.5 c 128,-1,55
 277 279 277 279 283 250.5 c 128,-1,56
 289 222 289 222 294 193 c 1,57,-1
 431 494 l 1,58,-1
 478 494 l 1,59,-1
 572 465 l 1,60,-1
 572 439 l 1,61,-1
 520 412 l 1,0,1
EndSplineSet
EndChar

StartChar: z
Encoding: 122 122 93
Width: 491
Flags: W
LayerCount: 2
Fore
SplineSet
167 91 m 1,0,-1
 229 104 l 1,1,2
 255 90 255 90 272.5 81.5 c 128,-1,3
 290 73 290 73 307 73 c 0,4,5
 312 73 312 73 321 75 c 128,-1,6
 330 77 330 77 340 80.5 c 128,-1,7
 350 84 350 84 358 89 c 128,-1,8
 366 94 366 94 369 99 c 1,9,-1
 309 162 l 1,10,11
 311 165 311 165 318.5 171.5 c 128,-1,12
 326 178 326 178 336.5 184 c 128,-1,13
 347 190 347 190 359 194.5 c 128,-1,14
 371 199 371 199 383 199 c 0,15,16
 399 199 399 199 410.5 191.5 c 128,-1,17
 422 184 422 184 429.5 173 c 128,-1,18
 437 162 437 162 440.5 149.5 c 128,-1,19
 444 137 444 137 444 127 c 0,20,21
 444 104 444 104 430.5 79 c 128,-1,22
 417 54 417 54 393.5 33.5 c 128,-1,23
 370 13 370 13 339 0.5 c 128,-1,24
 308 -12 308 -12 273 -12 c 0,25,26
 248 -12 248 -12 225.5 -5.5 c 128,-1,27
 203 1 203 1 185 8.5 c 128,-1,28
 167 16 167 16 155 22.5 c 128,-1,29
 143 29 143 29 139 29 c 0,30,31
 133 29 133 29 127.5 28.5 c 128,-1,32
 122 28 122 28 120 24 c 2,33,-1
 83 -39 l 1,34,-1
 -18 16 l 1,35,-1
 312 395 l 1,36,-1
 250 382 l 1,37,38
 224 396 224 396 207 405 c 128,-1,39
 190 414 190 414 173 414 c 0,40,41
 168 414 168 414 159 412 c 128,-1,42
 150 410 150 410 140.5 406 c 128,-1,43
 131 402 131 402 122.5 397 c 128,-1,44
 114 392 114 392 111 387 c 1,45,-1
 170 325 l 1,46,47
 168 321 168 321 161 314.5 c 128,-1,48
 154 308 154 308 143.5 302 c 128,-1,49
 133 296 133 296 120.5 291.5 c 128,-1,50
 108 287 108 287 96 287 c 0,51,52
 80 287 80 287 68.5 294.5 c 128,-1,53
 57 302 57 302 49.5 313 c 128,-1,54
 42 324 42 324 38.5 336.5 c 128,-1,55
 35 349 35 349 35 359 c 0,56,57
 35 382 35 382 48.5 407 c 128,-1,58
 62 432 62 432 85.5 452.5 c 128,-1,59
 109 473 109 473 140 486 c 128,-1,60
 171 499 171 499 206 499 c 0,61,62
 231 499 231 499 253.5 492.5 c 128,-1,63
 276 486 276 486 294 478 c 128,-1,64
 312 470 312 470 324 463.5 c 128,-1,65
 336 457 336 457 340 457 c 0,66,67
 346 457 346 457 351 457.5 c 128,-1,68
 356 458 356 458 359 461 c 1,69,-1
 386 523 l 1,70,-1
 495 468 l 1,71,-1
 167 91 l 1,0,-1
EndSplineSet
EndChar

StartChar: braceleft
Encoding: 123 123 94
Width: 495
Flags: W
LayerCount: 2
Fore
SplineSet
499 650 m 1,0,1
 481 650 481 650 463 648 c 0,2,3
 448 646 448 646 431 641 c 128,-1,4
 414 636 414 636 400 625 c 0,5,6
 383 611 383 611 373.5 589.5 c 128,-1,7
 364 568 364 568 358 542.5 c 128,-1,8
 352 517 352 517 347.5 489.5 c 128,-1,9
 343 462 343 462 335 435 c 128,-1,10
 327 408 327 408 313.5 383.5 c 128,-1,11
 300 359 300 359 276 340 c 0,12,13
 257 325 257 325 238.5 316.5 c 128,-1,14
 220 308 220 308 204.5 304 c 128,-1,15
 189 300 189 300 178 299 c 0,16,17
 170 299 170 299 166 299 c 1,18,19
 170 299 170 299 177 299 c 0,20,21
 187 298 187 298 200.5 293.5 c 128,-1,22
 214 289 214 289 229 280.5 c 128,-1,23
 244 272 244 272 256 257 c 0,24,25
 272 238 272 238 276 213.5 c 128,-1,26
 280 189 280 189 278 162 c 128,-1,27
 276 135 276 135 270 107.5 c 128,-1,28
 264 80 264 80 260.5 55 c 128,-1,29
 257 30 257 30 258 8.5 c 128,-1,30
 259 -13 259 -13 271 -27 c 0,31,32
 280 -38 280 -38 295 -43 c 128,-1,33
 310 -48 310 -48 324 -50 c 0,34,35
 340 -52 340 -52 358 -52 c 1,36,-1
 348 -107 l 1,37,-1
 329 -107 l 2,38,39
 316 -107 316 -107 298.5 -106.5 c 128,-1,40
 281 -106 281 -106 261 -104 c 128,-1,41
 241 -102 241 -102 222 -97.5 c 128,-1,42
 203 -93 203 -93 187 -86 c 128,-1,43
 171 -79 171 -79 161 -68 c 0,44,45
 143 -48 143 -48 138.5 -21 c 128,-1,46
 134 6 134 6 136.5 36 c 128,-1,47
 139 66 139 66 146 97 c 128,-1,48
 153 128 153 128 158 156 c 128,-1,49
 163 184 163 184 163 207 c 128,-1,50
 163 230 163 230 152 244 c 256,51,52
 141 258 141 258 123.5 264 c 128,-1,53
 106 270 106 270 90 271 c 0,54,55
 71 272 71 272 51 270 c 1,56,-1
 61 329 l 1,57,58
 81 327 81 327 101 328 c 0,59,60
 118 329 118 329 138 335 c 128,-1,61
 158 341 158 341 175 355 c 256,62,63
 192 369 192 369 201.5 392.5 c 128,-1,64
 211 416 211 416 217 444 c 128,-1,65
 223 472 223 472 228.5 503 c 128,-1,66
 234 534 234 534 243 564 c 128,-1,67
 252 594 252 594 267.5 621 c 128,-1,68
 283 648 283 648 309 668 c 0,69,70
 323 679 323 679 342 686 c 128,-1,71
 361 693 361 693 381.5 697.5 c 128,-1,72
 402 702 402 702 422.5 704 c 128,-1,73
 443 706 443 706 460.5 706.5 c 128,-1,74
 478 707 478 707 491 707 c 2,75,-1
 510 707 l 1,76,-1
 499 650 l 1,0,1
EndSplineSet
EndChar

StartChar: bar
Encoding: 124 124 95
Width: 397
Flags: W
LayerCount: 2
Fore
SplineSet
156 -257 m 1,0,-1
 156 796 l 1,1,-1
 241 796 l 1,2,-1
 241 -257 l 1,3,-1
 156 -257 l 1,0,-1
EndSplineSet
EndChar

StartChar: braceright
Encoding: 125 125 96
Width: 495
Flags: W
LayerCount: 2
Fore
SplineSet
454 262 m 1,0,1
 434 264 434 264 414 263 c 0,2,3
 397 262 397 262 377 256 c 128,-1,4
 357 250 357 250 340 236 c 0,5,6
 323 221 323 221 314 198 c 128,-1,7
 305 175 305 175 299 147 c 128,-1,8
 293 119 293 119 288 88 c 128,-1,9
 283 57 283 57 274 27 c 128,-1,10
 265 -3 265 -3 250 -30 c 128,-1,11
 235 -57 235 -57 209 -77 c 0,12,13
 195 -88 195 -88 175.5 -95 c 128,-1,14
 156 -102 156 -102 135.5 -106.5 c 128,-1,15
 115 -111 115 -111 94.5 -113 c 128,-1,16
 74 -115 74 -115 56.5 -115.5 c 128,-1,17
 39 -116 39 -116 26 -116 c 2,18,-1
 7 -116 l 1,19,-1
 17 -61 l 1,20,21
 35 -61 35 -61 53 -59 c 0,22,23
 68 -57 68 -57 85 -52 c 128,-1,24
 102 -47 102 -47 116 -36 c 0,25,26
 133 -22 133 -22 142.5 -1 c 128,-1,27
 152 20 152 20 158 45 c 128,-1,28
 164 70 164 70 168.5 97.5 c 128,-1,29
 173 125 173 125 181 152 c 128,-1,30
 189 179 189 179 202.5 203.5 c 128,-1,31
 216 228 216 228 240 247 c 0,32,33
 258 261 258 261 276.5 269.5 c 128,-1,34
 295 278 295 278 310.5 282.5 c 128,-1,35
 326 287 326 287 337.5 288 c 128,-1,36
 349 289 349 289 353 289 c 1,37,38
 350 289 350 289 339.5 289.5 c 128,-1,39
 329 290 329 290 315 294 c 128,-1,40
 301 298 301 298 286 306.5 c 128,-1,41
 271 315 271 315 258 330 c 0,42,43
 242 349 242 349 238 373.5 c 128,-1,44
 234 398 234 398 236 425 c 128,-1,45
 238 452 238 452 244 479.5 c 128,-1,46
 250 507 250 507 253.5 532.5 c 128,-1,47
 257 558 257 558 256.5 579 c 128,-1,48
 256 600 256 600 244 614 c 0,49,50
 235 625 235 625 220.5 630 c 128,-1,51
 206 635 206 635 192 637 c 0,52,53
 176 639 176 639 157 639 c 1,54,-1
 168 694 l 1,55,-1
 187 694 l 2,56,57
 200 694 200 694 217.5 693.5 c 128,-1,58
 235 693 235 693 255 691 c 128,-1,59
 275 689 275 689 294 684.5 c 128,-1,60
 313 680 313 680 329 673 c 128,-1,61
 345 666 345 666 355 655 c 0,62,63
 373 635 373 635 377.5 608 c 128,-1,64
 382 581 382 581 379.5 551 c 128,-1,65
 377 521 377 521 370 490 c 128,-1,66
 363 459 363 459 358 431 c 128,-1,67
 353 403 353 403 353 379.5 c 128,-1,68
 353 356 353 356 364 342 c 256,69,70
 375 328 375 328 392.5 322 c 128,-1,71
 410 316 410 316 426 315 c 0,72,73
 445 314 445 314 465 316 c 1,74,-1
 454 262 l 1,0,1
EndSplineSet
EndChar

StartChar: asciitilde
Encoding: 126 126 97
Width: 833
Flags: W
LayerCount: 2
Fore
SplineSet
747 299 m 1,0,1
 717 278 717 278 691 263.5 c 128,-1,2
 665 249 665 249 642 240.5 c 128,-1,3
 619 232 619 232 598 228.5 c 128,-1,4
 577 225 577 225 557 225 c 0,5,6
 521 225 521 225 487 235 c 128,-1,7
 453 245 453 245 419.5 257 c 128,-1,8
 386 269 386 269 351.5 279 c 128,-1,9
 317 289 317 289 281 289 c 0,10,11
 247 289 247 289 201.5 268 c 128,-1,12
 156 247 156 247 94 200 c 1,13,-1
 94 294 l 1,14,15
 150 336 150 336 198.5 353 c 128,-1,16
 247 370 247 370 287 370 c 0,17,18
 315 370 315 370 341.5 364 c 128,-1,19
 368 358 368 358 394 349.5 c 128,-1,20
 420 341 420 341 445.5 331 c 128,-1,21
 471 321 471 321 497 314 c 0,22,23
 512 310 512 310 527.5 307.5 c 128,-1,24
 543 305 543 305 558 305 c 0,25,26
 574 305 574 305 592.5 308.5 c 128,-1,27
 611 312 611 312 634 322 c 128,-1,28
 657 332 657 332 685 349 c 128,-1,29
 713 366 713 366 748 392 c 1,30,-1
 747 299 l 1,0,1
EndSplineSet
EndChar

StartChar: quoteleft
Encoding: 8216 8216 98
Width: 275
Flags: W
LayerCount: 2
Fore
SplineSet
305 705 m 1,0,1
 253 688 253 688 220.5 649.5 c 128,-1,2
 188 611 188 611 180 558 c 1,3,-1
 239 558 l 1,4,5
 244 549 244 549 246.5 539 c 128,-1,6
 249 529 249 529 249 520 c 0,7,8
 249 502 249 502 241.5 486.5 c 128,-1,9
 234 471 234 471 222 459.5 c 128,-1,10
 210 448 210 448 194 441.5 c 128,-1,11
 178 435 178 435 161 435 c 0,12,13
 143 435 143 435 130 441 c 128,-1,14
 117 447 117 447 108.5 457.5 c 128,-1,15
 100 468 100 468 96 482 c 128,-1,16
 92 496 92 496 92 513 c 0,17,18
 92 554 92 554 110 591.5 c 128,-1,19
 128 629 128 629 157 659.5 c 128,-1,20
 186 690 186 690 222.5 712 c 128,-1,21
 259 734 259 734 296 744 c 1,22,-1
 305 705 l 1,0,1
EndSplineSet
EndChar

StartChar: quoteright
Encoding: 8217 8217 99
Width: 275
Flags: W
LayerCount: 2
Fore
SplineSet
314 663 m 0,0,1
 314 622 314 622 296 584.5 c 128,-1,2
 278 547 278 547 249 516.5 c 128,-1,3
 220 486 220 486 183.5 464 c 128,-1,4
 147 442 147 442 110 432 c 1,5,-1
 101 469 l 1,6,7
 152 486 152 486 184.5 524 c 128,-1,8
 217 562 217 562 226 615 c 1,9,-1
 166 615 l 1,10,11
 161 623 161 623 158.5 633.5 c 128,-1,12
 156 644 156 644 156 654 c 0,13,14
 156 671 156 671 163.5 686.5 c 128,-1,15
 171 702 171 702 183.5 713.5 c 128,-1,16
 196 725 196 725 212 731.5 c 128,-1,17
 228 738 228 738 245 738 c 0,18,19
 263 738 263 738 276 732 c 128,-1,20
 289 726 289 726 297.5 716 c 128,-1,21
 306 706 306 706 310 691.5 c 128,-1,22
 314 677 314 677 314 663 c 0,0,1
EndSplineSet
EndChar

StartChar: quotedblleft
Encoding: 8220 8220 100
Width: 502
Flags: W
LayerCount: 2
Fore
SplineSet
305 705 m 1,0,1
 253 688 253 688 220.5 649.5 c 128,-1,2
 188 611 188 611 180 558 c 1,3,-1
 239 558 l 1,4,5
 244 549 244 549 246.5 539 c 128,-1,6
 249 529 249 529 249 520 c 0,7,8
 249 502 249 502 241.5 486.5 c 128,-1,9
 234 471 234 471 222 459.5 c 128,-1,10
 210 448 210 448 194 441.5 c 128,-1,11
 178 435 178 435 161 435 c 0,12,13
 143 435 143 435 130 441 c 128,-1,14
 117 447 117 447 108.5 457.5 c 128,-1,15
 100 468 100 468 96 482 c 128,-1,16
 92 496 92 496 92 513 c 0,17,18
 92 554 92 554 110 591.5 c 128,-1,19
 128 629 128 629 157 659.5 c 128,-1,20
 186 690 186 690 222.5 712 c 128,-1,21
 259 734 259 734 296 744 c 1,22,-1
 305 705 l 1,0,1
534 707 m 1,23,24
 482 690 482 690 449.5 651.5 c 128,-1,25
 417 613 417 613 408 560 c 1,26,-1
 468 560 l 1,27,28
 473 551 473 551 475.5 541 c 128,-1,29
 478 531 478 531 478 522 c 0,30,31
 478 504 478 504 470.5 488.5 c 128,-1,32
 463 473 463 473 451 461.5 c 128,-1,33
 439 450 439 450 423 443.5 c 128,-1,34
 407 437 407 437 390 437 c 0,35,36
 372 437 372 437 359 443 c 128,-1,37
 346 449 346 449 337.5 459.5 c 128,-1,38
 329 470 329 470 325 484 c 128,-1,39
 321 498 321 498 321 515 c 0,40,41
 321 556 321 556 339 593.5 c 128,-1,42
 357 631 357 631 386 661.5 c 128,-1,43
 415 692 415 692 451.5 714 c 128,-1,44
 488 736 488 736 525 746 c 1,45,-1
 534 707 l 1,23,24
EndSplineSet
EndChar

StartChar: quotedblright
Encoding: 8221 8221 101
Width: 502
Flags: W
LayerCount: 2
Fore
SplineSet
314 663 m 0,0,1
 314 622 314 622 296 584.5 c 128,-1,2
 278 547 278 547 249 516.5 c 128,-1,3
 220 486 220 486 183.5 464 c 128,-1,4
 147 442 147 442 110 432 c 1,5,-1
 101 469 l 1,6,7
 152 486 152 486 184.5 524 c 128,-1,8
 217 562 217 562 226 615 c 1,9,-1
 166 615 l 1,10,11
 161 623 161 623 158.5 633.5 c 128,-1,12
 156 644 156 644 156 654 c 0,13,14
 156 671 156 671 163.5 686.5 c 128,-1,15
 171 702 171 702 183.5 713.5 c 128,-1,16
 196 725 196 725 212 731.5 c 128,-1,17
 228 738 228 738 245 738 c 0,18,19
 263 738 263 738 276 732 c 128,-1,20
 289 726 289 726 297.5 716 c 128,-1,21
 306 706 306 706 310 691.5 c 128,-1,22
 314 677 314 677 314 663 c 0,0,1
541 661 m 0,23,24
 541 620 541 620 523 582.5 c 128,-1,25
 505 545 505 545 476 514.5 c 128,-1,26
 447 484 447 484 410.5 462 c 128,-1,27
 374 440 374 440 337 430 c 1,28,-1
 328 467 l 1,29,30
 379 484 379 484 411.5 522 c 128,-1,31
 444 560 444 560 453 613 c 1,32,-1
 393 613 l 1,33,34
 388 621 388 621 385.5 631.5 c 128,-1,35
 383 642 383 642 383 652 c 0,36,37
 383 669 383 669 390.5 684.5 c 128,-1,38
 398 700 398 700 410.5 711.5 c 128,-1,39
 423 723 423 723 439 729.5 c 128,-1,40
 455 736 455 736 472 736 c 0,41,42
 490 736 490 736 503 730 c 128,-1,43
 516 724 516 724 524.5 714 c 128,-1,44
 533 704 533 704 537 689.5 c 128,-1,45
 541 675 541 675 541 661 c 0,23,24
EndSplineSet
EndChar

StartChar: consonant_part
Encoding: 65540 -1 103
Width: 14
Flags: W
LayerCount: 2
Fore
SplineSet
49 803 m 1,0,1
 75 791 75 791 90 752 c 128,-1,2
 105 713 105 713 105 663 c 0,3,4
 105 584 105 584 70 534 c 1,5,6
 29 473 29 473 -52 473 c 2,7,-1
 -192 473 l 1,8,-1
 -169 582 l 1,9,-1
 -73 582 l 2,10,11
 -19 582 -19 582 10 612.5 c 128,-1,12
 39 643 39 643 39 685 c 0,13,14
 39 749 39 749 -18 775 c 1,15,16
 12 786 12 786 34 797 c 0,17,18
 38 798 38 798 49 803 c 1,0,1
-4 0 m 1,19,-1
 -3 0 l 1,20,-1
 -4 0 l 1,19,-1
-4 0 m 1,21,-1
 -3 0 l 1,22,-1
 -4 0 l 1,21,-1
EndSplineSet
EndChar

StartChar: consonant_part1
Encoding: 65541 -1 104
Width: 387
Flags: W
LayerCount: 2
Fore
SplineSet
345 470 m 1,0,1
 394 421 394 421 394 318 c 0,2,3
 394 194 394 194 329 101 c 0,4,5
 252 -9 252 -9 121 -9 c 0,6,7
 47 -9 47 -9 10 42.5 c 128,-1,8
 -27 94 -27 94 -27 176 c 0,9,10
 -27 195 -27 195 -26 206 c 1,11,-1
 -5 208 l 1,12,13
 3 178 3 178 15 163 c 1,14,15
 57 116 57 116 154 116 c 0,16,17
 226 116 226 116 279.5 172.5 c 128,-1,18
 333 229 333 229 333 300 c 0,19,20
 333 360 333 360 291 403 c 0,21,22
 242 453 242 453 147 469 c 1,23,-1
 170 578 l 1,24,-1
 365 578 l 1,25,-1
 345 470 l 1,0,1
EndSplineSet
EndChar

StartChar: short_rr
Encoding: 65542 -1 105
Width: 628
Flags: W
LayerCount: 2
Fore
SplineSet
698 470 m 1,0,-1
 300 470 l 2,1,2
 250 470 250 470 216.5 439.5 c 128,-1,3
 183 409 183 409 183 376 c 0,4,5
 183 334 183 334 236 334 c 2,6,-1
 419 334 l 1,7,-1
 394 220 l 1,8,-1
 222 220 l 2,9,10
 180 220 180 220 154.5 195.5 c 128,-1,11
 129 171 129 171 129 142 c 0,12,13
 129 102 129 102 177 102 c 0,14,15
 231 102 231 102 231 61 c 0,16,17
 231 38 231 38 210.5 18.5 c 128,-1,18
 190 -1 190 -1 158 -1 c 256,19,20
 126 -1 126 -1 96 25 c 0,21,22
 59 57 59 57 59 107 c 0,23,24
 59 125 59 125 61 134 c 0,25,26
 73 194 73 194 117 234 c 1,27,28
 147 263 147 263 189 278 c 1,29,30
 154 294 154 294 136 324.5 c 128,-1,31
 118 355 118 355 118 391 c 0,32,33
 118 463 118 463 174 517 c 0,34,35
 235 577 235 577 330 577 c 2,36,-1
 722 577 l 1,37,-1
 698 470 l 1,0,-1
EndSplineSet
LCarets2: 1 0
EndChar

StartChar: u0C82
Encoding: 3202 3202 107
Width: 505
Flags: W
LayerCount: 2
Fore
SplineSet
546 296 m 1,0,1
 521 148 521 148 433 63 c 0,2,3
 355 -12 355 -12 260 -12 c 0,4,5
 185 -12 185 -12 133.5 41 c 128,-1,6
 82 94 82 94 82 190 c 0,7,8
 82 232 82 232 91 275 c 0,9,10
 119 412 119 412 191 493 c 0,11,12
 269 581 269 581 375 581 c 0,13,14
 466 581 466 581 510.5 529.5 c 128,-1,15
 555 478 555 478 555 387 c 0,16,17
 555 359 555 359 554 344 c 128,-1,18
 553 329 553 329 546 296 c 1,0,1
496 285 m 0,19,20
 500 304 500 304 500 322 c 0,21,22
 500 382 500 382 464 421 c 0,23,24
 424 464 424 464 359 464 c 0,25,26
 280 464 280 464 219.5 410.5 c 128,-1,27
 159 357 159 357 145 282 c 0,28,29
 141 261 141 261 141 243 c 0,30,31
 141 180 141 180 183 144 c 128,-1,32
 225 108 225 108 288 108 c 0,33,34
 358 108 358 108 415 151 c 0,35,36
 479 200 479 200 496 285 c 0,19,20
EndSplineSet
EndChar

StartChar: u0C83
Encoding: 3203 3203 108
Width: 281
Flags: W
LayerCount: 2
Fore
SplineSet
344 456 m 1,0,1
 332 393 332 393 295 361 c 128,-1,2
 258 329 258 329 214 329 c 0,3,4
 177 329 177 329 151.5 353.5 c 128,-1,5
 126 378 126 378 126 422 c 0,6,7
 126 436 126 436 130 455 c 0,8,9
 141 505 141 505 177 541 c 128,-1,10
 213 577 213 577 262 577 c 0,11,12
 305 577 305 577 328 554 c 128,-1,13
 351 531 351 531 351 492 c 0,14,15
 351 481 351 481 351 470 c 1,16,17
 347 459 347 459 344 456 c 1,0,1
275 119 m 1,18,19
 263 58 263 58 226 26 c 128,-1,20
 189 -6 189 -6 145 -6 c 0,21,22
 108 -6 108 -6 82.5 18.5 c 128,-1,23
 57 43 57 43 57 86 c 0,24,25
 57 100 57 100 61 119 c 0,26,27
 72 167 72 167 108 203 c 128,-1,28
 144 239 144 239 193 239 c 0,29,30
 233 239 233 239 257 216 c 128,-1,31
 281 193 281 193 281 156 c 0,32,33
 281 145 281 145 281 134 c 1,34,35
 277 123 277 123 275 119 c 1,18,19
310 454 m 1,36,37
 315 475 315 475 297 486.5 c 128,-1,38
 279 498 279 498 249 498 c 256,39,40
 219 498 219 498 197.5 487.5 c 128,-1,41
 176 477 176 477 171 454 c 0,42,43
 166 432 166 432 183.5 421 c 128,-1,44
 201 410 201 410 230 410 c 0,45,46
 258 410 258 410 282.5 421.5 c 128,-1,47
 307 433 307 433 310 454 c 1,36,37
242 118 m 0,48,49
 247 140 247 140 229 151.5 c 128,-1,50
 211 163 211 163 181 163 c 0,51,52
 152 163 152 163 130 151.5 c 128,-1,53
 108 140 108 140 103 118 c 256,54,55
 98 96 98 96 115.5 84.5 c 128,-1,56
 133 73 133 73 162 73 c 256,57,58
 191 73 191 73 214.5 84.5 c 128,-1,59
 238 96 238 96 242 118 c 0,48,49
EndSplineSet
EndChar

StartChar: u0C85
Encoding: 3205 3205 109
Width: 777
Flags: W
LayerCount: 2
Fore
SplineSet
817 340 m 0,0,1
 780 175 780 175 647 76 c 0,2,3
 527 -13 527 -13 382 -13 c 0,4,5
 261 -13 261 -13 183 54 c 0,6,7
 98 128 98 128 98 259 c 0,8,9
 98 298 98 298 109 354 c 0,10,11
 128 449 128 449 186 521 c 0,12,13
 253 603 253 603 334 603 c 0,14,15
 370 603 370 603 388 579.5 c 128,-1,16
 406 556 406 556 406 520 c 0,17,18
 406 453 406 453 364 395 c 0,19,20
 318 330 318 330 257 330 c 0,21,22
 224 330 224 330 205.5 350 c 128,-1,23
 187 370 187 370 180 407 c 1,24,25
 175 398 175 398 167 380.5 c 128,-1,26
 159 363 159 363 156.5 343 c 128,-1,27
 154 323 154 323 154 311 c 0,28,29
 154 212 154 212 229 156 c 1,30,31
 299 105 299 105 406 105 c 0,32,33
 534 105 534 105 637 172 c 0,34,35
 751 246 751 246 777 370 c 0,36,37
 781 389 781 389 780 405 c 1,38,-1
 729 352 l 1,39,-1
 405 352 l 1,40,-1
 420 424 l 1,41,-1
 580 424 l 1,42,43
 575 481 575 481 612 538 c 128,-1,44
 649 595 649 595 713 595 c 0,45,46
 771 595 771 595 800 551 c 128,-1,47
 829 507 829 507 829 436 c 0,48,49
 829 390 829 390 817 340 c 0,0,1
691 500 m 1,50,51
 669 498 669 498 654 486.5 c 128,-1,52
 639 475 639 475 632 456 c 1,53,54
 627 434 627 434 641.5 422.5 c 128,-1,55
 656 411 656 411 679 411 c 0,56,57
 707 411 707 411 730.5 424 c 128,-1,58
 754 437 754 437 759 459 c 1,59,60
 764 491 764 491 715 499 c 0,61,62
 707 500 707 500 691 500 c 1,50,51
310 522 m 1,63,64
 267 522 267 522 237 504 c 0,65,66
 214 490 214 490 210.5 478.5 c 128,-1,67
 207 467 207 467 207 456 c 0,68,69
 207 434 207 434 223 418 c 128,-1,70
 239 402 239 402 275 402 c 0,71,72
 305 402 305 402 327 422 c 128,-1,73
 349 442 349 442 351.5 458.5 c 128,-1,74
 354 475 354 475 354 487 c 0,75,76
 354 503 354 503 344.5 512 c 128,-1,77
 335 521 335 521 310 522 c 1,63,64
EndSplineSet
EndChar

StartChar: u0C86
Encoding: 3206 3206 110
Width: 777
Flags: W
LayerCount: 2
Fore
SplineSet
754 214 m 1,0,1
 733 114 733 114 621.5 47 c 128,-1,2
 510 -20 510 -20 383 -20 c 0,3,4
 260 -20 260 -20 183 43 c 0,5,6
 95 114 95 114 95 249 c 0,7,8
 95 291 95 291 106 349 c 1,9,10
 126 445 126 445 180 515 c 0,11,12
 244 597 244 597 323 597 c 0,13,14
 365 597 365 597 385 574 c 128,-1,15
 405 551 405 551 405 512 c 0,16,17
 405 447 405 447 361 387 c 0,18,19
 312 322 312 322 251 322 c 0,20,21
 215 322 215 322 196.5 345.5 c 128,-1,22
 178 369 178 369 178 409 c 0,23,24
 178 423 178 423 179 430 c 1,25,26
 174 418 174 418 173 410 c 1,27,28
 166 385 166 385 160.5 361.5 c 128,-1,29
 155 338 155 338 154 322 c 128,-1,30
 153 306 153 306 153 288 c 0,31,32
 153 192 153 192 231 142 c 0,33,34
 298 99 298 99 407 99 c 0,35,36
 511 99 511 99 598.5 138.5 c 128,-1,37
 686 178 686 178 700 241 c 0,38,39
 704 257 704 257 704 269 c 0,40,41
 704 294 704 294 693 309 c 1,42,43
 677 305 677 305 651.5 304 c 128,-1,44
 626 303 626 303 611 303 c 2,45,-1
 387 303 l 1,46,-1
 412 424 l 1,47,-1
 627 424 l 1,48,49
 620 445 620 445 620 466 c 0,50,51
 620 519 620 519 649 558 c 0,52,53
 684 604 684 604 744 604 c 0,54,55
 798 604 798 604 825 575.5 c 128,-1,56
 852 547 852 547 852 504 c 0,57,58
 852 457 852 457 822 407 c 128,-1,59
 792 357 792 357 746 331 c 1,60,61
 750 323 750 323 754.5 303.5 c 128,-1,62
 759 284 759 284 759 266 c 0,63,64
 759 258 759 258 759 250 c 1,65,66
 755 229 755 229 754 214 c 1,0,1
791 460 m 0,67,68
 795 475 795 475 781 475 c 0,69,70
 765 475 765 475 726 452 c 0,71,72
 714 445 714 445 691 429 c 1,73,74
 695 429 695 429 705.5 428 c 128,-1,75
 716 427 716 427 724 427 c 0,76,77
 750 427 750 427 768.5 434 c 128,-1,78
 787 441 787 441 791 460 c 0,67,68
307 501 m 0,79,80
 278 501 278 501 257 490 c 0,81,82
 252 488 252 488 243 480 c 1,83,84
 239 466 239 466 239 458 c 0,85,86
 239 442 239 442 247 431.5 c 128,-1,87
 255 421 255 421 280 421 c 0,88,89
 308 421 308 421 326 437.5 c 128,-1,90
 344 454 344 454 344 473 c 0,91,92
 344 502 344 502 307 501 c 0,79,80
EndSplineSet
EndChar

StartChar: u0C87
Encoding: 3207 3207 111
Width: 760
Flags: W
LayerCount: 2
Fore
SplineSet
817 385 m 0,0,1
 806 334 806 334 773 287 c 0,2,3
 752 257 752 257 727 235 c 1,4,5
 728 213 728 213 713 184 c 0,6,7
 669 100 669 100 668 93 c 0,8,9
 664 72 664 72 680 72 c 0,10,11
 692 72 692 72 703.5 86.5 c 128,-1,12
 715 101 715 101 719 127 c 1,13,-1
 752 98 l 1,14,15
 750 84 750 84 748 73 c 0,16,17
 739 37 739 37 709 16.5 c 128,-1,18
 679 -4 679 -4 644 -4 c 0,19,20
 614 -4 614 -4 594.5 12 c 128,-1,21
 575 28 575 28 575 60 c 0,22,23
 575 65 575 65 577.5 80 c 128,-1,24
 580 95 580 95 597.5 121.5 c 128,-1,25
 615 148 615 148 631 173 c 1,26,27
 612 165 612 165 590 159 c 128,-1,28
 568 153 568 153 546 153 c 0,29,30
 492 153 492 153 463 174.5 c 128,-1,31
 434 196 434 196 434 226 c 0,32,33
 434 265 434 265 478 298.5 c 128,-1,34
 522 332 522 332 593 332 c 0,35,36
 639 332 639 332 674 316 c 0,37,38
 696 305 696 305 712 287 c 1,39,40
 727 295 727 295 741 316 c 128,-1,41
 755 337 755 337 758.5 355.5 c 128,-1,42
 762 374 762 374 762 381 c 0,43,44
 762 418 762 418 734 441.5 c 128,-1,45
 706 465 706 465 659 465 c 0,46,47
 610 465 610 465 556.5 436.5 c 128,-1,48
 503 408 503 408 450 347 c 1,49,50
 442 389 442 389 431 408 c 0,51,52
 396 471 396 471 319 471 c 0,53,54
 263 471 263 471 219 438.5 c 128,-1,55
 175 406 175 406 175 370 c 0,56,57
 175 347 175 347 200 331 c 128,-1,58
 225 315 225 315 276 315 c 1,59,60
 277 311 277 311 277.5 305.5 c 128,-1,61
 278 300 278 300 278 291 c 0,62,63
 278 269 278 269 270 258 c 0,64,65
 258 242 258 242 229 242 c 0,66,67
 175 242 175 242 146.5 276.5 c 128,-1,68
 118 311 118 311 118 364 c 0,69,70
 118 446 118 446 175 513 c 0,71,72
 239 588 239 588 335 588 c 0,73,74
 407 588 407 588 443 521 c 0,75,76
 454 499 454 499 465 455 c 1,77,78
 515 516 515 516 575.5 549.5 c 128,-1,79
 636 583 636 583 689 583 c 0,80,81
 749 583 749 583 786 546 c 128,-1,82
 823 509 823 509 823 441 c 0,83,84
 823 426 823 426 823 411 c 1,85,86
 819 396 819 396 817 385 c 0,0,1
667 261 m 1,87,88
 660 270 660 270 648 277 c 0,89,90
 627 288 627 288 598 288 c 0,91,92
 575 288 575 288 557.5 276.5 c 128,-1,93
 540 265 540 265 540 251 c 0,94,95
 540 229 540 229 580 229 c 0,96,97
 602 229 602 229 623.5 236 c 128,-1,98
 645 243 645 243 667 261 c 1,87,88
EndSplineSet
EndChar

StartChar: u0C88
Encoding: 3208 3208 112
Width: 1030
Flags: W
LayerCount: 2
Fore
SplineSet
1087 413 m 1,0,1
 1073 356 1073 356 1037 316 c 0,2,3
 1011 288 1011 288 983 276 c 1,4,5
 1005 247 1005 247 1014.5 218.5 c 128,-1,6
 1024 190 1024 190 1024 162 c 0,7,8
 1024 98 1024 98 979.5 49.5 c 128,-1,9
 935 1 935 1 886 1 c 0,10,11
 839 1 839 1 830 48 c 0,12,13
 829 55 829 55 828 70 c 1,14,15
 879 70 879 70 913 112.5 c 128,-1,16
 947 155 947 155 947 208 c 0,17,18
 947 233 947 233 939 254 c 1,19,20
 927 252 927 252 909.5 248.5 c 128,-1,21
 892 245 892 245 883 245 c 2,22,-1
 749 245 l 1,23,-1
 741 230 l 1,24,25
 697 120 697 120 604 58 c 0,26,27
 518 0 518 0 420 0 c 256,28,29
 322 0 322 0 259 57 c 0,30,31
 189 120 189 120 189 229 c 1,32,-1
 191 247 l 1,33,-1
 88 247 l 1,34,-1
 111 360 l 1,35,-1
 229 360 l 1,36,37
 241 389 241 389 273 422 c 0,38,39
 298 448 298 448 333 473 c 1,40,-1
 238 473 l 1,41,-1
 261 582 l 1,42,-1
 639 582 l 2,43,44
 693 582 693 582 721.5 610.5 c 128,-1,45
 750 639 750 639 750 678 c 0,46,47
 750 727 750 727 715 746 c 1,48,-1
 775 783 l 1,49,50
 825 754 825 754 825 683 c 0,51,52
 825 626 825 626 790 575 c 0,53,54
 751 518 751 518 683 492 c 1,55,56
 708 473 708 473 724 448 c 0,57,58
 750 408 750 408 755 361 c 1,59,-1
 875 361 l 1,60,61
 868 373 868 373 864 387.5 c 128,-1,62
 860 402 860 402 860 420 c 0,63,64
 860 436 860 436 869 475 c 128,-1,65
 878 514 878 514 913 541 c 128,-1,66
 948 568 948 568 991 568 c 0,67,68
 1033 568 1033 568 1062 540.5 c 128,-1,69
 1091 513 1091 513 1091 460 c 0,70,71
 1091 452 1091 452 1089 438 c 128,-1,72
 1087 424 1087 424 1087 413 c 1,0,1
1046 425 m 1,73,74
 1051 448 1051 448 1031 465.5 c 128,-1,75
 1011 483 1011 483 983 483 c 0,76,77
 958 483 958 483 939.5 468 c 128,-1,78
 921 453 921 453 917.5 433 c 128,-1,79
 914 413 914 413 914 402 c 0,80,81
 914 387 914 387 918.5 377.5 c 128,-1,82
 923 368 923 368 928 361 c 1,83,84
 950 359 950 359 959 359 c 0,85,86
 992 359 992 359 1013.5 373 c 128,-1,87
 1035 387 1035 387 1046 425 c 1,73,74
674 361 m 1,88,89
 674 407 674 407 646 440 c 0,90,91
 604 490 604 490 514 490 c 0,92,93
 425 490 425 490 367 448 c 0,94,95
 318 413 318 413 302 360 c 1,96,-1
 674 361 l 1,88,89
647 255 m 1,97,-1
 285 255 l 1,98,99
 284 246 284 246 284 230 c 0,100,101
 284 170 284 170 326.5 136.5 c 128,-1,102
 369 103 369 103 430 103 c 0,103,104
 501 103 501 103 559 140 c 0,105,106
 624 182 624 182 647 255 c 1,97,-1
EndSplineSet
EndChar

StartChar: u0C89
Encoding: 3209 3209 113
Width: 1096
Flags: W
LayerCount: 2
Fore
SplineSet
1020 569 m 0,0,1
 1076 546 1076 546 1104.5 490 c 128,-1,2
 1133 434 1133 434 1133 362 c 0,3,4
 1133 228 1133 228 1055 117 c 0,5,6
 970 -4 970 -4 851 -4 c 0,7,8
 781 -4 781 -4 748 38 c 0,9,10
 720 73 720 73 720 137 c 0,11,12
 720 172 720 172 726 206 c 128,-1,13
 732 240 732 240 746 276 c 1,14,15
 762 329 762 329 762 366 c 0,16,17
 762 415 762 415 739 439.5 c 128,-1,18
 716 464 716 464 679 464 c 0,19,20
 622 464 622 464 576 417 c 0,21,22
 525 364 525 364 525 283 c 0,23,24
 525 141 525 141 476 67 c 0,25,26
 423 -14 423 -14 310 -14 c 0,27,28
 208 -14 208 -14 152 69 c 0,29,30
 102 144 102 144 102 258 c 0,31,32
 102 386 102 386 159 482 c 0,33,34
 222 587 222 587 318 587 c 0,35,36
 358 587 358 587 379 556.5 c 128,-1,37
 400 526 400 526 400 479 c 0,38,39
 400 408 400 408 364 352 c 0,40,41
 324 289 324 289 261 289 c 0,42,43
 218 289 218 289 195 314 c 0,44,45
 177 333 177 333 169 366 c 1,46,47
 153 313 153 313 153 264 c 0,48,49
 153 193 153 193 188 150 c 0,50,51
 230 99 230 99 315 99 c 0,52,53
 399 99 399 99 443 167 c 0,54,55
 480 225 480 225 480 309 c 0,56,57
 480 440 480 440 548 521 c 0,58,59
 611 595 611 595 690 595 c 0,60,61
 747 595 747 595 784 552 c 128,-1,62
 821 509 821 509 821 427 c 0,63,64
 821 387 821 387 815.5 353.5 c 128,-1,65
 810 320 810 320 792 267 c 0,66,67
 788 253 788 253 787 246 c 128,-1,68
 786 239 786 239 786 226 c 0,69,70
 786 176 786 176 819.5 138.5 c 128,-1,71
 853 101 853 101 909 101 c 0,72,73
 977 101 977 101 1023.5 157.5 c 128,-1,74
 1070 214 1070 214 1070 286 c 0,75,76
 1070 350 1070 350 1033 401 c 0,77,78
 990 459 990 459 906 484 c 1,79,80
 904 500 904 500 923 532 c 0,81,82
 949 575 949 575 989 575 c 0,83,84
 1003 575 1003 575 1020 569 c 0,0,1
282 378 m 0,85,86
 260 379 260 379 249 381 c 1,87,88
 216 392 216 392 216 424 c 0,89,90
 216 433 216 433 218.5 447 c 128,-1,91
 221 461 221 461 237 473.5 c 128,-1,92
 253 486 253 486 288 486 c 0,93,94
 318 486 318 486 334 471.5 c 128,-1,95
 350 457 350 457 350 436 c 0,96,97
 350 414 350 414 331.5 395.5 c 128,-1,98
 313 377 313 377 282 378 c 0,85,86
EndSplineSet
EndChar

StartChar: u0C8A
Encoding: 3210 3210 114
Width: 1257
Flags: W
LayerCount: 2
Fore
SplineSet
1288 249 m 0,0,1
 1255 111 1255 111 1183 37 c 0,2,3
 1120 -27 1120 -27 1048 -27 c 0,4,5
 998 -27 998 -27 965.5 5.5 c 128,-1,6
 933 38 933 38 933 94 c 0,7,8
 933 112 933 112 940 142 c 0,9,10
 958 219 958 219 1002 259 c 0,11,12
 1041 294 1041 294 1088 294 c 0,13,14
 1124 294 1124 294 1149.5 273 c 128,-1,15
 1175 252 1175 252 1175 220 c 0,16,17
 1175 211 1175 211 1174 206 c 0,18,19
 1167 173 1167 173 1142 155 c 128,-1,20
 1117 137 1117 137 1089 137 c 0,21,22
 1066 137 1066 137 1052 148.5 c 128,-1,23
 1038 160 1038 160 1042 181 c 0,24,25
 1049 213 1049 213 1075 224 c 1,26,27
 1083 226 1083 226 1101 227 c 1,28,29
 1103 239 1103 239 1074 239 c 0,30,31
 1046 239 1046 239 1019.5 223 c 128,-1,32
 993 207 993 207 985 172 c 0,33,34
 983 163 983 163 983 147 c 0,35,36
 983 114 983 114 1006 95.5 c 128,-1,37
 1029 77 1029 77 1064 77 c 0,38,39
 1121 77 1121 77 1170 119 c 0,40,41
 1227 169 1227 169 1245 255 c 0,42,43
 1247 267 1247 267 1248 283.5 c 128,-1,44
 1249 300 1249 300 1249 314 c 0,45,46
 1249 391 1249 391 1204.5 435.5 c 128,-1,47
 1160 480 1160 480 1097 480 c 0,48,49
 1018 480 1018 480 962 416 c 0,50,51
 898 342 898 342 898 212 c 0,52,53
 898 99 898 99 842 32 c 0,54,55
 793 -26 793 -26 725 -26 c 0,56,57
 678 -26 678 -26 645.5 6.5 c 128,-1,58
 613 39 613 39 613 100 c 256,59,60
 613 161 613 161 649 239 c 0,61,62
 665 276 665 276 672.5 307.5 c 128,-1,63
 680 339 680 339 680 368 c 0,64,65
 680 412 680 412 658.5 437 c 128,-1,66
 637 462 637 462 605 462 c 0,67,68
 555 462 555 462 519 415 c 0,69,70
 477 361 477 361 477 269 c 0,71,72
 477 132 477 132 406 47 c 1,73,74
 342 -28 342 -28 256 -28 c 0,75,76
 185 -28 185 -28 139 25 c 0,77,78
 89 83 89 83 89 190 c 0,79,80
 89 240 89 240 101 302 c 0,81,82
 127 432 127 432 204 511 c 0,83,84
 271 580 271 580 339 580 c 0,85,86
 427 580 427 580 427 480 c 0,87,88
 427 461 427 461 423 440 c 0,89,90
 412 377 412 377 372.5 341.5 c 128,-1,91
 333 306 333 306 286 306 c 0,92,93
 256 306 256 306 234.5 326 c 128,-1,94
 213 346 213 346 213 382 c 0,95,96
 213 397 213 397 217 416 c 2,97,-1
 222 435 l 1,98,99
 199 416 199 416 183 390 c 0,100,101
 160 354 160 354 151 315.5 c 128,-1,102
 142 277 142 277 142 247 c 0,103,104
 142 178 142 178 185 133.5 c 128,-1,105
 228 89 228 89 286 89 c 0,106,107
 351 89 351 89 394 146 c 0,108,109
 444 211 444 211 444 334 c 0,110,111
 444 453 444 453 508 525 c 0,112,113
 565 590 565 590 639 590 c 0,114,115
 688 590 688 590 720 556 c 128,-1,116
 752 522 752 522 752 457 c 0,117,118
 752 421 752 421 743 382.5 c 128,-1,119
 734 344 734 344 712 291 c 128,-1,120
 690 238 690 238 690 194 c 0,121,122
 690 152 690 152 709.5 129 c 128,-1,123
 729 106 729 106 758 106 c 0,124,125
 798 106 798 106 830.5 149 c 128,-1,126
 863 192 863 192 863 271 c 0,127,128
 863 422 863 422 944 514 c 0,129,130
 1018 598 1018 598 1117 598 c 0,131,132
 1195 598 1195 598 1246 541 c 0,133,134
 1303 478 1303 478 1303 367 c 0,135,136
 1303 316 1303 316 1288 249 c 0,0,1
374 428 m 1,137,138
 378 450 378 450 356.5 471.5 c 128,-1,139
 335 493 335 493 310 493 c 0,140,141
 277 493 277 493 268 450 c 0,142,143
 266 436 266 436 266 431 c 0,144,145
 266 389 266 389 312 389 c 0,146,147
 333 389 333 389 353 400.5 c 128,-1,148
 373 412 373 412 374 428 c 1,137,138
EndSplineSet
EndChar

StartChar: u0C8B_base
Encoding: 65543 -1 116
Width: 869
Flags: W
LayerCount: 2
Fore
SplineSet
872 172 m 1,0,1
 853 84 853 84 798 36 c 128,-1,2
 743 -12 743 -12 679 -12 c 0,3,4
 614 -12 614 -12 563 34 c 0,5,6
 507 84 507 84 488 173 c 1,7,8
 452 102 452 102 408 58 c 0,9,10
 337 -13 337 -13 252 -13 c 0,11,12
 185 -13 185 -13 150 26 c 128,-1,13
 115 65 115 65 115 119 c 0,14,15
 115 177 115 177 152 222 c 128,-1,16
 189 267 189 267 249 267 c 0,17,18
 289 267 289 267 309 247 c 128,-1,19
 329 227 329 227 329 195 c 0,20,21
 329 155 329 155 300 121.5 c 128,-1,22
 271 88 271 88 224 88 c 0,23,24
 208 88 208 88 195 92.5 c 128,-1,25
 182 97 182 97 173 105 c 1,26,27
 173 77 173 77 197.5 56.5 c 128,-1,28
 222 36 222 36 254 36 c 0,29,30
 311 36 311 36 354 107 c 0,31,32
 387 162 387 162 405 248 c 0,33,34
 409 271 409 271 413 307 c 128,-1,35
 417 343 417 343 417 372 c 0,36,37
 417 443 417 443 398 486 c 0,38,39
 375 537 375 537 325 537 c 0,40,41
 292 537 292 537 266 519 c 0,42,43
 247 505 247 505 235 486 c 1,44,45
 250 490 250 490 266 490 c 0,46,47
 298 490 298 490 320 473.5 c 128,-1,48
 342 457 342 457 342 424 c 0,49,50
 342 412 342 412 338 396 c 0,51,52
 329 356 329 356 297 333 c 128,-1,53
 265 310 265 310 226 310 c 0,54,55
 186 310 186 310 158.5 333.5 c 128,-1,56
 131 357 131 357 131 403 c 0,57,58
 131 418 131 418 135 434 c 0,59,60
 149 499 149 499 206 542 c 128,-1,61
 263 585 263 585 333 585 c 0,62,63
 417 585 417 585 470 520 c 0,64,65
 533 443 533 443 533 294 c 1,66,67
 541 227 541 227 553 195 c 0,68,69
 593 95 593 95 685 95 c 0,70,71
 748 95 748 95 787.5 139 c 128,-1,72
 827 183 827 183 827 251 c 0,73,74
 827 308 827 308 798 359 c 0,75,76
 765 417 765 417 700 463 c 1,77,-1
 574 463 l 1,78,-1
 597 573 l 1,79,-1
 801 573 l 2,80,81
 854 573 854 573 882.5 601.5 c 128,-1,82
 911 630 911 630 911 667 c 0,83,84
 911 717 911 717 875 736 c 1,85,-1
 926 771 l 1,86,87
 951 757 951 757 963.5 730 c 128,-1,88
 976 703 976 703 976 664 c 0,89,90
 976 586 976 586 922 530 c 0,91,92
 858 463 858 463 741 463 c 1,93,94
 790 433 790 433 813 410 c 0,95,96
 887 335 887 335 887 236 c 0,97,98
 887 206 887 206 872 172 c 1,0,1
270 406 m 1,99,100
 274 425 274 425 266 432.5 c 128,-1,101
 258 440 258 440 240 440 c 0,102,103
 232 440 232 440 223 438 c 128,-1,104
 214 436 214 436 212 436 c 1,105,106
 211 434 211 434 207 420 c 128,-1,107
 203 406 203 406 203 398 c 0,108,109
 203 366 203 366 231 366 c 1,110,111
 242 365 242 365 255 376.5 c 128,-1,112
 268 388 268 388 270 406 c 1,99,100
275 171 m 1,113,114
 282 199 282 199 253 199 c 0,115,116
 234 199 234 199 213 187.5 c 128,-1,117
 192 176 192 176 192 164 c 0,118,119
 192 153 192 153 203.5 145.5 c 128,-1,120
 215 138 215 138 231 138 c 0,121,122
 265 138 265 138 275 171 c 1,113,114
EndSplineSet
EndChar

StartChar: u0C8C_base
Encoding: 65544 -1 118
Width: 789
Flags: W
LayerCount: 2
Fore
SplineSet
781 106 m 1,0,1
 770 53 770 53 720 20 c 0,2,3
 676 -9 676 -9 622 -9 c 0,4,5
 576 -9 576 -9 544 14.5 c 128,-1,6
 512 38 512 38 512 81 c 0,7,8
 512 95 512 95 516 114 c 0,9,10
 530 175 530 175 591 224 c 0,11,12
 725 331 725 331 734 380 c 0,13,14
 736 394 736 394 736 399 c 0,15,16
 736 434 736 434 707.5 450.5 c 128,-1,17
 679 467 679 467 639 467 c 0,18,19
 572 467 572 467 512 399 c 0,20,21
 493 377 493 377 465 330 c 1,22,-1
 444 329 l 1,23,24
 443 375 443 375 435 397 c 0,25,26
 409 466 409 466 330 466 c 0,27,28
 266 466 266 466 225 437.5 c 128,-1,29
 184 409 184 409 184 372 c 0,30,31
 184 347 184 347 201.5 329.5 c 128,-1,32
 219 312 219 312 259 301 c 1,33,34
 257 290 257 290 253 285 c 0,35,36
 239 267 239 267 210 267 c 0,37,38
 167 267 167 267 144 297 c 128,-1,39
 121 327 121 327 121 370 c 0,40,41
 121 445 121 445 181 512 c 0,42,43
 246 586 246 586 336 586 c 0,44,45
 403 586 403 586 443 542 c 0,46,47
 471 512 471 512 483 466 c 1,48,49
 519 510 519 510 563 543 c 0,50,51
 628 592 628 592 686 592 c 0,52,53
 749 592 749 592 789.5 554.5 c 128,-1,54
 830 517 830 517 830 460 c 0,55,56
 830 442 830 442 826 426 c 0,57,58
 808 354 808 354 743 297 c 0,59,60
 602 173 602 173 598 154.5 c 128,-1,61
 594 136 594 136 594 131 c 0,62,63
 594 85 594 85 644 85 c 0,64,65
 677 85 677 85 711 108.5 c 128,-1,66
 745 132 745 132 764 178 c 1,67,68
 771 170 771 170 773 166 c 0,69,70
 782 150 782 150 782 131 c 0,71,72
 782 126 782 126 781 106 c 1,0,1
EndSplineSet
EndChar

StartChar: u0C8E
Encoding: 3214 3214 119
Width: 760
Flags: W
LayerCount: 2
Fore
SplineSet
767 191 m 1,0,1
 749 108 749 108 699 52 c 0,2,3
 641 -12 641 -12 559 -12 c 0,4,5
 495 -12 495 -12 455 44 c 0,6,7
 429 80 429 80 414 137 c 1,8,9
 374 79 374 79 334 43 c 0,10,11
 269 -15 269 -15 206 -15 c 0,12,13
 138 -15 138 -15 101 29 c 0,14,15
 69 68 69 68 69 128 c 0,16,17
 69 151 69 151 76 179 c 0,18,19
 97 258 97 258 148 300 c 0,20,21
 192 336 192 336 246 336 c 0,22,23
 289 336 289 336 316 316 c 128,-1,24
 343 296 343 296 343 260 c 0,25,26
 343 253 343 253 339 230 c 128,-1,27
 335 207 335 207 312 189.5 c 128,-1,28
 289 172 289 172 274 177 c 1,29,30
 265 182 265 182 272 217 c 128,-1,31
 279 252 279 252 221 252 c 0,32,33
 192 252 192 252 167.5 238 c 128,-1,34
 143 224 143 224 138.5 202 c 128,-1,35
 134 180 134 180 134 175 c 0,36,37
 134 104 134 104 225 104 c 0,38,39
 303 104 303 104 373 171 c 0,40,41
 395 193 395 193 427 239 c 1,42,-1
 448 239 l 1,43,44
 457 195 457 195 468 173 c 0,45,46
 504 106 504 106 582 106 c 0,47,48
 635 106 635 106 677 149 c 128,-1,49
 719 192 719 192 733 259 c 1,50,51
 735 275 735 275 735 283 c 0,52,53
 735 360 735 360 650 418.5 c 128,-1,54
 565 477 565 477 444 477 c 0,55,56
 411 477 411 477 369 470 c 0,57,58
 364 469 364 469 358.5 469 c 128,-1,59
 353 469 353 469 351 469 c 0,60,61
 333 469 333 469 321 476 c 0,62,63
 300 487 300 487 300 510 c 0,64,65
 300 542 300 542 333 564 c 0,66,67
 373 590 373 590 445 590 c 0,68,69
 562 590 562 590 658 528 c 0,70,71
 785 446 785 446 785 291 c 0,72,73
 785 245 785 245 767 191 c 1,0,1
EndSplineSet
EndChar

StartChar: u0C8F
Encoding: 3215 3215 120
Width: 760
Flags: W
LayerCount: 2
Fore
SplineSet
569 105 m 1,0,1
 647 105 647 105 691.5 161.5 c 128,-1,2
 736 218 736 218 736 302 c 0,3,4
 736 394 736 394 683 469 c 0,5,6
 623 554 623 554 517 580 c 1,7,-1
 513 540 l 1,8,9
 504 493 504 493 461 461.5 c 128,-1,10
 418 430 418 430 367 430 c 0,11,12
 313 430 313 430 280 465 c 0,13,14
 241 505 241 505 241 583 c 0,15,16
 241 592 241 592 241 601 c 1,17,18
 243 615 243 615 243 622 c 1,19,-1
 251 658 l 1,20,-1
 295 658 l 1,21,22
 291 639 291 639 291 623 c 0,23,24
 291 577 291 577 319 550.5 c 128,-1,25
 347 524 347 524 384 524 c 0,26,27
 413 524 413 524 434.5 540 c 128,-1,28
 456 556 456 556 463 589 c 1,29,30
 465 605 465 605 446 631 c 0,31,32
 441 639 441 639 426 654 c 1,33,34
 602 633 602 633 695 524 c 0,35,36
 777 428 777 428 777 294 c 0,37,38
 777 173 777 173 712 84 c 0,39,40
 642 -11 642 -11 537 -11 c 0,41,42
 479 -11 479 -11 444 37 c 0,43,44
 421 70 421 70 410 120 c 1,45,46
 375 69 375 69 336 34 c 1,47,48
 276 -17 276 -17 218 -17 c 0,49,50
 143 -17 143 -17 103 32 c 0,51,52
 68 74 68 74 68 138 c 0,53,54
 68 164 68 164 73 182 c 0,55,56
 91 259 91 259 144 302 c 0,57,58
 190 339 190 339 246 339 c 0,59,60
 285 339 285 339 312 316 c 128,-1,61
 339 293 339 293 339 254 c 0,62,63
 339 247 339 247 337 231 c 1,64,65
 328 189 328 189 305 167.5 c 128,-1,66
 282 146 282 146 253 146 c 0,67,68
 221 146 221 146 202 172 c 1,69,70
 213 173 213 173 220 175 c 0,71,72
 263 191 263 191 270 224 c 0,73,74
 274 246 274 246 260 257 c 128,-1,75
 246 268 246 268 221 268 c 0,76,77
 192 268 192 268 163.5 250 c 128,-1,78
 135 232 135 232 127 200 c 1,79,80
 125 186 125 186 125 179 c 0,81,82
 125 142 125 142 155 120.5 c 128,-1,83
 185 99 185 99 232 99 c 0,84,85
 300 99 300 99 382 177 c 0,86,87
 408 202 408 202 450 255 c 1,88,89
 458 202 458 202 469 177 c 0,90,91
 502 99 502 99 569 105 c 1,0,1
EndSplineSet
EndChar

StartChar: u0C90
Encoding: 3216 3216 121
Width: 760
Flags: W
LayerCount: 2
Fore
SplineSet
568 96 m 0,0,1
 652 96 652 96 702 163 c 0,2,3
 748 224 748 224 748 306 c 0,4,5
 748 378 748 378 713 424 c 0,6,7
 674 475 674 475 604 475 c 0,8,9
 522 475 522 475 472 410 c 0,10,11
 456 389 456 389 438 343 c 1,12,-1
 417 339 l 1,13,14
 401 413 401 413 362.5 448.5 c 128,-1,15
 324 484 324 484 281 484 c 0,16,17
 249 484 249 484 224 467.5 c 128,-1,18
 199 451 199 451 194.5 431.5 c 128,-1,19
 190 412 190 412 190 407 c 0,20,21
 190 393 190 393 192.5 387 c 128,-1,22
 195 381 195 381 199 376 c 1,23,24
 188 372 188 372 179 372 c 0,25,26
 158 372 158 372 143.5 386.5 c 128,-1,27
 129 401 129 401 129 430 c 0,28,29
 129 435 129 435 131 454 c 1,30,31
 143 522 143 522 185.5 558 c 128,-1,32
 228 594 228 594 284 594 c 0,33,34
 333 594 333 594 374 563.5 c 128,-1,35
 415 533 415 533 434 475 c 1,36,37
 459 515 459 515 496 544 c 0,38,39
 550 586 550 586 617 586 c 0,40,41
 703 586 703 586 749 516 c 0,42,43
 791 453 791 453 791 353 c 0,44,45
 791 215 791 215 723 105 c 0,46,47
 649 -15 649 -15 539 -15 c 0,48,49
 485 -15 485 -15 449 29 c 0,50,51
 424 61 424 61 412 105 c 1,52,53
 375 56 375 56 339 30 c 0,54,55
 278 -16 278 -16 217 -16 c 0,56,57
 150 -16 150 -16 114.5 30 c 128,-1,58
 79 76 79 76 79 143 c 0,59,60
 79 169 79 169 84 190 c 0,61,62
 100 261 100 261 157 304 c 0,63,64
 207 341 207 341 264 341 c 0,65,66
 300 341 300 341 324.5 322.5 c 128,-1,67
 349 304 349 304 349 268 c 0,68,69
 349 256 349 256 345 240 c 0,70,71
 337 203 337 203 310.5 182 c 128,-1,72
 284 161 284 161 254 161 c 0,73,74
 222 161 222 161 210 183 c 1,75,76
 231 187 231 187 240 191 c 0,77,78
 272 205 272 205 277 230 c 0,79,80
 281 252 281 252 267.5 265 c 128,-1,81
 254 278 254 278 231 278 c 0,82,83
 202 278 202 278 176.5 260 c 128,-1,84
 151 242 151 242 143 208 c 0,85,86
 141 201 141 201 141 193 c 128,-1,87
 141 185 141 185 141 181 c 0,88,89
 141 144 141 144 169.5 124 c 128,-1,90
 198 104 198 104 241 104 c 0,91,92
 304 104 304 104 358 137 c 0,93,94
 419 174 419 174 431 231 c 1,95,-1
 452 231 l 1,96,97
 453 205 453 205 455 190 c 1,98,99
 477 97 477 97 568 96 c 0,0,1
EndSplineSet
EndChar

StartChar: u0C92
Encoding: 3218 3218 122
Width: 800
Flags: W
LayerCount: 2
Fore
SplineSet
719 305 m 0,0,1
 766 305 766 305 790.5 278 c 128,-1,2
 815 251 815 251 815 209 c 0,3,4
 815 134 815 134 755 64 c 0,5,6
 690 -13 690 -13 599 -13 c 0,7,8
 531 -13 531 -13 491 31 c 0,9,10
 466 59 466 59 452 106 c 1,11,12
 415 60 415 60 373 30 c 1,13,14
 308 -19 308 -19 248 -19 c 0,15,16
 187 -19 187 -19 146.5 18.5 c 128,-1,17
 106 56 106 56 106 113 c 0,18,19
 106 121 106 121 106.5 126.5 c 128,-1,20
 107 132 107 132 111 150 c 0,21,22
 130 234 130 234 231.5 308.5 c 128,-1,23
 333 383 333 383 341 423 c 0,24,25
 342 427 342 427 342 431.5 c 128,-1,26
 342 436 342 436 342 437 c 0,27,28
 342 457 342 457 326 470 c 128,-1,29
 310 483 310 483 288 483 c 0,30,31
 263 483 263 483 241.5 468.5 c 128,-1,32
 220 454 220 454 215 429 c 256,33,34
 210 404 210 404 239 389 c 0,35,36
 248 385 248 385 269 380 c 1,37,38
 244 359 244 359 211 359 c 256,39,40
 178 359 178 359 155 380.5 c 128,-1,41
 132 402 132 402 132 438 c 0,42,43
 132 450 132 450 136 466 c 0,44,45
 151 526 151 526 199.5 560 c 128,-1,46
 248 594 248 594 305 594 c 0,47,48
 355 594 355 594 389 567 c 128,-1,49
 423 540 423 540 423 490 c 0,50,51
 423 479 423 479 418 451 c 1,52,53
 403 390 403 390 343 343 c 0,54,55
 210 237 210 237 201 190 c 1,56,57
 199 174 199 174 199 169 c 0,58,59
 199 132 199 132 227 117 c 128,-1,60
 255 102 255 102 296 102 c 0,61,62
 363 102 363 102 424 172 c 0,63,64
 443 194 443 194 470 241 c 1,65,-1
 489 240 l 1,66,67
 489 214 489 214 491 199 c 0,68,69
 509 106 509 106 601 106 c 0,70,71
 668 106 668 106 708.5 134 c 128,-1,72
 749 162 749 162 749 199 c 0,73,74
 749 222 749 222 731.5 240.5 c 128,-1,75
 714 259 714 259 675 270 c 1,76,77
 674 275 674 275 678 283 c 0,78,79
 689 305 689 305 719 305 c 0,0,1
EndSplineSet
EndChar

StartChar: u0C93
Encoding: 3219 3219 123
Width: 800
Flags: W
LayerCount: 2
Fore
SplineSet
721 309 m 1,0,1
 770 309 770 309 793 282.5 c 128,-1,2
 816 256 816 256 816 212 c 0,3,4
 816 134 816 134 756 64 c 0,5,6
 691 -13 691 -13 600 -13 c 0,7,8
 533 -13 533 -13 491 33 c 0,9,10
 466 61 466 61 452 108 c 1,11,12
 412 59 412 59 373 30 c 0,13,14
 308 -19 308 -19 248 -19 c 0,15,16
 187 -19 187 -19 146.5 20 c 128,-1,17
 106 59 106 59 106 115 c 0,18,19
 106 123 106 123 106.5 128.5 c 128,-1,20
 107 134 107 134 111 152 c 0,21,22
 127 223 127 223 194 281 c 0,23,24
 336 405 336 405 338.5 420 c 128,-1,25
 341 435 341 435 341 446 c 0,26,27
 341 469 341 469 326 480 c 128,-1,28
 311 491 311 491 289 491 c 0,29,30
 263 491 263 491 242 477 c 128,-1,31
 221 463 221 463 216 437 c 256,32,33
 211 411 211 411 240 396 c 0,34,35
 249 392 249 392 270 387 c 1,36,37
 245 366 245 366 212 366 c 0,38,39
 180 366 180 366 157 389 c 128,-1,40
 134 412 134 412 134 451 c 0,41,42
 134 470 134 470 136 479 c 0,43,44
 144 519 144 519 175.5 551 c 128,-1,45
 207 583 207 583 251 594 c 1,46,47
 226 601 226 601 215 608 c 0,48,49
 179 630 179 630 179 666 c 0,50,51
 179 678 179 678 180 683 c 0,52,53
 189 726 189 726 226 751.5 c 128,-1,54
 263 777 263 777 310 777 c 256,55,56
 357 777 357 777 397 749 c 1,57,58
 361 742 361 742 343 735 c 0,59,60
 286 713 286 713 278 673 c 0,61,62
 277 668 277 668 277 662.5 c 128,-1,63
 277 657 277 657 277 655 c 0,64,65
 277 629 277 629 291 617 c 0,66,67
 295 613 295 613 306 609 c 1,68,69
 343 609 343 609 378 586 c 0,70,71
 422 556 422 556 422 501 c 0,72,73
 422 494 422 494 421.5 486 c 128,-1,74
 421 478 421 478 417 463 c 1,75,76
 405 402 405 402 345 353 c 0,77,78
 211 244 211 244 200 197 c 1,79,80
 198 181 198 181 198 176 c 0,81,82
 198 140 198 140 225.5 123.5 c 128,-1,83
 253 107 253 107 293 107 c 0,84,85
 360 107 360 107 421 178 c 0,86,87
 440 201 440 201 467 248 c 1,88,-1
 486 247 l 1,89,90
 486 220 486 220 488 205 c 0,91,92
 506 110 506 110 598 110 c 0,93,94
 665 110 665 110 706 138.5 c 128,-1,95
 747 167 747 167 747 206 c 0,96,97
 747 229 747 229 729 248.5 c 128,-1,98
 711 268 711 268 674 279 c 1,99,100
 672 291 672 291 686 302 c 128,-1,101
 700 313 700 313 721 309 c 1,0,1
EndSplineSet
EndChar

StartChar: u0C94
Encoding: 3220 3220 124
Width: 760
Flags: W
LayerCount: 2
Fore
SplineSet
681 308 m 1,0,1
 728 308 728 308 752.5 281 c 128,-1,2
 777 254 777 254 777 211 c 0,3,4
 777 134 777 134 717 64 c 0,5,6
 652 -13 652 -13 560 -13 c 0,7,8
 499 -13 499 -13 463 34 c 0,9,10
 437 67 437 67 429 117 c 1,11,12
 397 68 397 68 353 32 c 0,13,14
 292 -19 292 -19 235 -19 c 0,15,16
 174 -19 174 -19 134.5 19.5 c 128,-1,17
 95 58 95 58 95 116 c 0,18,19
 95 132 95 132 99 151 c 0,20,21
 117 223 117 223 187 280 c 0,22,23
 339 406 339 406 341.5 419 c 128,-1,24
 344 432 344 432 344 443 c 0,25,26
 344 465 344 465 328 478 c 128,-1,27
 312 491 312 491 287 491 c 256,28,29
 262 491 262 491 238.5 476.5 c 128,-1,30
 215 462 215 462 210 436 c 0,31,32
 205 408 205 408 240 392 c 0,33,34
 251 387 251 387 276 382 c 1,35,36
 244 360 244 360 208 360 c 0,37,38
 176 360 176 360 154.5 378.5 c 128,-1,39
 133 397 133 397 133 433 c 0,40,41
 133 438 133 438 135 457 c 1,42,43
 143 496 143 496 169 529 c 0,44,45
 191 557 191 557 220 573 c 1,46,-1
 164 573 l 1,47,-1
 182 661 l 1,48,-1
 363 661 l 2,49,50
 384 661 384 661 384 676 c 0,51,52
 384 684 384 684 373 688 c 1,53,-1
 187 688 l 1,54,-1
 212 805 l 1,55,-1
 675 805 l 2,56,57
 773 805 773 805 824 751 c 0,58,59
 870 702 870 702 870 624 c 0,60,61
 870 524 870 524 803 442 c 0,62,63
 732 354 732 354 632 354 c 0,64,65
 562 354 562 354 529.5 386.5 c 128,-1,66
 497 419 497 419 497 473 c 0,67,68
 497 538 497 538 543.5 594.5 c 128,-1,69
 590 651 590 651 654 651 c 0,70,71
 700 651 700 651 723 628 c 128,-1,72
 746 605 746 605 746 570 c 0,73,74
 746 531 746 531 719 498.5 c 128,-1,75
 692 466 692 466 652 466 c 0,76,77
 619 466 619 466 604 478.5 c 128,-1,78
 589 491 589 491 589 513 c 0,79,80
 589 538 589 538 607.5 558 c 128,-1,81
 626 578 626 578 654 578 c 0,82,83
 666 578 666 578 675 574.5 c 128,-1,84
 684 571 684 571 693 564 c 1,85,86
 692 575 692 575 678 583 c 128,-1,87
 664 591 664 591 645 591 c 0,88,89
 605 591 605 591 576 560.5 c 128,-1,90
 547 530 547 530 547 494 c 0,91,92
 547 464 547 464 572.5 443 c 128,-1,93
 598 422 598 422 652 422 c 0,94,95
 722 422 722 422 768.5 473 c 128,-1,96
 815 524 815 524 815 584 c 0,97,98
 815 628 815 628 787 657 c 128,-1,99
 759 686 759 686 702 686 c 2,100,-1
 434 686 l 1,101,102
 443 667 443 667 443 648 c 0,103,104
 443 588 443 588 376 572 c 1,105,106
 397 560 397 560 410 539.5 c 128,-1,107
 423 519 423 519 423 486 c 0,108,109
 423 477 423 477 421 458 c 1,110,111
 410 397 410 397 346 350 c 0,112,113
 200 241 200 241 189 194 c 1,114,115
 187 178 187 178 187 173 c 0,116,117
 187 137 187 137 219 119 c 0,118,119
 244 105 244 105 286 105 c 0,120,121
 353 105 353 105 407 175 c 0,122,123
 425 197 425 197 448 244 c 1,124,-1
 467 244 l 1,125,126
 467 198 467 198 474 176 c 0,127,128
 495 108 495 108 567 108 c 0,129,130
 631 108 631 108 672 136.5 c 128,-1,131
 713 165 713 165 713 202 c 0,132,133
 713 253 713 253 639 275 c 1,134,135
 638 283 638 283 649.5 296 c 128,-1,136
 661 309 661 309 681 308 c 1,0,1
EndSplineSet
EndChar

StartChar: u0C95.base
Encoding: 65545 -1 126
Width: 522
Flags: W
AnchorPoint: "s" 278 -62 basechar 0
LayerCount: 2
Fore
SplineSet
567 336 m 1,0,-1
 467 336 l 1,1,2
 490 304 490 304 491 302 c 0,3,4
 505 276 505 276 505 240 c 0,5,6
 505 211 505 211 498 179 c 0,7,8
 479 90 479 90 412 41 c 0,9,10
 351 -3 351 -3 273 -3 c 0,11,12
 204 -3 204 -3 160 32 c 0,13,14
 112 71 112 71 112 138 c 0,15,16
 112 161 112 161 117 182 c 0,17,18
 128 236 128 236 154.5 275.5 c 128,-1,19
 181 315 181 315 214 337 c 1,20,-1
 105 337 l 1,21,-1
 123 421 l 1,22,-1
 345 421 l 2,23,24
 371 421 371 421 371 451 c 0,25,26
 371 470 371 470 355 470 c 2,27,-1
 139 470 l 1,28,-1
 162 579 l 1,29,-1
 464 579 l 1,30,-1
 431 420 l 1,31,-1
 587 420 l 1,32,-1
 567 336 l 1,0,-1
432 216 m 0,33,34
 434 224 434 224 434 231.5 c 128,-1,35
 434 239 434 239 434 243 c 0,36,37
 434 280 434 280 407.5 300 c 128,-1,38
 381 320 381 320 341 320 c 0,39,40
 291 320 291 320 247 291 c 128,-1,41
 203 262 203 262 192 212 c 1,42,43
 190 196 190 196 190 189 c 0,44,45
 190 152 190 152 219 130 c 128,-1,46
 248 108 248 108 291 108 c 0,47,48
 340 108 340 108 379.5 135.5 c 128,-1,49
 419 163 419 163 432 216 c 0,33,34
EndSplineSet
EndChar

StartChar: u0C95.imathra
Encoding: 65546 -1 127
Width: 522
Flags: W
AnchorPoint: "s" 270 -80 basechar 0
LayerCount: 2
Fore
SplineSet
560 305 m 1,0,-1
 461 305 l 1,1,2
 483 282 483 282 491 258.5 c 128,-1,3
 499 235 499 235 499 206 c 0,4,5
 499 190 499 190 495 169 c 1,6,7
 474 83 474 83 402 32 c 0,8,9
 337 -14 337 -14 259 -14 c 0,10,11
 192 -14 192 -14 147 22 c 128,-1,12
 102 58 102 58 102 125 c 0,13,14
 102 144 102 144 110 181.5 c 128,-1,15
 118 219 118 219 146 256 c 0,16,17
 167 283 167 283 196 305 c 1,18,-1
 94 305 l 1,19,-1
 119 424 l 1,20,-1
 338 424 l 1,21,22
 382 442 382 442 404 472 c 1,23,24
 393 467 393 467 380.5 463 c 128,-1,25
 368 459 368 459 353 459 c 0,26,27
 314 459 314 459 294.5 480 c 128,-1,28
 275 501 275 501 275 535 c 0,29,30
 275 591 275 591 317.5 643.5 c 128,-1,31
 360 696 360 696 418 696 c 0,32,33
 465 696 465 696 490.5 667.5 c 128,-1,34
 516 639 516 639 516 595 c 256,35,36
 516 551 516 551 489.5 504.5 c 128,-1,37
 463 458 463 458 413 426 c 1,38,-1
 583 426 l 1,39,-1
 560 305 l 1,0,-1
389 612 m 0,40,41
 366 612 366 612 351 597 c 128,-1,42
 336 582 336 582 336 563 c 0,43,44
 336 534 336 534 371 534 c 0,45,46
 394 534 394 534 409 549 c 128,-1,47
 424 564 424 564 424 583 c 0,48,49
 424 612 424 612 389 612 c 0,40,41
429 211 m 0,50,51
 431 220 431 220 431 239 c 0,52,53
 431 276 431 276 404 297.5 c 128,-1,54
 377 319 377 319 337 319 c 0,55,56
 286 319 286 319 242 289 c 128,-1,57
 198 259 198 259 186 205 c 1,58,59
 184 186 184 186 184 179 c 0,60,61
 184 139 184 139 212.5 117.5 c 128,-1,62
 241 96 241 96 284 96 c 0,63,64
 333 96 333 96 375.5 126 c 128,-1,65
 418 156 418 156 429 211 c 0,50,51
EndSplineSet
LCarets2: 1 0
EndChar

StartChar: u0C95.sub
Encoding: 65547 -1 128
Width: 237
Flags: W
LayerCount: 2
Fore
SplineSet
204 -155 m 1,0,-1
 122 -155 l 1,1,2
 140 -178 140 -178 140 -207 c 0,3,4
 140 -215 140 -215 138 -231 c 1,5,6
 126 -292 126 -292 79.5 -325.5 c 128,-1,7
 33 -359 33 -359 -20 -359 c 0,8,9
 -64 -359 -64 -359 -95.5 -333.5 c 128,-1,10
 -127 -308 -127 -308 -127 -261 c 0,11,12
 -127 -243 -127 -243 -125 -232 c 0,13,14
 -117 -186 -117 -186 -85 -154 c 1,15,-1
 -161 -154 l 1,16,-1
 -143 -73 l 1,17,-1
 -2 -73 l 1,18,19
 38 -33 38 -33 56 9 c 128,-1,20
 74 51 74 51 74 87 c 0,21,22
 74 99 74 99 71.5 113.5 c 128,-1,23
 69 128 69 128 67 139 c 1,24,-1
 92 139 l 1,25,26
 113 137 113 137 127.5 117 c 128,-1,27
 142 97 142 97 142 64 c 0,28,29
 142 32 142 32 127 2 c 0,30,31
 108 -35 108 -35 68 -71 c 1,32,-1
 226 -71 l 1,33,-1
 204 -155 l 1,0,-1
89 -205 m 1,34,35
 93 -176 93 -176 74.5 -156 c 128,-1,36
 56 -136 56 -136 24 -136 c 256,37,38
 -8 -136 -8 -136 -33.5 -156 c 128,-1,39
 -59 -176 -59 -176 -66 -208 c 0,40,41
 -67 -215 -67 -215 -67 -226 c 0,42,43
 -67 -252 -67 -252 -49 -266 c 128,-1,44
 -31 -280 -31 -280 -5 -280 c 0,45,46
 28 -280 28 -280 55 -260.5 c 128,-1,47
 82 -241 82 -241 89 -205 c 1,34,35
EndSplineSet
LCarets2: 1 0
EndChar

StartChar: u0C95_u0CC3.sub
Encoding: 65548 -1 129
Width: 481
Flags: W
LayerCount: 2
Fore
SplineSet
259 -254 m 1,0,-1
 250 -279 l 1,1,2
 314 -256 314 -256 347.5 -201 c 128,-1,3
 381 -146 381 -146 381 -75 c 0,4,5
 381 -3 381 -3 349.5 61 c 128,-1,6
 318 125 318 125 258 165 c 1,7,-1
 298 194 l 1,8,9
 372 143 372 143 407 73 c 128,-1,10
 442 3 442 3 442 -75 c 0,11,12
 442 -191 442 -191 372 -279 c 128,-1,13
 302 -367 302 -367 202 -367 c 0,14,15
 167 -367 167 -367 142.5 -352.5 c 128,-1,16
 118 -338 118 -338 107 -320 c 1,17,18
 59 -369 59 -369 -19 -369 c 0,19,20
 -63 -369 -63 -369 -90 -348 c 128,-1,21
 -117 -327 -117 -327 -117 -281 c 0,22,23
 -117 -266 -117 -266 -113 -247 c 0,24,25
 -102 -197 -102 -197 -70 -167 c 1,26,-1
 -145 -167 l 1,27,-1
 -127 -86 l 1,28,-1
 6 -86 l 1,29,30
 99 7 99 7 99 103 c 0,31,32
 99 146 99 146 76 185 c 1,33,-1
 125 176 l 2,34,35
 169 168 169 168 169 104 c 0,36,37
 169 60 169 60 144 10 c 128,-1,38
 119 -40 119 -40 68 -84 c 1,39,-1
 238 -84 l 1,40,-1
 220 -165 l 1,41,-1
 141 -165 l 1,42,-1
 148 -183 l 1,43,44
 176 -171 176 -171 197 -171 c 0,45,46
 227 -171 227 -171 245 -190.5 c 128,-1,47
 263 -210 263 -210 263 -240 c 0,48,49
 263 -251 263 -251 259 -254 c 1,0,-1
214 -256 m 0,50,51
 218 -238 218 -238 208.5 -228.5 c 128,-1,52
 199 -219 199 -219 183 -219 c 0,53,54
 147 -219 147 -219 139 -253 c 0,55,56
 134 -275 134 -275 150.5 -286 c 128,-1,57
 167 -297 167 -297 197 -295 c 1,58,59
 202 -290 202 -290 203 -286 c 1,60,61
 211 -272 211 -272 214 -256 c 0,50,51
99 -219 m 0,62,63
 104 -191 104 -191 85.5 -170 c 128,-1,64
 67 -149 67 -149 38 -149 c 0,65,66
 5 -149 5 -149 -22 -169 c 128,-1,67
 -49 -189 -49 -189 -56 -221 c 0,68,69
 -57 -226 -57 -226 -57 -237 c 0,70,71
 -57 -262 -57 -262 -38.5 -276.5 c 128,-1,72
 -20 -291 -20 -291 7 -291 c 0,73,74
 39 -291 39 -291 66 -271.5 c 128,-1,75
 93 -252 93 -252 99 -219 c 0,62,63
EndSplineSet
EndChar

StartChar: u0C96
Encoding: 3222 3222 130
Width: 855
Flags: W
LayerCount: 2
Fore
SplineSet
589 -8 m 0,0,1
 543 -8 543 -8 501.5 24 c 128,-1,2
 460 56 460 56 427 118 c 1,3,4
 387 75 387 75 337 43 c 0,5,6
 258 -7 258 -7 186 -7 c 0,7,8
 121 -7 121 -7 87.5 20 c 128,-1,9
 54 47 54 47 54 90 c 0,10,11
 54 150 54 150 114 197 c 0,12,13
 181 250 181 250 284 250 c 0,14,15
 334 250 334 250 377 235 c 1,16,17
 406 226 406 226 427 211 c 1,18,19
 457 241 457 241 478.5 294 c 128,-1,20
 500 347 500 347 500 394 c 0,21,22
 500 443 500 443 476.5 472 c 128,-1,23
 453 501 453 501 400 501 c 0,24,25
 353 501 353 501 320 475 c 0,26,27
 292 453 292 453 292 428 c 0,28,29
 292 412 292 412 306 408 c 1,30,-1
 308 427 l 1,31,32
 313 449 313 449 334 463 c 128,-1,33
 355 477 355 477 378 477 c 0,34,35
 399 477 399 477 411.5 466 c 128,-1,36
 424 455 424 455 424 433 c 0,37,38
 424 428 424 428 422 414 c 1,39,40
 414 379 414 379 385 359 c 128,-1,41
 356 339 356 339 321 339 c 0,42,43
 281 339 281 339 261 362.5 c 128,-1,44
 241 386 241 386 241 425 c 0,45,46
 241 485 241 485 285 536 c 0,47,48
 335 593 335 593 407 593 c 0,49,50
 481 593 481 593 518 540 c 0,51,52
 551 493 551 493 551 418 c 0,53,54
 551 351 551 351 529 286 c 128,-1,55
 507 221 507 221 471 181 c 1,56,57
 489 156 489 156 510 144 c 1,58,59
 549 119 549 119 603 119 c 0,60,61
 726 119 726 119 798 215 c 0,62,63
 862 300 862 300 862 419 c 0,64,65
 862 508 862 508 823 566 c 0,66,67
 780 631 780 631 706 631 c 0,68,69
 664 631 664 631 636 613 c 0,70,71
 624 605 624 605 617 605 c 0,72,73
 581 605 581 605 581 640 c 0,74,75
 581 670 581 670 613 696 c 0,76,77
 650 726 650 726 708 726 c 0,78,79
 803 726 803 726 857 637 c 0,80,81
 907 553 907 553 907 426 c 0,82,83
 907 256 907 256 828 132 c 0,84,85
 739 -9 739 -9 589 -8 c 0,0,1
376 166 m 1,86,87
 360 178 360 178 341 186 c 0,88,89
 306 200 306 200 265 200 c 0,90,91
 209 200 209 200 166.5 173.5 c 128,-1,92
 124 147 124 147 124 121 c 0,93,94
 124 92 124 92 178 92 c 256,95,96
 232 92 232 92 297 121 c 0,97,98
 334 137 334 137 376 166 c 1,86,87
EndSplineSet
LCarets2: 1 0
EndChar

StartChar: u0C96.base
Encoding: 65549 -1 131
Width: 897
Flags: W
LayerCount: 2
Fore
SplineSet
803 470 m 1,0,-1
 598 470 l 1,1,-1
 621 579 l 1,2,-1
 786 579 l 1,3,4
 857 564 857 564 895.5 498.5 c 128,-1,5
 934 433 934 433 934 344 c 0,6,7
 934 206 934 206 857 106 c 0,8,9
 769 -8 769 -8 625 -8 c 0,10,11
 578 -8 578 -8 531.5 24.5 c 128,-1,12
 485 57 485 57 439 124 c 1,13,14
 397 82 397 82 343 49 c 0,15,16
 257 -4 257 -4 185 -4 c 0,17,18
 120 -4 120 -4 86.5 23 c 128,-1,19
 53 50 53 50 53 92 c 0,20,21
 53 152 53 152 111 198 c 0,22,23
 178 251 178 251 283 251 c 0,24,25
 333 251 333 251 380 236 c 0,26,27
 409 227 409 227 434 213 c 1,28,29
 463 242 463 242 483 292 c 128,-1,30
 503 342 503 342 503 388 c 0,31,32
 503 438 503 438 478 469.5 c 128,-1,33
 453 501 453 501 397 501 c 0,34,35
 348 501 348 501 319 477.5 c 128,-1,36
 290 454 290 454 290 429 c 0,37,38
 290 414 290 414 304 409 c 1,39,-1
 306 428 l 1,40,41
 311 450 311 450 331 463 c 128,-1,42
 351 476 351 476 374 476 c 0,43,44
 393 476 393 476 406 465.5 c 128,-1,45
 419 455 419 455 419 434 c 0,46,47
 419 422 419 422 417 414 c 0,48,49
 410 381 410 381 381 360 c 128,-1,50
 352 339 352 339 317 339 c 0,51,52
 278 339 278 339 256.5 363.5 c 128,-1,53
 235 388 235 388 235 424 c 0,54,55
 235 485 235 485 279 535 c 0,56,57
 329 592 329 592 403 592 c 0,58,59
 480 592 480 592 519 536 c 0,60,61
 554 486 554 486 554 407 c 0,62,63
 554 344 554 344 534.5 284 c 128,-1,64
 515 224 515 224 482 185 c 1,65,66
 505 164 505 164 538 146 c 1,67,68
 591 119 591 119 644 119 c 0,69,70
 757 119 757 119 824 191 c 0,71,72
 884 255 884 255 884 341 c 0,73,74
 884 388 884 388 862.5 423.5 c 128,-1,75
 841 459 841 459 803 470 c 1,0,-1
381 168 m 1,76,77
 355 184 355 184 323 192 c 128,-1,78
 291 200 291 200 259 200 c 0,79,80
 201 200 201 200 160.5 174.5 c 128,-1,81
 120 149 120 149 120 122 c 0,82,83
 120 93 120 93 174 93 c 256,84,85
 228 93 228 93 296 122 c 0,86,87
 340 141 340 141 381 168 c 1,76,77
EndSplineSet
EndChar

StartChar: u0C96.imathra
Encoding: 65550 -1 132
Width: 897
Flags: W
LayerCount: 2
Fore
SplineSet
796 599 m 1,0,1
 797 587 797 587 797 580 c 0,2,3
 797 537 797 537 778 510 c 0,4,5
 750 471 750 471 687 471 c 0,6,7
 634 471 634 471 600.5 510.5 c 128,-1,8
 567 550 567 550 567 603 c 256,9,10
 567 656 567 656 602.5 693 c 128,-1,11
 638 730 638 730 708 730 c 0,12,13
 814 730 814 730 877 628 c 0,14,15
 934 535 934 535 934 397 c 0,16,17
 934 237 934 237 859 124 c 0,18,19
 774 -4 774 -4 627 -4 c 0,20,21
 578 -4 578 -4 531.5 27 c 128,-1,22
 485 58 485 58 439 125 c 1,23,24
 399 85 399 85 342 51 c 0,25,26
 256 -2 256 -2 185 -2 c 0,27,28
 120 -2 120 -2 86.5 25 c 128,-1,29
 53 52 53 52 53 95 c 0,30,31
 53 155 53 155 113 202 c 0,32,33
 180 255 180 255 283 255 c 0,34,35
 334 255 334 255 380 240 c 0,36,37
 405 232 405 232 434 216 c 1,38,39
 463 245 463 245 483 296.5 c 128,-1,40
 503 348 503 348 503 394 c 0,41,42
 503 445 503 445 481 473 c 0,43,44
 455 506 455 506 399 506 c 0,45,46
 352 506 352 506 319 480 c 0,47,48
 291 458 291 458 291 433 c 0,49,50
 291 417 291 417 305 413 c 1,51,-1
 307 432 l 1,52,53
 312 454 312 454 333 468 c 128,-1,54
 354 482 354 482 377 482 c 0,55,56
 398 482 398 482 410.5 471 c 128,-1,57
 423 460 423 460 423 438 c 0,58,59
 423 433 423 433 421 419 c 1,60,61
 413 384 413 384 384 364 c 128,-1,62
 355 344 355 344 320 344 c 0,63,64
 280 344 280 344 260 367.5 c 128,-1,65
 240 391 240 391 240 430 c 0,66,67
 240 490 240 490 284 541 c 0,68,69
 334 598 334 598 406 598 c 0,70,71
 483 598 483 598 522 542 c 0,72,73
 557 492 557 492 557 413 c 0,74,75
 557 350 557 350 536 286.5 c 128,-1,76
 515 223 515 223 483 187 c 1,77,78
 502 166 502 166 532 150 c 0,79,80
 581 124 581 124 635 124 c 0,81,82
 761 124 761 124 828 209 c 0,83,84
 885 281 885 281 885 393 c 0,85,86
 885 464 885 464 861.5 522 c 128,-1,87
 838 580 838 580 796 599 c 1,0,1
745 595 m 1,88,89
 747 610 747 610 745 621 c 1,90,91
 737 623 737 623 722 627 c 128,-1,92
 707 631 707 631 696 631 c 0,93,94
 671 631 671 631 653.5 621.5 c 128,-1,95
 636 612 636 612 629 589 c 1,96,97
 624 566 624 566 637 553.5 c 128,-1,98
 650 541 650 541 675 541 c 0,99,100
 698 541 698 541 718 555 c 128,-1,101
 738 569 738 569 745 595 c 1,88,89
384 172 m 1,102,103
 362 188 362 188 329.5 197 c 128,-1,104
 297 206 297 206 264 206 c 0,105,106
 208 206 208 206 165.5 179.5 c 128,-1,107
 123 153 123 153 123 127 c 0,108,109
 123 98 123 98 177 98 c 0,110,111
 230 98 230 98 300 127 c 0,112,113
 342 145 342 145 384 172 c 1,102,103
EndSplineSet
LCarets2: 1 0
EndChar

StartChar: u0C96.sub
Encoding: 65551 -1 133
Width: 237
Flags: W
LayerCount: 2
Fore
SplineSet
134 123 m 1,0,1
 166 123 166 123 184 77 c 128,-1,2
 202 31 202 31 202 -39 c 0,3,4
 202 -170 202 -170 153 -273 c 0,5,6
 96 -394 96 -394 1 -394 c 0,7,8
 -46 -394 -46 -394 -80 -368 c 0,9,10
 -102 -352 -102 -352 -131 -315 c 1,11,12
 -153 -341 -153 -341 -185 -360 c 0,13,14
 -234 -389 -234 -389 -287 -389 c 256,15,16
 -340 -389 -340 -389 -369 -367.5 c 128,-1,17
 -398 -346 -398 -346 -398 -316 c 0,18,19
 -398 -276 -398 -276 -359 -246 c 0,20,21
 -315 -212 -315 -212 -246 -212 c 0,22,23
 -209 -212 -209 -212 -174 -226 c 0,24,25
 -163 -230 -163 -230 -133 -248 c 1,26,27
 -114 -230 -114 -230 -104.5 -207 c 128,-1,28
 -95 -184 -95 -184 -95 -158 c 0,29,30
 -95 -133 -95 -133 -106.5 -119 c 128,-1,31
 -118 -105 -118 -105 -146 -105 c 0,32,33
 -172 -105 -172 -105 -174 -127 c 1,34,35
 -173 -122 -173 -122 -170.5 -116.5 c 128,-1,36
 -168 -111 -168 -111 -157 -111 c 0,37,38
 -123 -111 -123 -111 -123 -143 c 0,39,40
 -123 -162 -123 -162 -141 -178.5 c 128,-1,41
 -159 -195 -159 -195 -188 -195 c 0,42,43
 -210 -195 -210 -195 -221 -182.5 c 128,-1,44
 -232 -170 -232 -170 -232 -149 c 0,45,46
 -232 -116 -232 -116 -203.5 -85 c 128,-1,47
 -175 -54 -175 -54 -132 -54 c 0,48,49
 -95 -54 -95 -54 -71.5 -81.5 c 128,-1,50
 -48 -109 -48 -109 -48 -152 c 0,51,52
 -48 -212 -48 -212 -96 -275 c 1,53,54
 -75 -291 -75 -291 -53.5 -298.5 c 128,-1,55
 -32 -306 -32 -306 -11 -306 c 0,56,57
 57 -306 57 -306 101 -248 c 128,-1,58
 145 -190 145 -190 145 -106 c 0,59,60
 145 -56 145 -56 129 -6.5 c 128,-1,61
 113 43 113 43 78 89 c 1,62,63
 85 100 85 100 90 104 c 0,64,65
 108 120 108 120 134 123 c 1,0,1
-169 -284 m 1,66,67
 -174 -279 -174 -279 -199.5 -271.5 c 128,-1,68
 -225 -264 -225 -264 -257 -264 c 0,69,70
 -287 -264 -287 -264 -306.5 -274.5 c 128,-1,71
 -326 -285 -326 -285 -326 -299 c 0,72,73
 -326 -321 -326 -321 -275 -321 c 0,74,75
 -236 -321 -236 -321 -209.5 -309.5 c 128,-1,76
 -183 -298 -183 -298 -169 -284 c 1,66,67
EndSplineSet
LCarets2: 1 0
EndChar

StartChar: u0C97.base
Encoding: 65552 -1 135
Width: 653
Flags: W
LayerCount: 2
Fore
SplineSet
617 -2 m 1,0,-1
 505 9 l 1,1,2
 524 95 524 95 536.5 174.5 c 128,-1,3
 549 254 549 254 549 302 c 0,4,5
 549 471 549 471 436 471 c 0,6,7
 239 471 239 471 153 -5 c 1,8,-1
 43 -5 l 1,9,10
 85 195 85 195 145 305 c 1,11,12
 199 407 199 407 288 467 c 1,13,-1
 141 467 l 1,14,-1
 164 576 l 1,15,-1
 603 576 l 1,16,-1
 580 467 l 1,17,18
 615 441 615 441 634.5 391 c 128,-1,19
 654 341 654 341 654 263 c 0,20,21
 654 209 654 209 646 146 c 128,-1,22
 638 83 638 83 617 -2 c 1,0,-1
EndSplineSet
EndChar

StartChar: u0C97.imathra
Encoding: 65553 -1 136
Width: 642
Flags: W
LayerCount: 2
Fore
SplineSet
621 -2 m 1,0,-1
 510 -2 l 1,1,2
 553 175 553 175 553 288 c 0,3,4
 553 383 553 383 524 435.5 c 128,-1,5
 495 488 495 488 432 488 c 0,6,7
 326 488 326 488 250 337 c 0,8,9
 186 211 186 211 144 -5 c 1,10,-1
 35 -3 l 1,11,12
 37 20 37 20 41.5 48.5 c 128,-1,13
 46 77 46 77 61 137 c 0,14,15
 95 278 95 278 156 363 c 0,16,17
 198 421 198 421 272 472 c 1,18,19
 244 481 244 481 228 499 c 0,20,21
 203 525 203 525 203 565 c 0,22,23
 203 583 203 583 205 594 c 0,24,25
 216 647 216 647 269 678.5 c 128,-1,26
 322 710 322 710 393 710 c 0,27,28
 509 710 509 710 587 632 c 1,29,30
 682 539 682 539 682 365 c 0,31,32
 682 298 682 298 666 214 c 1,33,-1
 621 -2 l 1,0,-1
622 431 m 1,34,35
 608 506 608 506 569 553 c 0,36,37
 508 625 508 625 399 625 c 0,38,39
 363 625 363 625 334.5 612.5 c 128,-1,40
 306 600 306 600 299 568 c 0,41,42
 298 564 298 564 298 559.5 c 128,-1,43
 298 555 298 555 298 554 c 0,44,45
 298 533 298 533 314 521 c 0,46,47
 323 514 323 514 338 510 c 1,48,49
 366 521 366 521 391.5 527 c 128,-1,50
 417 533 417 533 446 533 c 0,51,52
 496 533 496 533 539 510 c 128,-1,53
 582 487 582 487 622 431 c 1,34,35
EndSplineSet
LCarets2: 1 0
EndChar

StartChar: u0C97.sub
Encoding: 65554 -1 137
Width: 237
Flags: W
LayerCount: 2
Fore
SplineSet
149 -376 m 1,0,-1
 40 -376 l 1,1,2
 59 -320 59 -320 59 -257 c 0,3,4
 59 -190 59 -190 35.5 -145 c 128,-1,5
 12 -100 12 -100 -32 -100 c 0,6,7
 -109 -100 -109 -100 -167 -188 c 128,-1,8
 -225 -276 -225 -276 -225 -365 c 1,9,10
 -243 -365 -243 -365 -260 -365 c 128,-1,11
 -277 -365 -277 -365 -303 -366 c 0,12,13
 -314 -366 -314 -366 -317.5 -366 c 128,-1,14
 -321 -366 -321 -366 -325 -365 c 1,15,16
 -307 -260 -307 -260 -229 -167 c 0,17,18
 -139 -58 -139 -58 -32 -58 c 0,19,20
 61 -58 61 -58 112 -129 c 0,21,22
 158 -193 158 -193 158 -291 c 0,23,24
 158 -309 158 -309 155.5 -330.5 c 128,-1,25
 153 -352 153 -352 149 -376 c 1,0,-1
EndSplineSet
LCarets2: 1 0
EndChar

StartChar: u0C98.base
Encoding: 65555 -1 139
Width: 809
Flags: W
LayerCount: 2
Fore
SplineSet
733 470 m 1,0,-1
 139 470 l 1,1,-1
 162 579 l 1,2,-1
 757 579 l 1,3,-1
 733 470 l 1,0,-1
528 368 m 0,4,5
 521 338 521 338 492.5 318 c 128,-1,6
 464 298 464 298 434 298 c 0,7,8
 411 298 411 298 396 310.5 c 128,-1,9
 381 323 381 323 381 349 c 0,10,11
 381 354 381 354 383 368 c 1,12,13
 391 403 391 403 413 421 c 128,-1,14
 435 439 435 439 464 439 c 256,15,16
 493 439 493 439 511 424.5 c 128,-1,17
 529 410 529 410 529 382 c 0,18,19
 529 374 529 374 528 368 c 0,4,5
900 460 m 1,20,21
 932 409 932 409 932 359 c 0,22,23
 932 312 932 312 904 277.5 c 128,-1,24
 876 243 876 243 826 243 c 0,25,26
 787 243 787 243 766 257 c 1,27,28
 766 158 766 158 709 77 c 0,29,30
 642 -18 642 -18 539 -18 c 0,31,32
 484 -18 484 -18 444 25 c 0,33,34
 416 54 416 54 401 98 c 1,35,36
 369 55 369 55 332 28 c 0,37,38
 274 -15 274 -15 212 -15 c 0,39,40
 141 -15 141 -15 104 34 c 0,41,42
 72 76 72 76 72 140 c 0,43,44
 72 154 72 154 74.5 171.5 c 128,-1,45
 77 189 77 189 79 203 c 1,46,47
 97 275 97 275 148 314.5 c 128,-1,48
 199 354 199 354 253 354 c 0,49,50
 293 354 293 354 319.5 330.5 c 128,-1,51
 346 307 346 307 346 267 c 0,52,53
 346 248 346 248 344 237 c 0,54,55
 337 202 337 202 310 180.5 c 128,-1,56
 283 159 283 159 254 159 c 0,57,58
 219 159 219 159 201 185 c 1,59,60
 222 192 222 192 231 196 c 0,61,62
 264 212 264 212 268 235 c 1,63,64
 273 256 273 256 258.5 269 c 128,-1,65
 244 282 244 282 221 282 c 0,66,67
 192 282 192 282 167.5 263.5 c 128,-1,68
 143 245 143 245 134 206 c 0,69,70
 133 199 133 199 133 187 c 0,71,72
 133 151 133 151 160 128 c 128,-1,73
 187 105 187 105 236 105 c 0,74,75
 293 105 293 105 342 140 c 0,76,77
 406 186 406 186 415 225 c 1,78,-1
 436 225 l 1,79,80
 451 185 451 185 463 166 c 0,81,82
 503 106 503 106 570 106 c 0,83,84
 634 106 634 106 671.5 145 c 128,-1,85
 709 184 709 184 709 237 c 0,86,87
 709 259 709 259 702 280.5 c 128,-1,88
 695 302 695 302 679 321 c 0,89,90
 656 350 656 350 656 375 c 0,91,92
 656 396 656 396 673.5 407.5 c 128,-1,93
 691 419 691 419 709 419 c 0,94,95
 737 419 737 419 744 372.5 c 128,-1,96
 751 326 751 326 787 326 c 0,97,98
 791 326 791 326 810 328 c 1,99,100
 860 339 860 339 860 375 c 0,101,102
 860 387 860 387 854 403 c 128,-1,103
 848 419 848 419 841 430 c 1,104,105
 843 442 843 442 845 447 c 0,106,107
 854 466 854 466 873 466 c 0,108,109
 885 466 885 466 900 460 c 1,20,21
422 -137 m 1,110,111
 415 -170 415 -170 389.5 -188.5 c 128,-1,112
 364 -207 364 -207 335 -207 c 0,113,114
 310 -207 310 -207 294 -194 c 128,-1,115
 278 -181 278 -181 278 -156 c 0,116,117
 278 -151 278 -151 280.5 -135 c 128,-1,118
 283 -119 283 -119 329 -47 c 0,119,120
 343 -24 343 -24 373 20 c 1,121,-1
 381 16 l 1,122,-1
 392 20 l 1,123,124
 404 -23 404 -23 408 -46 c 1,125,126
 424 -118 424 -118 422 -137 c 1,110,111
EndSplineSet
EndChar

StartChar: u0C98.imathra
Encoding: 65556 -1 140
Width: 921
Flags: W
LayerCount: 2
Fore
SplineSet
515 520 m 1,0,1
 488 490 488 490 455.5 475.5 c 128,-1,2
 423 461 423 461 395 461 c 0,3,4
 349 461 349 461 326 486.5 c 128,-1,5
 303 512 303 512 303 551 c 0,6,7
 303 602 303 602 340 643 c 128,-1,8
 377 684 377 684 440 684 c 0,9,10
 501 684 501 684 536 639.5 c 128,-1,11
 571 595 571 595 571 532 c 0,12,13
 571 457 571 457 528 403 c 0,14,15
 479 342 479 342 397 342 c 0,16,17
 364 342 364 342 339 361.5 c 128,-1,18
 314 381 314 381 314 410 c 0,19,20
 314 414 314 414 316.5 426.5 c 128,-1,21
 319 439 319 439 334 448 c 0,22,23
 338 450 338 450 349 454 c 1,24,25
 354 431 354 431 370 419.5 c 128,-1,26
 386 408 386 408 407 408 c 0,27,28
 446 408 446 408 481.5 438 c 128,-1,29
 517 468 517 468 517 505 c 0,30,31
 517 514 517 514 515 520 c 1,0,1
837 230 m 1,32,33
 816 230 816 230 800 235.5 c 128,-1,34
 784 241 784 241 766 253 c 1,35,36
 766 153 766 153 709 72 c 0,37,38
 642 -23 642 -23 539 -23 c 0,39,40
 485 -23 485 -23 444 21 c 0,41,42
 416 50 416 50 401 93 c 1,43,44
 369 51 369 51 332 24 c 0,45,46
 272 -20 272 -20 211 -20 c 0,47,48
 139 -20 139 -20 103 27 c 0,49,50
 73 67 73 67 73 132 c 0,51,52
 73 165 73 165 81 197 c 0,53,54
 99 269 99 269 148.5 308.5 c 128,-1,55
 198 348 198 348 254 348 c 0,56,57
 294 348 294 348 321 325 c 128,-1,58
 348 302 348 302 348 259 c 0,59,60
 348 240 348 240 346 231 c 0,61,62
 338 195 338 195 311.5 174 c 128,-1,63
 285 153 285 153 255 153 c 0,64,65
 220 153 220 153 202 179 c 1,66,67
 223 186 223 186 232 190 c 0,68,69
 265 206 265 206 270 229 c 0,70,71
 274 251 274 251 260.5 263.5 c 128,-1,72
 247 276 247 276 222 276 c 0,73,74
 193 276 193 276 168.5 257.5 c 128,-1,75
 144 239 144 239 135 200 c 0,76,77
 134 195 134 195 134 189.5 c 128,-1,78
 134 184 134 184 134 182 c 0,79,80
 134 145 134 145 161 122 c 128,-1,81
 188 99 188 99 237 99 c 0,82,83
 292 99 292 99 342 135 c 0,84,85
 406 182 406 182 415 219 c 1,86,-1
 436 219 l 1,87,88
 451 179 451 179 463 160 c 0,89,90
 505 99 505 99 570 99 c 0,91,92
 631 99 631 99 672 137.5 c 128,-1,93
 713 176 713 176 713 230 c 0,94,95
 713 251 713 251 708 269 c 0,96,97
 697 305 697 305 668.5 333 c 128,-1,98
 640 361 640 361 640 386 c 0,99,100
 640 408 640 408 659.5 424 c 128,-1,101
 679 440 679 440 697 440 c 0,102,103
 739 440 739 440 758.5 380.5 c 128,-1,104
 778 321 778 321 835 321 c 0,105,106
 872 321 872 321 892 348 c 128,-1,107
 912 375 912 375 912 418 c 0,108,109
 912 457 912 457 896 492 c 128,-1,110
 880 527 880 527 851 549 c 0,111,112
 835 561 835 561 835 579 c 0,113,114
 835 594 835 594 844.5 605 c 128,-1,115
 854 616 854 616 870 616 c 0,116,117
 888 616 888 616 904 600 c 0,118,119
 940 563 940 563 958.5 514 c 128,-1,120
 977 465 977 465 977 416 c 0,121,122
 977 339 977 339 937.5 282.5 c 128,-1,123
 898 226 898 226 837 230 c 1,32,33
422 -140 m 1,124,125
 415 -173 415 -173 389.5 -191.5 c 128,-1,126
 364 -210 364 -210 335 -210 c 0,127,128
 310 -210 310 -210 294 -197 c 128,-1,129
 278 -184 278 -184 278 -159 c 0,130,131
 278 -154 278 -154 280.5 -138 c 128,-1,132
 283 -122 283 -122 329 -50 c 0,133,134
 343 -27 343 -27 373 17 c 1,135,-1
 381 13 l 1,136,-1
 392 17 l 1,137,138
 404 -26 404 -26 408 -49 c 1,139,140
 424 -121 424 -121 422 -140 c 1,124,125
493 570 m 1,141,142
 488 582 488 582 473 589 c 128,-1,143
 458 596 458 596 439 596 c 0,144,145
 409 596 409 596 386 574.5 c 128,-1,146
 363 553 363 553 363 531 c 0,147,148
 363 504 363 504 402 504 c 0,149,150
 428 504 428 504 451.5 520.5 c 128,-1,151
 475 537 475 537 493 570 c 1,141,142
EndSplineSet
LCarets2: 1 0
EndChar

StartChar: u0C98.sub
Encoding: 65557 -1 141
Width: 292
Flags: W
LayerCount: 2
Fore
SplineSet
191 -140 m 0,0,1
 166 -140 166 -140 150 -126 c 1,2,3
 143 -190 143 -190 114 -239 c 0,4,5
 77 -302 77 -302 17 -302 c 0,6,7
 -26 -302 -26 -302 -55 -265 c 1,8,9
 -74 -239 -74 -239 -85 -199 c 1,10,11
 -117 -250 -117 -250 -160 -276 c 0,12,13
 -196 -298 -196 -298 -233 -298 c 0,14,15
 -269 -298 -269 -298 -287 -276 c 128,-1,16
 -305 -254 -305 -254 -305 -221 c 0,17,18
 -305 -172 -305 -172 -271.5 -129.5 c 128,-1,19
 -238 -87 -238 -87 -188 -87 c 0,20,21
 -158 -87 -158 -87 -142 -105.5 c 128,-1,22
 -126 -124 -126 -124 -130 -147 c 1,23,24
 -137 -177 -137 -177 -165 -188 c 1,25,26
 -173 -190 -173 -190 -191 -192 c 1,27,-1
 -187 -183 l 1,28,-1
 -192 -176 l 1,29,30
 -180 -168 -180 -168 -180 -153 c 0,31,32
 -180 -135 -180 -135 -202 -135 c 0,33,34
 -221 -135 -221 -135 -234 -148 c 128,-1,35
 -247 -161 -247 -161 -247 -180 c 0,36,37
 -247 -194 -247 -194 -236.5 -203 c 128,-1,38
 -226 -212 -226 -212 -204 -212 c 0,39,40
 -151 -212 -151 -212 -110 -161 c 0,41,42
 -96 -145 -96 -145 -78 -109 c 1,43,-1
 -57 -108 l 1,44,45
 -53 -142 -53 -142 -48 -158 c 0,46,47
 -29 -209 -29 -209 21 -209 c 0,48,49
 60 -209 60 -209 81.5 -183.5 c 128,-1,50
 103 -158 103 -158 103 -121 c 0,51,52
 103 -81 103 -81 77 -54 c 0,53,54
 70 -47 70 -47 70 -38 c 0,55,56
 70 -5 70 -5 103 -5 c 0,57,58
 128 -5 128 -5 137.5 -35 c 128,-1,59
 147 -65 147 -65 153 -70.5 c 128,-1,60
 159 -76 159 -76 161 -78 c 0,61,62
 173 -86 173 -86 188 -86 c 0,63,64
 229 -86 229 -86 229 -47 c 0,65,66
 229 -3 229 -3 175 51 c 1,67,68
 187 53 187 53 194 54 c 0,69,70
 219 59 219 59 220 59 c 0,71,72
 245 54 245 54 259.5 27 c 128,-1,73
 274 0 274 0 274 -34 c 0,74,75
 274 -77 274 -77 252 -109 c 128,-1,76
 230 -141 230 -141 191 -140 c 0,0,1
-73 -352 m 1,77,78
 -84 -399 -84 -399 -133 -399 c 0,79,80
 -168 -399 -168 -399 -168 -364 c 0,81,82
 -168 -359 -168 -359 -166 -350 c 128,-1,83
 -164 -341 -164 -341 -123 -278 c 0,84,85
 -116 -267 -116 -267 -102 -248 c 1,86,-1
 -73 -352 l 1,77,78
EndSplineSet
LCarets2: 1 0
EndChar

StartChar: u0C99
Encoding: 3225 3225 142
Width: 800
Flags: W
LayerCount: 2
Fore
SplineSet
611 371 m 1,0,1
 604 341 604 341 575.5 321 c 128,-1,2
 547 301 547 301 517 301 c 0,3,4
 495 301 495 301 479 314 c 128,-1,5
 463 327 463 327 463 352 c 0,6,7
 463 357 463 357 465 371 c 1,8,9
 473 406 473 406 495 424 c 128,-1,10
 517 442 517 442 546 442 c 256,11,12
 575 442 575 442 593 427.5 c 128,-1,13
 611 413 611 413 611 385 c 0,14,15
 611 377 611 377 611 371 c 1,0,1
738 349 m 1,16,17
 749 365 749 365 753 374 c 0,18,19
 769 409 769 409 769 434 c 0,20,21
 769 466 769 466 747 482 c 0,22,23
 718 504 718 504 653 504 c 0,24,25
 561 504 561 504 461 441 c 0,26,27
 428 420 428 420 379 377 c 1,28,29
 295 324 295 324 242.5 280 c 128,-1,30
 190 236 190 236 179 189 c 1,31,32
 177 175 177 175 177 170 c 0,33,34
 177 135 177 135 206 118.5 c 128,-1,35
 235 102 235 102 271 102 c 0,36,37
 338 102 338 102 408 188 c 0,38,39
 430 216 430 216 465 276 c 1,40,41
 474 219 474 219 485 191 c 0,42,43
 521 105 521 105 593 105 c 0,44,45
 653 105 653 105 689 133 c 128,-1,46
 725 161 725 161 725 198 c 0,47,48
 725 223 725 223 707.5 243 c 128,-1,49
 690 263 690 263 653 275 c 1,50,51
 661 287 661 287 666 291 c 0,52,53
 685 307 685 307 706 302 c 1,54,55
 755 297 755 297 779.5 268 c 128,-1,56
 804 239 804 239 804 196 c 0,57,58
 804 121 804 121 746 57 c 0,59,60
 681 -14 681 -14 590 -14 c 0,61,62
 519 -14 519 -14 475 35 c 0,63,64
 446 67 446 67 431 117 c 1,65,66
 389 66 389 66 349 34 c 0,67,68
 282 -19 282 -19 222 -19 c 0,69,70
 159 -19 159 -19 120 18.5 c 128,-1,71
 81 56 81 56 81 114 c 0,72,73
 81 130 81 130 85 149 c 0,74,75
 103 220 103 220 171 277 c 0,76,77
 322 401 322 401 324.5 413.5 c 128,-1,78
 327 426 327 426 327 430.5 c 128,-1,79
 327 435 327 435 327 436 c 0,80,81
 327 482 327 482 278 482 c 0,82,83
 255 482 255 482 235 469 c 128,-1,84
 215 456 215 456 208 431 c 1,85,86
 204 410 204 410 233 392 c 0,87,88
 242 387 242 387 262 379 c 1,89,90
 236 360 236 360 207 360 c 0,91,92
 175 360 175 360 151 381.5 c 128,-1,93
 127 403 127 403 127 440 c 0,94,95
 127 452 127 452 131 468 c 0,96,97
 145 526 145 526 195 561.5 c 128,-1,98
 245 597 245 597 302 597 c 0,99,100
 351 597 351 597 383.5 569 c 128,-1,101
 416 541 416 541 416 488 c 0,102,103
 416 467 416 467 411 446 c 1,104,105
 468 499 468 499 504 524 c 0,106,107
 617 603 617 603 706 603 c 0,108,109
 787 603 787 603 826 568 c 0,110,111
 859 539 859 539 859 488 c 0,112,113
 859 435 859 435 824 387.5 c 128,-1,114
 789 340 789 340 750 340 c 0,115,116
 745 340 745 340 738 349 c 1,16,17
EndSplineSet
LCarets2: 1 0
EndChar

